G04 #@! TF.FileFunction,Legend,Bot*
%FSLAX46Y46*%
G04 Gerber Fmt 4.6, Leading zero omitted, Abs format (unit mm)*
G04 Created by KiCad (PCBNEW 4.0.1-stable) date 17/06/2016 16:01:18*
%MOMM*%
G01*
G04 APERTURE LIST*
%ADD10C,0.100000*%
%ADD11C,0.150000*%
%ADD12C,0.500000*%
%ADD13C,0.200000*%
%ADD14C,0.300000*%
G04 APERTURE END LIST*
D10*
D11*
X46355000Y28575000D02*
X46355000Y20955000D01*
D10*
X15422381Y21137619D02*
X15755715Y21613810D01*
X15993810Y21137619D02*
X15993810Y22137619D01*
X15612857Y22137619D01*
X15517619Y22090000D01*
X15470000Y22042381D01*
X15422381Y21947143D01*
X15422381Y21804286D01*
X15470000Y21709048D01*
X15517619Y21661429D01*
X15612857Y21613810D01*
X15993810Y21613810D01*
X14993810Y21661429D02*
X14660476Y21661429D01*
X14517619Y21137619D02*
X14993810Y21137619D01*
X14993810Y22137619D01*
X14517619Y22137619D01*
X14136667Y21185238D02*
X13993810Y21137619D01*
X13755714Y21137619D01*
X13660476Y21185238D01*
X13612857Y21232857D01*
X13565238Y21328095D01*
X13565238Y21423333D01*
X13612857Y21518571D01*
X13660476Y21566190D01*
X13755714Y21613810D01*
X13946191Y21661429D01*
X14041429Y21709048D01*
X14089048Y21756667D01*
X14136667Y21851905D01*
X14136667Y21947143D01*
X14089048Y22042381D01*
X14041429Y22090000D01*
X13946191Y22137619D01*
X13708095Y22137619D01*
X13565238Y22090000D01*
X13136667Y21661429D02*
X12803333Y21661429D01*
X12660476Y21137619D02*
X13136667Y21137619D01*
X13136667Y22137619D01*
X12660476Y22137619D01*
X12374762Y22137619D02*
X11803333Y22137619D01*
X12089048Y21137619D02*
X12089048Y22137619D01*
X12700000Y22860000D02*
X12700000Y26670000D01*
X15240000Y22860000D02*
X12700000Y22860000D01*
X15240000Y26670000D02*
X15240000Y22860000D01*
X12700000Y26670000D02*
X15240000Y26670000D01*
D12*
X14605000Y24765000D02*
G75*
G03X14605000Y24765000I-635000J0D01*
G01*
D11*
X8255000Y15240000D02*
X8255000Y34290000D01*
X45085000Y15240000D02*
X8255000Y15240000D01*
X45085000Y20955000D02*
X45085000Y15240000D01*
X46355000Y20955000D02*
X45085000Y20955000D01*
X45085000Y28575000D02*
X46355000Y28575000D01*
X45085000Y34290000D02*
X45085000Y28575000D01*
X8255000Y34290000D02*
X45085000Y34290000D01*
D10*
X44862453Y26480879D02*
X44862453Y22915404D01*
X44975189Y26735098D02*
X44975189Y26735098D01*
X44876195Y24228267D02*
X44886451Y24227847D01*
X44866001Y24228852D02*
X44876195Y24228267D01*
X44855870Y24229587D02*
X44866001Y24228852D01*
X44845801Y24230487D02*
X44855870Y24229587D01*
X44835793Y24231522D02*
X44845801Y24230487D01*
X44825849Y24232722D02*
X44835793Y24231522D01*
X44815969Y24234072D02*
X44825849Y24232722D01*
X44806153Y24235572D02*
X44815969Y24234072D01*
X44796401Y24237222D02*
X44806153Y24235572D01*
X44786713Y24239022D02*
X44796401Y24237222D01*
X44777090Y24240972D02*
X44786713Y24239022D01*
X44767534Y24243072D02*
X44777090Y24240972D01*
X44758043Y24245322D02*
X44767534Y24243072D01*
X44748617Y24247722D02*
X44758043Y24245322D01*
X44739260Y24250257D02*
X44748617Y24247722D01*
X44729968Y24252942D02*
X44739260Y24250257D01*
X44720744Y24255777D02*
X44729968Y24252942D01*
X44711588Y24258762D02*
X44720744Y24255777D01*
X44702501Y24261882D02*
X44711588Y24258762D01*
X44693482Y24265152D02*
X44702501Y24261882D01*
X44684533Y24268557D02*
X44693482Y24265152D01*
X44675651Y24272112D02*
X44684533Y24268557D01*
X44666840Y24275802D02*
X44675651Y24272112D01*
X44658100Y24279642D02*
X44666840Y24275802D01*
X44649430Y24283617D02*
X44658100Y24279642D01*
X44640832Y24287727D02*
X44649430Y24283617D01*
X44632304Y24291972D02*
X44640832Y24287727D01*
X44623847Y24296367D02*
X44632304Y24291972D01*
X44615464Y24300882D02*
X44623847Y24296367D01*
X44607154Y24305547D02*
X44615464Y24300882D01*
X44598916Y24310347D02*
X44607154Y24305547D01*
X44590751Y24315282D02*
X44598916Y24310347D01*
X44582660Y24320352D02*
X44590751Y24315282D01*
X44574644Y24325557D02*
X44582660Y24320352D01*
X44566702Y24330897D02*
X44574644Y24325557D01*
X44558834Y24336357D02*
X44566702Y24330897D01*
X44551043Y24341952D02*
X44558834Y24336357D01*
X44543327Y24347682D02*
X44551043Y24341952D01*
X44535688Y24353547D02*
X44543327Y24347682D01*
X44528125Y24359547D02*
X44535688Y24353547D01*
X44520638Y24365667D02*
X44528125Y24359547D01*
X44513230Y24371907D02*
X44520638Y24365667D01*
X44505899Y24378282D02*
X44513230Y24371907D01*
X44498647Y24384792D02*
X44505899Y24378282D01*
X44491472Y24391422D02*
X44498647Y24384792D01*
X44484377Y24398172D02*
X44491472Y24391422D01*
X44477360Y24405057D02*
X44484377Y24398172D01*
X44470424Y24412062D02*
X44477360Y24405057D01*
X44463569Y24419187D02*
X44470424Y24412062D01*
X44456794Y24426432D02*
X44463569Y24419187D01*
X44450098Y24433812D02*
X44456794Y24426432D01*
X44443486Y24441297D02*
X44450098Y24433812D01*
X44436953Y24448917D02*
X44443486Y24441297D01*
X44430505Y24456657D02*
X44436953Y24448917D01*
X44424137Y24464502D02*
X44430505Y24456657D01*
X44417854Y24472482D02*
X44424137Y24464502D01*
X44411653Y24480567D02*
X44417854Y24472482D01*
X44405536Y24488787D02*
X44411653Y24480567D01*
X44399504Y24497112D02*
X44405536Y24488787D01*
X44393555Y24505542D02*
X44399504Y24497112D01*
X44387692Y24514107D02*
X44393555Y24505542D01*
X44381914Y24522777D02*
X44387692Y24514107D01*
X44376221Y24531567D02*
X44381914Y24522777D01*
X44370616Y24540462D02*
X44376221Y24531567D01*
X44365096Y24549477D02*
X44370616Y24540462D01*
X44359663Y24558597D02*
X44365096Y24549477D01*
X44354317Y24567837D02*
X44359663Y24558597D01*
X44349059Y24577182D02*
X44354317Y24567837D01*
X44343890Y24586632D02*
X44349059Y24577182D01*
X44338808Y24596202D02*
X44343890Y24586632D01*
X44333816Y24605877D02*
X44338808Y24596202D01*
X44328913Y24615657D02*
X44333816Y24605877D01*
X44324099Y24625542D02*
X44328913Y24615657D01*
X44319377Y24635532D02*
X44324099Y24625542D01*
X44314744Y24645642D02*
X44319377Y24635532D01*
X44310202Y24655842D02*
X44314744Y24645642D01*
X44305751Y24666147D02*
X44310202Y24655842D01*
X44301392Y24676572D02*
X44305751Y24666147D01*
X44297125Y24687087D02*
X44301392Y24676572D01*
X44292950Y24697707D02*
X44297125Y24687087D01*
X44288869Y24708417D02*
X44292950Y24697707D01*
X44284880Y24719247D02*
X44288869Y24708417D01*
X44280985Y24730167D02*
X44284880Y24719247D01*
X44277185Y24741192D02*
X44280985Y24730167D01*
X44273479Y24752307D02*
X44277185Y24741192D01*
X44269867Y24763527D02*
X44273479Y24752307D01*
X44266351Y24774852D02*
X44269867Y24763527D01*
X44262931Y24786267D02*
X44266351Y24774852D01*
X44259605Y24797772D02*
X44262931Y24786267D01*
X44256377Y24809382D02*
X44259605Y24797772D01*
X44253247Y24821082D02*
X44256377Y24809382D01*
X44250212Y24832872D02*
X44253247Y24821082D01*
X44247275Y24844752D02*
X44250212Y24832872D01*
X44244437Y24856737D02*
X44247275Y24844752D01*
X44241697Y24868812D02*
X44244437Y24856737D01*
X44239056Y24880977D02*
X44241697Y24868812D01*
X44236514Y24893232D02*
X44239056Y24880977D01*
X44234071Y24905577D02*
X44236514Y24893232D01*
X44231729Y24918012D02*
X44234071Y24905577D01*
X44229487Y24930537D02*
X44231729Y24918012D01*
X44227345Y24943137D02*
X44229487Y24930537D01*
X44225305Y24955842D02*
X44227345Y24943137D01*
X44223367Y24968622D02*
X44225305Y24955842D01*
X44221531Y24981492D02*
X44223367Y24968622D01*
X44219797Y24994452D02*
X44221531Y24981492D01*
X44218165Y25007487D02*
X44219797Y24994452D01*
X44216637Y25020612D02*
X44218165Y25007487D01*
X44215213Y25033827D02*
X44216637Y25020612D01*
X44213892Y25047117D02*
X44215213Y25033827D01*
X44212676Y25060482D02*
X44213892Y25047117D01*
X44211564Y25073937D02*
X44212676Y25060482D01*
X44210558Y25087482D02*
X44211564Y25073937D01*
X44209657Y25101087D02*
X44210558Y25087482D01*
X44208863Y25114782D02*
X44209657Y25101087D01*
X44208174Y25128552D02*
X44208863Y25114782D01*
X44207593Y25142397D02*
X44208174Y25128552D01*
X44207118Y25156332D02*
X44207593Y25142397D01*
X44206751Y25170327D02*
X44207118Y25156332D01*
X44206492Y25184412D02*
X44206751Y25170327D01*
X44206341Y25198557D02*
X44206492Y25184412D01*
X44206300Y25212792D02*
X44206341Y25198557D01*
X44206367Y25227087D02*
X44206300Y25212792D01*
X44206543Y25241472D02*
X44206367Y25227087D01*
X44206830Y25255917D02*
X44206543Y25241472D01*
X44207227Y25270437D02*
X44206830Y25255917D01*
X44207735Y25285017D02*
X44207227Y25270437D01*
X44208354Y25299672D02*
X44207735Y25285017D01*
X45579200Y25977432D02*
X45579130Y25977777D01*
X45579331Y25976682D02*
X45579200Y25977432D01*
X45579515Y25975527D02*
X45579331Y25976682D01*
X45579754Y25973982D02*
X45579515Y25975527D01*
X45580039Y25972062D02*
X45579754Y25973982D01*
X45580370Y25969752D02*
X45580039Y25972062D01*
X45580742Y25967082D02*
X45580370Y25969752D01*
X45581153Y25964037D02*
X45580742Y25967082D01*
X45581599Y25960632D02*
X45581153Y25964037D01*
X45582076Y25956867D02*
X45581599Y25960632D01*
X45582580Y25952757D02*
X45582076Y25956867D01*
X45583108Y25948317D02*
X45582580Y25952757D01*
X45583658Y25943532D02*
X45583108Y25948317D01*
X45584225Y25938417D02*
X45583658Y25943532D01*
X45584806Y25932987D02*
X45584225Y25938417D01*
X45585398Y25927242D02*
X45584806Y25932987D01*
X45585997Y25921167D02*
X45585398Y25927242D01*
X45586598Y25914807D02*
X45585997Y25921167D01*
X45587201Y25908147D02*
X45586598Y25914807D01*
X45587800Y25901202D02*
X45587201Y25908147D01*
X45588392Y25893957D02*
X45587800Y25901202D01*
X45588974Y25886442D02*
X45588392Y25893957D01*
X45589543Y25878657D02*
X45588974Y25886442D01*
X45590095Y25870602D02*
X45589543Y25878657D01*
X45590626Y25862277D02*
X45590095Y25870602D01*
X45591133Y25853712D02*
X45590626Y25862277D01*
X45591613Y25844907D02*
X45591133Y25853712D01*
X45592061Y25835847D02*
X45591613Y25844907D01*
X45592475Y25826562D02*
X45592061Y25835847D01*
X45592852Y25817037D02*
X45592475Y25826562D01*
X45593188Y25807302D02*
X45592852Y25817037D01*
X45593477Y25797342D02*
X45593188Y25807302D01*
X45593720Y25787187D02*
X45593477Y25797342D01*
X45593911Y25776807D02*
X45593720Y25787187D01*
X45594047Y25766247D02*
X45593911Y25776807D01*
X45594124Y25755492D02*
X45594047Y25766247D01*
X45594140Y25744557D02*
X45594124Y25755492D01*
X45594089Y25733442D02*
X45594140Y25744557D01*
X45593971Y25722147D02*
X45594089Y25733442D01*
X45593779Y25710702D02*
X45593971Y25722147D01*
X45593512Y25699092D02*
X45593779Y25710702D01*
X45593167Y25687317D02*
X45593512Y25699092D01*
X45592738Y25675407D02*
X45593167Y25687317D01*
X45592222Y25663362D02*
X45592738Y25675407D01*
X45591617Y25651182D02*
X45592222Y25663362D01*
X45590920Y25638867D02*
X45591617Y25651182D01*
X45590126Y25626432D02*
X45590920Y25638867D01*
X45589232Y25613877D02*
X45590126Y25626432D01*
X45588235Y25601232D02*
X45589232Y25613877D01*
X45587131Y25588467D02*
X45588235Y25601232D01*
X45585916Y25575612D02*
X45587131Y25588467D01*
X45584587Y25562667D02*
X45585916Y25575612D01*
X45583142Y25549647D02*
X45584587Y25562667D01*
X45581576Y25536537D02*
X45583142Y25549647D01*
X45579886Y25523352D02*
X45581576Y25536537D01*
X45578068Y25510122D02*
X45579886Y25523352D01*
X45576119Y25496817D02*
X45578068Y25510122D01*
X45574036Y25483467D02*
X45576119Y25496817D01*
X45571816Y25470072D02*
X45574036Y25483467D01*
X45569453Y25456632D02*
X45571816Y25470072D01*
X45566945Y25443162D02*
X45569453Y25456632D01*
X45564290Y25429677D02*
X45566945Y25443162D01*
X45561482Y25416162D02*
X45564290Y25429677D01*
X45558520Y25402632D02*
X45561482Y25416162D01*
X45555400Y25389087D02*
X45558520Y25402632D01*
X45552116Y25375557D02*
X45555400Y25389087D01*
X45548668Y25362012D02*
X45552116Y25375557D01*
X45545051Y25348497D02*
X45548668Y25362012D01*
X45541261Y25334982D02*
X45545051Y25348497D01*
X45537295Y25321497D02*
X45541261Y25334982D01*
X45533150Y25308057D02*
X45537295Y25321497D01*
X45528823Y25294632D02*
X45533150Y25308057D01*
X45524308Y25281252D02*
X45528823Y25294632D01*
X45519604Y25267932D02*
X45524308Y25281252D01*
X45514708Y25254657D02*
X45519604Y25267932D01*
X45509614Y25241457D02*
X45514708Y25254657D01*
X45504320Y25228317D02*
X45509614Y25241457D01*
X45498824Y25215252D02*
X45504320Y25228317D01*
X45493120Y25202262D02*
X45498824Y25215252D01*
X45487205Y25189362D02*
X45493120Y25202262D01*
X45481078Y25176552D02*
X45487205Y25189362D01*
X45474731Y25163847D02*
X45481078Y25176552D01*
X45468166Y25151232D02*
X45474731Y25163847D01*
X45461375Y25138752D02*
X45468166Y25151232D01*
X45454358Y25126377D02*
X45461375Y25138752D01*
X45447109Y25114122D02*
X45454358Y25126377D01*
X45439625Y25102002D02*
X45447109Y25114122D01*
X45431903Y25090017D02*
X45439625Y25102002D01*
X45423940Y25078182D02*
X45431903Y25090017D01*
X45415732Y25066497D02*
X45423940Y25078182D01*
X45407276Y25054962D02*
X45415732Y25066497D01*
X45398567Y25043592D02*
X45407276Y25054962D01*
X45389605Y25032387D02*
X45398567Y25043592D01*
X45380383Y25021362D02*
X45389605Y25032387D01*
X45370898Y25010502D02*
X45380383Y25021362D01*
X45361148Y24999852D02*
X45370898Y25010502D01*
X45351130Y24989382D02*
X45361148Y24999852D01*
X45340838Y24979107D02*
X45351130Y24989382D01*
X45330271Y24969057D02*
X45340838Y24979107D01*
X45319423Y24959202D02*
X45330271Y24969057D01*
X45308294Y24949572D02*
X45319423Y24959202D01*
X45296878Y24940167D02*
X45308294Y24949572D01*
X45285172Y24931002D02*
X45296878Y24940167D01*
X45273173Y24922062D02*
X45285172Y24931002D01*
X45260878Y24913362D02*
X45273173Y24922062D01*
X45248281Y24904932D02*
X45260878Y24913362D01*
X45235382Y24896742D02*
X45248281Y24904932D01*
X45222175Y24888822D02*
X45235382Y24896742D01*
X45208658Y24881157D02*
X45222175Y24888822D01*
X45194827Y24873792D02*
X45208658Y24881157D01*
X45180679Y24866682D02*
X45194827Y24873792D01*
X45166210Y24859872D02*
X45180679Y24866682D01*
X45151417Y24853362D02*
X45166210Y24859872D01*
X45136295Y24847152D02*
X45151417Y24853362D01*
X45120842Y24841242D02*
X45136295Y24847152D01*
X45105056Y24835647D02*
X45120842Y24841242D01*
X45088931Y24830367D02*
X45105056Y24835647D01*
X45072464Y24825417D02*
X45088931Y24830367D01*
X45055652Y24820812D02*
X45072464Y24825417D01*
X45038492Y24816522D02*
X45055652Y24820812D01*
X45020980Y24812592D02*
X45038492Y24816522D01*
X45003113Y24809007D02*
X45020980Y24812592D01*
X44984887Y24805782D02*
X45003113Y24809007D01*
X44966297Y24802917D02*
X44984887Y24805782D01*
X44947343Y24800427D02*
X44966297Y24802917D01*
X44928020Y24798312D02*
X44947343Y24800427D01*
X44908324Y24796572D02*
X44928020Y24798312D01*
X44589510Y22911759D02*
X44589510Y22911759D01*
X44975189Y26735098D02*
X44975189Y26735098D01*
X44589510Y22911759D02*
X44589510Y22911759D01*
X45411428Y26138185D02*
X45411428Y26138185D01*
X45411428Y26138185D02*
X45411428Y26138185D01*
X45411428Y25773617D02*
X45411428Y26138185D01*
X45775996Y25773617D02*
X45411428Y25773617D01*
X45775996Y26138185D02*
X45775996Y25773617D01*
X45411428Y26138185D02*
X45775996Y26138185D01*
X45132908Y26353792D02*
X45132908Y26353792D01*
X45132908Y26353792D02*
X45132908Y26353792D01*
X44859538Y26820550D02*
X45132908Y26353792D01*
X44591999Y26350426D02*
X44859538Y26820550D01*
X45132908Y26353792D02*
X44591999Y26350426D01*
X44427874Y25336136D02*
X44427874Y25336136D01*
X44427874Y25336136D02*
X44427874Y25336136D01*
X45128101Y22911759D02*
X45128101Y22911759D01*
X45128101Y22911759D02*
X45128101Y22911759D01*
X44427856Y25338987D02*
X44427874Y25336137D01*
X44427802Y25341837D02*
X44427856Y25338987D01*
X44427710Y25344687D02*
X44427802Y25341837D01*
X44427584Y25347522D02*
X44427710Y25344687D01*
X44427421Y25350342D02*
X44427584Y25347522D01*
X44427223Y25353147D02*
X44427421Y25350342D01*
X44426990Y25355952D02*
X44427223Y25353147D01*
X44426722Y25358742D02*
X44426990Y25355952D01*
X44426419Y25361532D02*
X44426722Y25358742D01*
X44426081Y25364292D02*
X44426419Y25361532D01*
X44425709Y25367067D02*
X44426081Y25364292D01*
X44425304Y25369812D02*
X44425709Y25367067D01*
X44424863Y25372542D02*
X44425304Y25369812D01*
X44424389Y25375272D02*
X44424863Y25372542D01*
X44423882Y25377987D02*
X44424389Y25375272D01*
X44423342Y25380702D02*
X44423882Y25377987D01*
X44422769Y25383387D02*
X44423342Y25380702D01*
X44422162Y25386072D02*
X44422769Y25383387D01*
X44421523Y25388742D02*
X44422162Y25386072D01*
X44420852Y25391397D02*
X44421523Y25388742D01*
X44420149Y25394037D02*
X44420852Y25391397D01*
X44419414Y25396662D02*
X44420149Y25394037D01*
X44418646Y25399272D02*
X44419414Y25396662D01*
X44417848Y25401882D02*
X44418646Y25399272D01*
X44417017Y25404462D02*
X44417848Y25401882D01*
X44416156Y25407042D02*
X44417017Y25404462D01*
X44415265Y25409607D02*
X44416156Y25407042D01*
X44414342Y25412142D02*
X44415265Y25409607D01*
X44413390Y25414677D02*
X44414342Y25412142D01*
X44412406Y25417197D02*
X44413390Y25414677D01*
X44411393Y25419687D02*
X44412406Y25417197D01*
X44410351Y25422177D02*
X44411393Y25419687D01*
X44409278Y25424652D02*
X44410351Y25422177D01*
X44408177Y25427097D02*
X44409278Y25424652D01*
X44407046Y25429542D02*
X44408177Y25427097D01*
X44405887Y25431957D02*
X44407046Y25429542D01*
X44404699Y25434372D02*
X44405887Y25431957D01*
X44403482Y25436757D02*
X44404699Y25434372D01*
X44402239Y25439127D02*
X44403482Y25436757D01*
X44400965Y25441482D02*
X44402239Y25439127D01*
X44399666Y25443822D02*
X44400965Y25441482D01*
X44398337Y25446132D02*
X44399666Y25443822D01*
X44396983Y25448442D02*
X44398337Y25446132D01*
X44395601Y25450722D02*
X44396983Y25448442D01*
X44394191Y25452987D02*
X44395601Y25450722D01*
X44392756Y25455237D02*
X44394191Y25452987D01*
X44391293Y25457457D02*
X44392756Y25455237D01*
X44389805Y25459677D02*
X44391293Y25457457D01*
X44388292Y25461867D02*
X44389805Y25459677D01*
X44386751Y25464027D02*
X44388292Y25461867D01*
X44385187Y25466187D02*
X44386751Y25464027D01*
X44383595Y25468317D02*
X44385187Y25466187D01*
X44381980Y25470432D02*
X44383595Y25468317D01*
X44380339Y25472517D02*
X44381980Y25470432D01*
X44378674Y25474587D02*
X44380339Y25472517D01*
X44376983Y25476642D02*
X44378674Y25474587D01*
X44375270Y25478667D02*
X44376983Y25476642D01*
X44373532Y25480677D02*
X44375270Y25478667D01*
X44371771Y25482672D02*
X44373532Y25480677D01*
X44369984Y25484637D02*
X44371771Y25482672D01*
X44368177Y25486572D02*
X44369984Y25484637D01*
X44366345Y25488492D02*
X44368177Y25486572D01*
X44364490Y25490397D02*
X44366345Y25488492D01*
X44362613Y25492272D02*
X44364490Y25490397D01*
X44360714Y25494132D02*
X44362613Y25492272D01*
X44358791Y25495962D02*
X44360714Y25494132D01*
X44356849Y25497762D02*
X44358791Y25495962D01*
X44354882Y25499547D02*
X44356849Y25497762D01*
X44352895Y25501317D02*
X44354882Y25499547D01*
X44350888Y25503057D02*
X44352895Y25501317D01*
X44348858Y25504767D02*
X44350888Y25503057D01*
X44346808Y25506462D02*
X44348858Y25504767D01*
X44344736Y25508127D02*
X44346808Y25506462D01*
X44342645Y25509762D02*
X44344736Y25508127D01*
X44340533Y25511382D02*
X44342645Y25509762D01*
X44338402Y25512972D02*
X44340533Y25511382D01*
X44336249Y25514532D02*
X44338402Y25512972D01*
X44334079Y25516077D02*
X44336249Y25514532D01*
X44331889Y25517592D02*
X44334079Y25516077D01*
X44329679Y25519077D02*
X44331889Y25517592D01*
X44327450Y25520532D02*
X44329679Y25519077D01*
X44325203Y25521972D02*
X44327450Y25520532D01*
X44322938Y25523382D02*
X44325203Y25521972D01*
X44320654Y25524762D02*
X44322938Y25523382D01*
X44318353Y25526127D02*
X44320654Y25524762D01*
X44316034Y25527447D02*
X44318353Y25526127D01*
X44313697Y25528752D02*
X44316034Y25527447D01*
X44311342Y25530027D02*
X44313697Y25528752D01*
X44308970Y25531272D02*
X44311342Y25530027D01*
X44306582Y25532487D02*
X44308970Y25531272D01*
X44304176Y25533672D02*
X44306582Y25532487D01*
X44301755Y25534827D02*
X44304176Y25533672D01*
X44299318Y25535967D02*
X44301755Y25534827D01*
X44296864Y25537062D02*
X44299318Y25535967D01*
X44294395Y25538127D02*
X44296864Y25537062D01*
X44291909Y25539177D02*
X44294395Y25538127D01*
X44289409Y25540182D02*
X44291909Y25539177D01*
X44286893Y25541172D02*
X44289409Y25540182D01*
X44284363Y25542132D02*
X44286893Y25541172D01*
X44281817Y25543047D02*
X44284363Y25542132D01*
X44279258Y25543932D02*
X44281817Y25543047D01*
X44276684Y25544802D02*
X44279258Y25543932D01*
X44274095Y25545627D02*
X44276684Y25544802D01*
X44271494Y25546422D02*
X44274095Y25545627D01*
X44268878Y25547202D02*
X44271494Y25546422D01*
X44266250Y25547937D02*
X44268878Y25547202D01*
X44263609Y25548642D02*
X44266250Y25547937D01*
X44260954Y25549302D02*
X44263609Y25548642D01*
X44258287Y25549947D02*
X44260954Y25549302D01*
X44255606Y25550547D02*
X44258287Y25549947D01*
X44252914Y25551132D02*
X44255606Y25550547D01*
X44250209Y25551672D02*
X44252914Y25551132D01*
X44247494Y25552167D02*
X44250209Y25551672D01*
X44244766Y25552647D02*
X44247494Y25552167D01*
X44242027Y25553082D02*
X44244766Y25552647D01*
X44239277Y25553487D02*
X44242027Y25553082D01*
X44236516Y25553862D02*
X44239277Y25553487D01*
X44233744Y25554207D02*
X44236516Y25553862D01*
X44230962Y25554507D02*
X44233744Y25554207D01*
X44228170Y25554777D02*
X44230962Y25554507D01*
X44225367Y25555002D02*
X44228170Y25554777D01*
X44222555Y25555197D02*
X44225367Y25555002D01*
X44219733Y25555362D02*
X44222555Y25555197D01*
X44216902Y25555497D02*
X44219733Y25555362D01*
X44214061Y25555587D02*
X44216902Y25555497D01*
X44211212Y25555632D02*
X44214061Y25555587D01*
X44208354Y25555662D02*
X44211212Y25555632D01*
X44205496Y25555632D02*
X44208354Y25555662D01*
X44202646Y25555587D02*
X44205496Y25555632D01*
X44199806Y25555497D02*
X44202646Y25555587D01*
X44196974Y25555362D02*
X44199806Y25555497D01*
X44194152Y25555197D02*
X44196974Y25555362D01*
X44191340Y25555002D02*
X44194152Y25555197D01*
X44188537Y25554777D02*
X44191340Y25555002D01*
X44185745Y25554507D02*
X44188537Y25554777D01*
X44182963Y25554207D02*
X44185745Y25554507D01*
X44180191Y25553862D02*
X44182963Y25554207D01*
X44177430Y25553487D02*
X44180191Y25553862D01*
X44174680Y25553082D02*
X44177430Y25553487D01*
X44171941Y25552647D02*
X44174680Y25553082D01*
X44169213Y25552167D02*
X44171941Y25552647D01*
X44166497Y25551672D02*
X44169213Y25552167D01*
X44163793Y25551132D02*
X44166497Y25551672D01*
X44161101Y25550547D02*
X44163793Y25551132D01*
X44158421Y25549947D02*
X44161101Y25550547D01*
X44155754Y25549302D02*
X44158421Y25549947D01*
X44153099Y25548642D02*
X44155754Y25549302D01*
X44150457Y25547937D02*
X44153099Y25548642D01*
X44147828Y25547202D02*
X44150457Y25547937D01*
X44145213Y25546422D02*
X44147828Y25547202D01*
X44142611Y25545627D02*
X44145213Y25546422D01*
X44140023Y25544802D02*
X44142611Y25545627D01*
X44137450Y25543932D02*
X44140023Y25544802D01*
X44134890Y25543047D02*
X44137450Y25543932D01*
X44132345Y25542132D02*
X44134890Y25543047D01*
X44129814Y25541172D02*
X44132345Y25542132D01*
X44127299Y25540182D02*
X44129814Y25541172D01*
X44124798Y25539177D02*
X44127299Y25540182D01*
X44122313Y25538127D02*
X44124798Y25539177D01*
X44119843Y25537062D02*
X44122313Y25538127D01*
X44117390Y25535967D02*
X44119843Y25537062D01*
X44114952Y25534827D02*
X44117390Y25535967D01*
X44112530Y25533672D02*
X44114952Y25534827D01*
X44110125Y25532487D02*
X44112530Y25533672D01*
X44107737Y25531272D02*
X44110125Y25532487D01*
X44105365Y25530027D02*
X44107737Y25531272D01*
X44103011Y25528752D02*
X44105365Y25530027D01*
X44100674Y25527447D02*
X44103011Y25528752D01*
X44098354Y25526127D02*
X44100674Y25527447D01*
X44096053Y25524762D02*
X44098354Y25526127D01*
X44093769Y25523382D02*
X44096053Y25524762D01*
X44091504Y25521972D02*
X44093769Y25523382D01*
X44089257Y25520532D02*
X44091504Y25521972D01*
X44087028Y25519077D02*
X44089257Y25520532D01*
X44084819Y25517592D02*
X44087028Y25519077D01*
X44082628Y25516077D02*
X44084819Y25517592D01*
X44080457Y25514532D02*
X44082628Y25516077D01*
X44078306Y25512972D02*
X44080457Y25514532D01*
X44076174Y25511382D02*
X44078306Y25512972D01*
X44074063Y25509762D02*
X44076174Y25511382D01*
X44071971Y25508127D02*
X44074063Y25509762D01*
X44069900Y25506462D02*
X44071971Y25508127D01*
X44067850Y25504767D02*
X44069900Y25506462D01*
X44065820Y25503057D02*
X44067850Y25504767D01*
X44063812Y25501317D02*
X44065820Y25503057D01*
X44061825Y25499547D02*
X44063812Y25501317D01*
X44059859Y25497762D02*
X44061825Y25499547D01*
X44057915Y25495962D02*
X44059859Y25497762D01*
X44055994Y25494132D02*
X44057915Y25495962D01*
X44054094Y25492272D02*
X44055994Y25494132D01*
X44052217Y25490397D02*
X44054094Y25492272D01*
X44050362Y25488492D02*
X44052217Y25490397D01*
X44048531Y25486572D02*
X44050362Y25488492D01*
X44046722Y25484637D02*
X44048531Y25486572D01*
X44044937Y25482672D02*
X44046722Y25484637D01*
X44043175Y25480677D02*
X44044937Y25482672D01*
X44041437Y25478667D02*
X44043175Y25480677D01*
X44039723Y25476642D02*
X44041437Y25478667D01*
X44038034Y25474587D02*
X44039723Y25476642D01*
X44036368Y25472517D02*
X44038034Y25474587D01*
X44034728Y25470432D02*
X44036368Y25472517D01*
X44033112Y25468317D02*
X44034728Y25470432D01*
X44031521Y25466187D02*
X44033112Y25468317D01*
X44029956Y25464027D02*
X44031521Y25466187D01*
X44028416Y25461867D02*
X44029956Y25464027D01*
X44026901Y25459677D02*
X44028416Y25461867D01*
X44025413Y25457457D02*
X44026901Y25459677D01*
X44023951Y25455237D02*
X44025413Y25457457D01*
X44022516Y25452987D02*
X44023951Y25455237D01*
X44021107Y25450722D02*
X44022516Y25452987D01*
X44019724Y25448442D02*
X44021107Y25450722D01*
X44018369Y25446132D02*
X44019724Y25448442D01*
X44017042Y25443822D02*
X44018369Y25446132D01*
X44015741Y25441482D02*
X44017042Y25443822D01*
X44014469Y25439127D02*
X44015741Y25441482D01*
X44013224Y25436757D02*
X44014469Y25439127D01*
X44012008Y25434372D02*
X44013224Y25436757D01*
X44010820Y25431957D02*
X44012008Y25434372D01*
X44009661Y25429542D02*
X44010820Y25431957D01*
X44008530Y25427097D02*
X44009661Y25429542D01*
X44007429Y25424652D02*
X44008530Y25427097D01*
X44006356Y25422177D02*
X44007429Y25424652D01*
X44005314Y25419687D02*
X44006356Y25422177D01*
X44004301Y25417197D02*
X44005314Y25419687D01*
X44003318Y25414677D02*
X44004301Y25417197D01*
X44002365Y25412142D02*
X44003318Y25414677D01*
X44001443Y25409607D02*
X44002365Y25412142D01*
X44000551Y25407042D02*
X44001443Y25409607D01*
X43999690Y25404462D02*
X44000551Y25407042D01*
X43998860Y25401882D02*
X43999690Y25404462D01*
X43998061Y25399272D02*
X43998860Y25401882D01*
X43997294Y25396662D02*
X43998061Y25399272D01*
X43996559Y25394037D02*
X43997294Y25396662D01*
X43995855Y25391397D02*
X43996559Y25394037D01*
X43995184Y25388742D02*
X43995855Y25391397D01*
X43994545Y25386072D02*
X43995184Y25388742D01*
X43993939Y25383387D02*
X43994545Y25386072D01*
X43993365Y25380702D02*
X43993939Y25383387D01*
X43992824Y25377987D02*
X43993365Y25380702D01*
X43992317Y25375272D02*
X43992824Y25377987D01*
X43991844Y25372542D02*
X43992317Y25375272D01*
X43991404Y25369812D02*
X43991844Y25372542D01*
X43990997Y25367067D02*
X43991404Y25369812D01*
X43990626Y25364292D02*
X43990997Y25367067D01*
X43990288Y25361532D02*
X43990626Y25364292D01*
X43989985Y25358742D02*
X43990288Y25361532D01*
X43989717Y25355952D02*
X43989985Y25358742D01*
X43989484Y25353147D02*
X43989717Y25355952D01*
X43989286Y25350342D02*
X43989484Y25353147D01*
X43989124Y25347522D02*
X43989286Y25350342D01*
X43988997Y25344687D02*
X43989124Y25347522D01*
X43988906Y25341837D02*
X43988997Y25344687D01*
X43988851Y25338987D02*
X43988906Y25341837D01*
X43988833Y25336137D02*
X43988851Y25338987D01*
X43988851Y25333272D02*
X43988833Y25336137D01*
X43988906Y25330422D02*
X43988851Y25333272D01*
X43988997Y25327587D02*
X43988906Y25330422D01*
X43989124Y25324752D02*
X43988997Y25327587D01*
X43989286Y25321932D02*
X43989124Y25324752D01*
X43989484Y25319127D02*
X43989286Y25321932D01*
X43989717Y25316322D02*
X43989484Y25319127D01*
X43989985Y25313532D02*
X43989717Y25316322D01*
X43990288Y25310742D02*
X43989985Y25313532D01*
X43990626Y25307967D02*
X43990288Y25310742D01*
X43990997Y25305207D02*
X43990626Y25307967D01*
X43991404Y25302462D02*
X43990997Y25305207D01*
X43991844Y25299717D02*
X43991404Y25302462D01*
X43992317Y25297002D02*
X43991844Y25299717D01*
X43992824Y25294287D02*
X43992317Y25297002D01*
X43993365Y25291572D02*
X43992824Y25294287D01*
X43993939Y25288887D02*
X43993365Y25291572D01*
X43994545Y25286202D02*
X43993939Y25288887D01*
X43995184Y25283532D02*
X43994545Y25286202D01*
X43995855Y25280877D02*
X43995184Y25283532D01*
X43996559Y25278237D02*
X43995855Y25280877D01*
X43997294Y25275612D02*
X43996559Y25278237D01*
X43998061Y25273002D02*
X43997294Y25275612D01*
X43998860Y25270392D02*
X43998061Y25273002D01*
X43999690Y25267812D02*
X43998860Y25270392D01*
X44000551Y25265232D02*
X43999690Y25267812D01*
X44001443Y25262667D02*
X44000551Y25265232D01*
X44002365Y25260132D02*
X44001443Y25262667D01*
X44003318Y25257597D02*
X44002365Y25260132D01*
X44004301Y25255077D02*
X44003318Y25257597D01*
X44005314Y25252587D02*
X44004301Y25255077D01*
X44006356Y25250097D02*
X44005314Y25252587D01*
X44007429Y25247622D02*
X44006356Y25250097D01*
X44008530Y25245177D02*
X44007429Y25247622D01*
X44009661Y25242732D02*
X44008530Y25245177D01*
X44010820Y25240317D02*
X44009661Y25242732D01*
X44012008Y25237902D02*
X44010820Y25240317D01*
X44013224Y25235517D02*
X44012008Y25237902D01*
X44014469Y25233147D02*
X44013224Y25235517D01*
X44015741Y25230792D02*
X44014469Y25233147D01*
X44017042Y25228452D02*
X44015741Y25230792D01*
X44018369Y25226142D02*
X44017042Y25228452D01*
X44019724Y25223832D02*
X44018369Y25226142D01*
X44021107Y25221552D02*
X44019724Y25223832D01*
X44022516Y25219287D02*
X44021107Y25221552D01*
X44023951Y25217037D02*
X44022516Y25219287D01*
X44025413Y25214817D02*
X44023951Y25217037D01*
X44026901Y25212597D02*
X44025413Y25214817D01*
X44028416Y25210407D02*
X44026901Y25212597D01*
X44029956Y25208247D02*
X44028416Y25210407D01*
X44031521Y25206087D02*
X44029956Y25208247D01*
X44033112Y25203957D02*
X44031521Y25206087D01*
X44034728Y25201842D02*
X44033112Y25203957D01*
X44036368Y25199757D02*
X44034728Y25201842D01*
X44038034Y25197687D02*
X44036368Y25199757D01*
X44039723Y25195632D02*
X44038034Y25197687D01*
X44041437Y25193607D02*
X44039723Y25195632D01*
X44043175Y25191597D02*
X44041437Y25193607D01*
X44044937Y25189602D02*
X44043175Y25191597D01*
X44046722Y25187637D02*
X44044937Y25189602D01*
X44048531Y25185702D02*
X44046722Y25187637D01*
X44050362Y25183782D02*
X44048531Y25185702D01*
X44052217Y25181877D02*
X44050362Y25183782D01*
X44054094Y25180002D02*
X44052217Y25181877D01*
X44055994Y25178142D02*
X44054094Y25180002D01*
X44057915Y25176312D02*
X44055994Y25178142D01*
X44059859Y25174512D02*
X44057915Y25176312D01*
X44061825Y25172727D02*
X44059859Y25174512D01*
X44063812Y25170957D02*
X44061825Y25172727D01*
X44065820Y25169217D02*
X44063812Y25170957D01*
X44067850Y25167507D02*
X44065820Y25169217D01*
X44069900Y25165812D02*
X44067850Y25167507D01*
X44071971Y25164147D02*
X44069900Y25165812D01*
X44074063Y25162512D02*
X44071971Y25164147D01*
X44076174Y25160892D02*
X44074063Y25162512D01*
X44078306Y25159302D02*
X44076174Y25160892D01*
X44080457Y25157742D02*
X44078306Y25159302D01*
X44082628Y25156197D02*
X44080457Y25157742D01*
X44084819Y25154682D02*
X44082628Y25156197D01*
X44087028Y25153197D02*
X44084819Y25154682D01*
X44089257Y25151727D02*
X44087028Y25153197D01*
X44091504Y25150302D02*
X44089257Y25151727D01*
X44093769Y25148892D02*
X44091504Y25150302D01*
X44096053Y25147512D02*
X44093769Y25148892D01*
X44098354Y25146147D02*
X44096053Y25147512D01*
X44100674Y25144827D02*
X44098354Y25146147D01*
X44103011Y25143522D02*
X44100674Y25144827D01*
X44105365Y25142247D02*
X44103011Y25143522D01*
X44107737Y25141002D02*
X44105365Y25142247D01*
X44110125Y25139787D02*
X44107737Y25141002D01*
X44112530Y25138602D02*
X44110125Y25139787D01*
X44114952Y25137447D02*
X44112530Y25138602D01*
X44117390Y25136307D02*
X44114952Y25137447D01*
X44119843Y25135212D02*
X44117390Y25136307D01*
X44122313Y25134132D02*
X44119843Y25135212D01*
X44124798Y25133097D02*
X44122313Y25134132D01*
X44127299Y25132077D02*
X44124798Y25133097D01*
X44129814Y25131102D02*
X44127299Y25132077D01*
X44132345Y25130142D02*
X44129814Y25131102D01*
X44134890Y25129227D02*
X44132345Y25130142D01*
X44137450Y25128327D02*
X44134890Y25129227D01*
X44140023Y25127472D02*
X44137450Y25128327D01*
X44142611Y25126647D02*
X44140023Y25127472D01*
X44145213Y25125837D02*
X44142611Y25126647D01*
X44147828Y25125072D02*
X44145213Y25125837D01*
X44150457Y25124337D02*
X44147828Y25125072D01*
X44153099Y25123632D02*
X44150457Y25124337D01*
X44155754Y25122972D02*
X44153099Y25123632D01*
X44158421Y25122327D02*
X44155754Y25122972D01*
X44161101Y25121727D02*
X44158421Y25122327D01*
X44163793Y25121142D02*
X44161101Y25121727D01*
X44166497Y25120602D02*
X44163793Y25121142D01*
X44169213Y25120107D02*
X44166497Y25120602D01*
X44171941Y25119627D02*
X44169213Y25120107D01*
X44174680Y25119192D02*
X44171941Y25119627D01*
X44177430Y25118787D02*
X44174680Y25119192D01*
X44180191Y25118412D02*
X44177430Y25118787D01*
X44182963Y25118067D02*
X44180191Y25118412D01*
X44185745Y25117767D02*
X44182963Y25118067D01*
X44188537Y25117497D02*
X44185745Y25117767D01*
X44191340Y25117272D02*
X44188537Y25117497D01*
X44194152Y25117062D02*
X44191340Y25117272D01*
X44196974Y25116912D02*
X44194152Y25117062D01*
X44199806Y25116777D02*
X44196974Y25116912D01*
X44202646Y25116687D02*
X44199806Y25116777D01*
X44205496Y25116627D02*
X44202646Y25116687D01*
X44208354Y25116612D02*
X44205496Y25116627D01*
X44211212Y25116627D02*
X44208354Y25116612D01*
X44214061Y25116687D02*
X44211212Y25116627D01*
X44216902Y25116777D02*
X44214061Y25116687D01*
X44219733Y25116912D02*
X44216902Y25116777D01*
X44222555Y25117062D02*
X44219733Y25116912D01*
X44225367Y25117272D02*
X44222555Y25117062D01*
X44228170Y25117497D02*
X44225367Y25117272D01*
X44230962Y25117767D02*
X44228170Y25117497D01*
X44233744Y25118067D02*
X44230962Y25117767D01*
X44236516Y25118412D02*
X44233744Y25118067D01*
X44239277Y25118787D02*
X44236516Y25118412D01*
X44242027Y25119192D02*
X44239277Y25118787D01*
X44244766Y25119627D02*
X44242027Y25119192D01*
X44247494Y25120107D02*
X44244766Y25119627D01*
X44250209Y25120602D02*
X44247494Y25120107D01*
X44252914Y25121142D02*
X44250209Y25120602D01*
X44255606Y25121727D02*
X44252914Y25121142D01*
X44258287Y25122327D02*
X44255606Y25121727D01*
X44260954Y25122972D02*
X44258287Y25122327D01*
X44263609Y25123632D02*
X44260954Y25122972D01*
X44266250Y25124337D02*
X44263609Y25123632D01*
X44268878Y25125072D02*
X44266250Y25124337D01*
X44271494Y25125837D02*
X44268878Y25125072D01*
X44274095Y25126647D02*
X44271494Y25125837D01*
X44276684Y25127472D02*
X44274095Y25126647D01*
X44279258Y25128327D02*
X44276684Y25127472D01*
X44281817Y25129227D02*
X44279258Y25128327D01*
X44284363Y25130142D02*
X44281817Y25129227D01*
X44286893Y25131102D02*
X44284363Y25130142D01*
X44289409Y25132077D02*
X44286893Y25131102D01*
X44291909Y25133097D02*
X44289409Y25132077D01*
X44294395Y25134132D02*
X44291909Y25133097D01*
X44296864Y25135212D02*
X44294395Y25134132D01*
X44299318Y25136307D02*
X44296864Y25135212D01*
X44301755Y25137447D02*
X44299318Y25136307D01*
X44304176Y25138602D02*
X44301755Y25137447D01*
X44306582Y25139787D02*
X44304176Y25138602D01*
X44308970Y25141002D02*
X44306582Y25139787D01*
X44311342Y25142247D02*
X44308970Y25141002D01*
X44313697Y25143522D02*
X44311342Y25142247D01*
X44316034Y25144827D02*
X44313697Y25143522D01*
X44318353Y25146147D02*
X44316034Y25144827D01*
X44320654Y25147512D02*
X44318353Y25146147D01*
X44322938Y25148892D02*
X44320654Y25147512D01*
X44325203Y25150302D02*
X44322938Y25148892D01*
X44327450Y25151727D02*
X44325203Y25150302D01*
X44329679Y25153197D02*
X44327450Y25151727D01*
X44331889Y25154682D02*
X44329679Y25153197D01*
X44334079Y25156197D02*
X44331889Y25154682D01*
X44336249Y25157742D02*
X44334079Y25156197D01*
X44338402Y25159302D02*
X44336249Y25157742D01*
X44340533Y25160892D02*
X44338402Y25159302D01*
X44342645Y25162512D02*
X44340533Y25160892D01*
X44344736Y25164147D02*
X44342645Y25162512D01*
X44346808Y25165812D02*
X44344736Y25164147D01*
X44348858Y25167507D02*
X44346808Y25165812D01*
X44350888Y25169217D02*
X44348858Y25167507D01*
X44352895Y25170957D02*
X44350888Y25169217D01*
X44354882Y25172727D02*
X44352895Y25170957D01*
X44356849Y25174512D02*
X44354882Y25172727D01*
X44358791Y25176312D02*
X44356849Y25174512D01*
X44360714Y25178142D02*
X44358791Y25176312D01*
X44362613Y25180002D02*
X44360714Y25178142D01*
X44364490Y25181877D02*
X44362613Y25180002D01*
X44366345Y25183782D02*
X44364490Y25181877D01*
X44368177Y25185702D02*
X44366345Y25183782D01*
X44369984Y25187637D02*
X44368177Y25185702D01*
X44371771Y25189602D02*
X44369984Y25187637D01*
X44373532Y25191597D02*
X44371771Y25189602D01*
X44375270Y25193607D02*
X44373532Y25191597D01*
X44376983Y25195632D02*
X44375270Y25193607D01*
X44378674Y25197687D02*
X44376983Y25195632D01*
X44380339Y25199757D02*
X44378674Y25197687D01*
X44381980Y25201842D02*
X44380339Y25199757D01*
X44383595Y25203957D02*
X44381980Y25201842D01*
X44385187Y25206087D02*
X44383595Y25203957D01*
X44386751Y25208247D02*
X44385187Y25206087D01*
X44388292Y25210407D02*
X44386751Y25208247D01*
X44389805Y25212597D02*
X44388292Y25210407D01*
X44391293Y25214817D02*
X44389805Y25212597D01*
X44392756Y25217037D02*
X44391293Y25214817D01*
X44394191Y25219287D02*
X44392756Y25217037D01*
X44395601Y25221552D02*
X44394191Y25219287D01*
X44396983Y25223832D02*
X44395601Y25221552D01*
X44398337Y25226142D02*
X44396983Y25223832D01*
X44399666Y25228452D02*
X44398337Y25226142D01*
X44400965Y25230792D02*
X44399666Y25228452D01*
X44402239Y25233147D02*
X44400965Y25230792D01*
X44403482Y25235517D02*
X44402239Y25233147D01*
X44404699Y25237902D02*
X44403482Y25235517D01*
X44405887Y25240317D02*
X44404699Y25237902D01*
X44407046Y25242732D02*
X44405887Y25240317D01*
X44408177Y25245177D02*
X44407046Y25242732D01*
X44409278Y25247622D02*
X44408177Y25245177D01*
X44410351Y25250097D02*
X44409278Y25247622D01*
X44411393Y25252587D02*
X44410351Y25250097D01*
X44412406Y25255077D02*
X44411393Y25252587D01*
X44413390Y25257597D02*
X44412406Y25255077D01*
X44414342Y25260132D02*
X44413390Y25257597D01*
X44415265Y25262667D02*
X44414342Y25260132D01*
X44416156Y25265232D02*
X44415265Y25262667D01*
X44417017Y25267812D02*
X44416156Y25265232D01*
X44417848Y25270392D02*
X44417017Y25267812D01*
X44418646Y25273002D02*
X44417848Y25270392D01*
X44419414Y25275612D02*
X44418646Y25273002D01*
X44420149Y25278237D02*
X44419414Y25275612D01*
X44420852Y25280877D02*
X44420149Y25278237D01*
X44421523Y25283532D02*
X44420852Y25280877D01*
X44422162Y25286202D02*
X44421523Y25283532D01*
X44422769Y25288887D02*
X44422162Y25286202D01*
X44423342Y25291572D02*
X44422769Y25288887D01*
X44423882Y25294287D02*
X44423342Y25291572D01*
X44424389Y25297002D02*
X44423882Y25294287D01*
X44424863Y25299717D02*
X44424389Y25297002D01*
X44425304Y25302462D02*
X44424863Y25299717D01*
X44425709Y25305207D02*
X44425304Y25302462D01*
X44426081Y25307967D02*
X44425709Y25305207D01*
X44426419Y25310742D02*
X44426081Y25307967D01*
X44426722Y25313532D02*
X44426419Y25310742D01*
X44426990Y25316322D02*
X44426722Y25313532D01*
X44427223Y25319127D02*
X44426990Y25316322D01*
X44427421Y25321932D02*
X44427223Y25319127D01*
X44427584Y25324752D02*
X44427421Y25321932D01*
X44427710Y25327587D02*
X44427584Y25324752D01*
X44427802Y25330422D02*
X44427710Y25327587D01*
X44427856Y25333272D02*
X44427802Y25330422D01*
X44427874Y25336137D02*
X44427856Y25333272D01*
X45128078Y22915218D02*
X45128101Y22911759D01*
X45128012Y22918666D02*
X45128078Y22915218D01*
X45127903Y22922103D02*
X45128012Y22918666D01*
X45127750Y22925529D02*
X45127903Y22922103D01*
X45127553Y22928944D02*
X45127750Y22925529D01*
X45127313Y22932348D02*
X45127553Y22928944D01*
X45127031Y22935739D02*
X45127313Y22932348D01*
X45126707Y22939119D02*
X45127031Y22935739D01*
X45126340Y22942485D02*
X45126707Y22939119D01*
X45125932Y22945839D02*
X45126340Y22942485D01*
X45125482Y22949181D02*
X45125932Y22945839D01*
X45124990Y22952508D02*
X45125482Y22949181D01*
X45124457Y22955823D02*
X45124990Y22952508D01*
X45123884Y22959123D02*
X45124457Y22955823D01*
X45123271Y22962411D02*
X45123884Y22959123D01*
X45122617Y22965682D02*
X45123271Y22962411D01*
X45121922Y22968940D02*
X45122617Y22965682D01*
X45121189Y22972183D02*
X45121922Y22968940D01*
X45120416Y22975411D02*
X45121189Y22972183D01*
X45119603Y22978624D02*
X45120416Y22975411D01*
X45118753Y22981821D02*
X45119603Y22978624D01*
X45117862Y22985002D02*
X45118753Y22981821D01*
X45116933Y22988167D02*
X45117862Y22985002D01*
X45115967Y22991316D02*
X45116933Y22988167D01*
X45114962Y22994446D02*
X45115967Y22991316D01*
X45113921Y22997562D02*
X45114962Y22994446D01*
X45112841Y23000659D02*
X45113921Y22997562D01*
X45111725Y23003739D02*
X45112841Y23000659D01*
X45110573Y23006802D02*
X45111725Y23003739D01*
X45109384Y23009845D02*
X45110573Y23006802D01*
X45108157Y23012872D02*
X45109384Y23009845D01*
X45106895Y23015878D02*
X45108157Y23012872D01*
X45105598Y23018868D02*
X45106895Y23015878D01*
X45104266Y23021836D02*
X45105598Y23018868D01*
X45102898Y23024787D02*
X45104266Y23021836D01*
X45101494Y23027718D02*
X45102898Y23024787D01*
X45100057Y23030628D02*
X45101494Y23027718D01*
X45098585Y23033518D02*
X45100057Y23030628D01*
X45097078Y23036388D02*
X45098585Y23033518D01*
X45095539Y23039236D02*
X45097078Y23036388D01*
X45093965Y23042065D02*
X45095539Y23039236D01*
X45092359Y23044872D02*
X45093965Y23042065D01*
X45090719Y23047657D02*
X45092359Y23044872D01*
X45089045Y23050420D02*
X45090719Y23047657D01*
X45087341Y23053162D02*
X45089045Y23050420D01*
X45085604Y23055882D02*
X45087341Y23053162D01*
X45083834Y23058577D02*
X45085604Y23055882D01*
X45082033Y23061252D02*
X45083834Y23058577D01*
X45080201Y23063902D02*
X45082033Y23061252D01*
X45078338Y23066529D02*
X45080201Y23063902D01*
X45076444Y23069133D02*
X45078338Y23066529D01*
X45074518Y23071713D02*
X45076444Y23069133D01*
X45072563Y23074267D02*
X45074518Y23071713D01*
X45070577Y23076799D02*
X45072563Y23074267D01*
X45068563Y23079306D02*
X45070577Y23076799D01*
X45066517Y23081787D02*
X45068563Y23079306D01*
X45064444Y23084242D02*
X45066517Y23081787D01*
X45062341Y23086672D02*
X45064444Y23084242D01*
X45060208Y23089077D02*
X45062341Y23086672D01*
X45058048Y23091456D02*
X45060208Y23089077D01*
X45055859Y23093808D02*
X45058048Y23091456D01*
X45053642Y23096134D02*
X45055859Y23093808D01*
X45051398Y23098432D02*
X45053642Y23096134D01*
X45049127Y23100703D02*
X45051398Y23098432D01*
X45046828Y23102949D02*
X45049127Y23100703D01*
X45044503Y23105164D02*
X45046828Y23102949D01*
X45042151Y23107353D02*
X45044503Y23105164D01*
X45039772Y23109514D02*
X45042151Y23107353D01*
X45037367Y23111646D02*
X45039772Y23109514D01*
X45034937Y23113749D02*
X45037367Y23111646D01*
X45032480Y23115823D02*
X45034937Y23113749D01*
X45029999Y23117868D02*
X45032480Y23115823D01*
X45027493Y23119882D02*
X45029999Y23117868D01*
X45024962Y23121868D02*
X45027493Y23119882D01*
X45022408Y23123824D02*
X45024962Y23121868D01*
X45019828Y23125749D02*
X45022408Y23123824D01*
X45017224Y23127643D02*
X45019828Y23125749D01*
X45014597Y23129506D02*
X45017224Y23127643D01*
X45011947Y23131339D02*
X45014597Y23129506D01*
X45009272Y23133139D02*
X45011947Y23131339D01*
X45006575Y23134909D02*
X45009272Y23133139D01*
X45003857Y23136646D02*
X45006575Y23134909D01*
X45001115Y23138352D02*
X45003857Y23136646D01*
X44998352Y23140024D02*
X45001115Y23138352D01*
X44995567Y23141664D02*
X44998352Y23140024D01*
X44992759Y23143270D02*
X44995567Y23141664D01*
X44989931Y23144844D02*
X44992759Y23143270D01*
X44987083Y23146384D02*
X44989931Y23144844D01*
X44984212Y23147890D02*
X44987083Y23146384D01*
X44981323Y23149362D02*
X44984212Y23147890D01*
X44978411Y23150800D02*
X44981323Y23149362D01*
X44975482Y23152203D02*
X44978411Y23150800D01*
X44972531Y23153571D02*
X44975482Y23152203D01*
X44969563Y23154903D02*
X44972531Y23153571D01*
X44966573Y23156200D02*
X44969563Y23154903D01*
X44963566Y23157463D02*
X44966573Y23156200D01*
X44960540Y23158689D02*
X44963566Y23157463D01*
X44957497Y23159878D02*
X44960540Y23158689D01*
X44954434Y23161032D02*
X44957497Y23159878D01*
X44951354Y23162148D02*
X44954434Y23161032D01*
X44948257Y23163226D02*
X44951354Y23162148D01*
X44945141Y23164269D02*
X44948257Y23163226D01*
X44942009Y23165272D02*
X44945141Y23164269D01*
X44938861Y23166240D02*
X44942009Y23165272D01*
X44935697Y23167167D02*
X44938861Y23166240D01*
X44932516Y23168058D02*
X44935697Y23167167D01*
X44929319Y23168908D02*
X44932516Y23168058D01*
X44926106Y23169721D02*
X44929319Y23168908D01*
X44922878Y23170494D02*
X44926106Y23169721D01*
X44919635Y23171229D02*
X44922878Y23170494D01*
X44916377Y23171922D02*
X44919635Y23171229D01*
X44913104Y23172576D02*
X44916377Y23171922D01*
X44909818Y23173191D02*
X44913104Y23172576D01*
X44906518Y23173764D02*
X44909818Y23173191D01*
X44903203Y23174296D02*
X44906518Y23173764D01*
X44899874Y23174787D02*
X44903203Y23174296D01*
X44896534Y23175237D02*
X44899874Y23174787D01*
X44893180Y23175646D02*
X44896534Y23175237D01*
X44889812Y23176012D02*
X44893180Y23175646D01*
X44886433Y23176336D02*
X44889812Y23176012D01*
X44883043Y23176618D02*
X44886433Y23176336D01*
X44879639Y23176858D02*
X44883043Y23176618D01*
X44876224Y23177055D02*
X44879639Y23176858D01*
X44872798Y23177208D02*
X44876224Y23177055D01*
X44869360Y23177319D02*
X44872798Y23177208D01*
X44865913Y23177385D02*
X44869360Y23177319D01*
X44862454Y23177406D02*
X44865913Y23177385D01*
X44858995Y23177385D02*
X44862454Y23177406D01*
X44855546Y23177319D02*
X44858995Y23177385D01*
X44852110Y23177208D02*
X44855546Y23177319D01*
X44848684Y23177055D02*
X44852110Y23177208D01*
X44845268Y23176858D02*
X44848684Y23177055D01*
X44841865Y23176618D02*
X44845268Y23176858D01*
X44838473Y23176336D02*
X44841865Y23176618D01*
X44835094Y23176012D02*
X44838473Y23176336D01*
X44831728Y23175646D02*
X44835094Y23176012D01*
X44828374Y23175237D02*
X44831728Y23175646D01*
X44825032Y23174787D02*
X44828374Y23175237D01*
X44821705Y23174296D02*
X44825032Y23174787D01*
X44818390Y23173764D02*
X44821705Y23174296D01*
X44815088Y23173191D02*
X44818390Y23173764D01*
X44811802Y23172576D02*
X44815088Y23173191D01*
X44808530Y23171922D02*
X44811802Y23172576D01*
X44805272Y23171229D02*
X44808530Y23171922D01*
X44802029Y23170494D02*
X44805272Y23171229D01*
X44798801Y23169721D02*
X44802029Y23170494D01*
X44795588Y23168908D02*
X44798801Y23169721D01*
X44792392Y23168058D02*
X44795588Y23168908D01*
X44789210Y23167167D02*
X44792392Y23168058D01*
X44786045Y23166240D02*
X44789210Y23167167D01*
X44782897Y23165272D02*
X44786045Y23166240D01*
X44779765Y23164269D02*
X44782897Y23165272D01*
X44776651Y23163226D02*
X44779765Y23164269D01*
X44773553Y23162148D02*
X44776651Y23163226D01*
X44770474Y23161032D02*
X44773553Y23162148D01*
X44767411Y23159878D02*
X44770474Y23161032D01*
X44764367Y23158689D02*
X44767411Y23159878D01*
X44761340Y23157463D02*
X44764367Y23158689D01*
X44758333Y23156200D02*
X44761340Y23157463D01*
X44755345Y23154903D02*
X44758333Y23156200D01*
X44752375Y23153571D02*
X44755345Y23154903D01*
X44749426Y23152203D02*
X44752375Y23153571D01*
X44746495Y23150800D02*
X44749426Y23152203D01*
X44743585Y23149362D02*
X44746495Y23150800D01*
X44740694Y23147890D02*
X44743585Y23149362D01*
X44737825Y23146384D02*
X44740694Y23147890D01*
X44734976Y23144844D02*
X44737825Y23146384D01*
X44732147Y23143270D02*
X44734976Y23144844D01*
X44729341Y23141664D02*
X44732147Y23143270D01*
X44726555Y23140024D02*
X44729341Y23141664D01*
X44723792Y23138352D02*
X44726555Y23140024D01*
X44721050Y23136646D02*
X44723792Y23138352D01*
X44718331Y23134909D02*
X44721050Y23136646D01*
X44715634Y23133139D02*
X44718331Y23134909D01*
X44712961Y23131339D02*
X44715634Y23133139D01*
X44710310Y23129506D02*
X44712961Y23131339D01*
X44707682Y23127643D02*
X44710310Y23129506D01*
X44705080Y23125749D02*
X44707682Y23127643D01*
X44702500Y23123824D02*
X44705080Y23125749D01*
X44699944Y23121868D02*
X44702500Y23123824D01*
X44697413Y23119882D02*
X44699944Y23121868D01*
X44694907Y23117868D02*
X44697413Y23119882D01*
X44692426Y23115823D02*
X44694907Y23117868D01*
X44689970Y23113749D02*
X44692426Y23115823D01*
X44687540Y23111646D02*
X44689970Y23113749D01*
X44685136Y23109514D02*
X44687540Y23111646D01*
X44682757Y23107353D02*
X44685136Y23109514D01*
X44680405Y23105164D02*
X44682757Y23107353D01*
X44678078Y23102949D02*
X44680405Y23105164D01*
X44675780Y23100703D02*
X44678078Y23102949D01*
X44673508Y23098432D02*
X44675780Y23100703D01*
X44671264Y23096134D02*
X44673508Y23098432D01*
X44669048Y23093808D02*
X44671264Y23096134D01*
X44666860Y23091456D02*
X44669048Y23093808D01*
X44664698Y23089077D02*
X44666860Y23091456D01*
X44662567Y23086672D02*
X44664698Y23089077D01*
X44660464Y23084242D02*
X44662567Y23086672D01*
X44658389Y23081787D02*
X44660464Y23084242D01*
X44656345Y23079306D02*
X44658389Y23081787D01*
X44654330Y23076799D02*
X44656345Y23079306D01*
X44652344Y23074267D02*
X44654330Y23076799D01*
X44650388Y23071713D02*
X44652344Y23074267D01*
X44648464Y23069133D02*
X44650388Y23071713D01*
X44646569Y23066529D02*
X44648464Y23069133D01*
X44644706Y23063902D02*
X44646569Y23066529D01*
X44642873Y23061252D02*
X44644706Y23063902D01*
X44641073Y23058577D02*
X44642873Y23061252D01*
X44639303Y23055882D02*
X44641073Y23058577D01*
X44637566Y23053162D02*
X44639303Y23055882D01*
X44635861Y23050420D02*
X44637566Y23053162D01*
X44634188Y23047657D02*
X44635861Y23050420D01*
X44632549Y23044872D02*
X44634188Y23047657D01*
X44630942Y23042065D02*
X44632549Y23044872D01*
X44629369Y23039236D02*
X44630942Y23042065D01*
X44627828Y23036388D02*
X44629369Y23039236D01*
X44626322Y23033518D02*
X44627828Y23036388D01*
X44624851Y23030628D02*
X44626322Y23033518D01*
X44623412Y23027718D02*
X44624851Y23030628D01*
X44622010Y23024787D02*
X44623412Y23027718D01*
X44620642Y23021836D02*
X44622010Y23024787D01*
X44619308Y23018868D02*
X44620642Y23021836D01*
X44618011Y23015878D02*
X44619308Y23018868D01*
X44616749Y23012872D02*
X44618011Y23015878D01*
X44615524Y23009845D02*
X44616749Y23012872D01*
X44614334Y23006802D02*
X44615524Y23009845D01*
X44613181Y23003739D02*
X44614334Y23006802D01*
X44612065Y23000659D02*
X44613181Y23003739D01*
X44610986Y22997562D02*
X44612065Y23000659D01*
X44609944Y22994446D02*
X44610986Y22997562D01*
X44608940Y22991316D02*
X44609944Y22994446D01*
X44607973Y22988167D02*
X44608940Y22991316D01*
X44607044Y22985002D02*
X44607973Y22988167D01*
X44606155Y22981821D02*
X44607044Y22985002D01*
X44605304Y22978624D02*
X44606155Y22981821D01*
X44604491Y22975411D02*
X44605304Y22978624D01*
X44603717Y22972183D02*
X44604491Y22975411D01*
X44602984Y22968940D02*
X44603717Y22972183D01*
X44602291Y22965682D02*
X44602984Y22968940D01*
X44601637Y22962411D02*
X44602291Y22965682D01*
X44601022Y22959123D02*
X44601637Y22962411D01*
X44600449Y22955823D02*
X44601022Y22959123D01*
X44599916Y22952508D02*
X44600449Y22955823D01*
X44599426Y22949181D02*
X44599916Y22952508D01*
X44598976Y22945839D02*
X44599426Y22949181D01*
X44598566Y22942485D02*
X44598976Y22945839D01*
X44598200Y22939119D02*
X44598566Y22942485D01*
X44597875Y22935739D02*
X44598200Y22939119D01*
X44597593Y22932348D02*
X44597875Y22935739D01*
X44597354Y22928944D02*
X44597593Y22932348D01*
X44597158Y22925529D02*
X44597354Y22928944D01*
X44597005Y22922103D02*
X44597158Y22925529D01*
X44596894Y22918666D02*
X44597005Y22922103D01*
X44596828Y22915218D02*
X44596894Y22918666D01*
X44596807Y22911759D02*
X44596828Y22915218D01*
X44596828Y22908300D02*
X44596807Y22911759D01*
X44596894Y22904853D02*
X44596828Y22908300D01*
X44597005Y22901415D02*
X44596894Y22904853D01*
X44597158Y22897989D02*
X44597005Y22901415D01*
X44597354Y22894573D02*
X44597158Y22897989D01*
X44597593Y22891170D02*
X44597354Y22894573D01*
X44597875Y22887778D02*
X44597593Y22891170D01*
X44598200Y22884400D02*
X44597875Y22887778D01*
X44598566Y22881033D02*
X44598200Y22884400D01*
X44598976Y22877679D02*
X44598566Y22881033D01*
X44599426Y22874337D02*
X44598976Y22877679D01*
X44599916Y22871010D02*
X44599426Y22874337D01*
X44600449Y22867695D02*
X44599916Y22871010D01*
X44601022Y22864395D02*
X44600449Y22867695D01*
X44601637Y22861107D02*
X44601022Y22864395D01*
X44602291Y22857835D02*
X44601637Y22861107D01*
X44602984Y22854577D02*
X44602291Y22857835D01*
X44603717Y22851334D02*
X44602984Y22854577D01*
X44604491Y22848106D02*
X44603717Y22851334D01*
X44605304Y22844894D02*
X44604491Y22848106D01*
X44606155Y22841697D02*
X44605304Y22844894D01*
X44607044Y22838516D02*
X44606155Y22841697D01*
X44607973Y22835351D02*
X44607044Y22838516D01*
X44608940Y22832203D02*
X44607973Y22835351D01*
X44609944Y22829071D02*
X44608940Y22832203D01*
X44610986Y22825956D02*
X44609944Y22829071D01*
X44612065Y22822858D02*
X44610986Y22825956D01*
X44613181Y22819778D02*
X44612065Y22822858D01*
X44614334Y22816716D02*
X44613181Y22819778D01*
X44615524Y22813672D02*
X44614334Y22816716D01*
X44616749Y22810646D02*
X44615524Y22813672D01*
X44618011Y22807639D02*
X44616749Y22810646D01*
X44619308Y22804650D02*
X44618011Y22807639D01*
X44620642Y22801681D02*
X44619308Y22804650D01*
X44622010Y22798731D02*
X44620642Y22801681D01*
X44623412Y22795801D02*
X44622010Y22798731D01*
X44624851Y22792890D02*
X44623412Y22795801D01*
X44626322Y22790000D02*
X44624851Y22792890D01*
X44627828Y22787130D02*
X44626322Y22790000D01*
X44629369Y22784281D02*
X44627828Y22787130D01*
X44630942Y22781453D02*
X44629369Y22784281D01*
X44632549Y22778646D02*
X44630942Y22781453D01*
X44634188Y22775861D02*
X44632549Y22778646D01*
X44635861Y22773097D02*
X44634188Y22775861D01*
X44637566Y22770356D02*
X44635861Y22773097D01*
X44639303Y22767637D02*
X44637566Y22770356D01*
X44641073Y22764940D02*
X44639303Y22767637D01*
X44642873Y22762266D02*
X44641073Y22764940D01*
X44644706Y22759616D02*
X44642873Y22762266D01*
X44646569Y22756988D02*
X44644706Y22759616D01*
X44648464Y22754385D02*
X44646569Y22756988D01*
X44650388Y22751805D02*
X44648464Y22754385D01*
X44652344Y22749250D02*
X44650388Y22751805D01*
X44654330Y22746719D02*
X44652344Y22749250D01*
X44656345Y22744213D02*
X44654330Y22746719D01*
X44658389Y22741731D02*
X44656345Y22744213D01*
X44660464Y22739275D02*
X44658389Y22741731D01*
X44662567Y22736845D02*
X44660464Y22739275D01*
X44664698Y22734440D02*
X44662567Y22736845D01*
X44666860Y22732062D02*
X44664698Y22734440D01*
X44669048Y22729710D02*
X44666860Y22732062D01*
X44671264Y22727384D02*
X44669048Y22729710D01*
X44673508Y22725085D02*
X44671264Y22727384D01*
X44675780Y22722814D02*
X44673508Y22725085D01*
X44678078Y22720570D02*
X44675780Y22722814D01*
X44680405Y22718353D02*
X44678078Y22720570D01*
X44682757Y22716165D02*
X44680405Y22718353D01*
X44685136Y22714004D02*
X44682757Y22716165D01*
X44687540Y22711872D02*
X44685136Y22714004D01*
X44689970Y22709769D02*
X44687540Y22711872D01*
X44692426Y22707695D02*
X44689970Y22709769D01*
X44694907Y22705650D02*
X44692426Y22707695D01*
X44697413Y22703635D02*
X44694907Y22705650D01*
X44699944Y22701650D02*
X44697413Y22703635D01*
X44702500Y22699694D02*
X44699944Y22701650D01*
X44705080Y22697769D02*
X44702500Y22699694D01*
X44707682Y22695875D02*
X44705080Y22697769D01*
X44710310Y22694011D02*
X44707682Y22695875D01*
X44712961Y22692179D02*
X44710310Y22694011D01*
X44715634Y22690378D02*
X44712961Y22692179D01*
X44718331Y22688609D02*
X44715634Y22690378D01*
X44721050Y22686871D02*
X44718331Y22688609D01*
X44723792Y22685166D02*
X44721050Y22686871D01*
X44726555Y22683494D02*
X44723792Y22685166D01*
X44729341Y22681854D02*
X44726555Y22683494D01*
X44732147Y22680247D02*
X44729341Y22681854D01*
X44734976Y22678674D02*
X44732147Y22680247D01*
X44737825Y22677134D02*
X44734976Y22678674D01*
X44740694Y22675628D02*
X44737825Y22677134D01*
X44743585Y22674156D02*
X44740694Y22675628D01*
X44746495Y22672718D02*
X44743585Y22674156D01*
X44749426Y22671315D02*
X44746495Y22672718D01*
X44752375Y22669947D02*
X44749426Y22671315D01*
X44755345Y22668614D02*
X44752375Y22669947D01*
X44758333Y22667317D02*
X44755345Y22668614D01*
X44761340Y22666055D02*
X44758333Y22667317D01*
X44764367Y22664829D02*
X44761340Y22666055D01*
X44767411Y22663640D02*
X44764367Y22664829D01*
X44770474Y22662487D02*
X44767411Y22663640D01*
X44773553Y22661370D02*
X44770474Y22662487D01*
X44776651Y22660291D02*
X44773553Y22661370D01*
X44779765Y22659249D02*
X44776651Y22660291D01*
X44782897Y22658245D02*
X44779765Y22659249D01*
X44786045Y22657279D02*
X44782897Y22658245D01*
X44789210Y22656350D02*
X44786045Y22657279D01*
X44792392Y22655460D02*
X44789210Y22656350D01*
X44795588Y22654609D02*
X44792392Y22655460D01*
X44798801Y22653797D02*
X44795588Y22654609D01*
X44802029Y22653023D02*
X44798801Y22653797D01*
X44805272Y22652290D02*
X44802029Y22653023D01*
X44808530Y22651595D02*
X44805272Y22652290D01*
X44811802Y22650941D02*
X44808530Y22651595D01*
X44815088Y22650328D02*
X44811802Y22650941D01*
X44818390Y22649754D02*
X44815088Y22650328D01*
X44821705Y22649222D02*
X44818390Y22649754D01*
X44825032Y22648730D02*
X44821705Y22649222D01*
X44828374Y22648280D02*
X44825032Y22648730D01*
X44831728Y22647872D02*
X44828374Y22648280D01*
X44835094Y22647505D02*
X44831728Y22647872D01*
X44838473Y22647181D02*
X44835094Y22647505D01*
X44841865Y22646899D02*
X44838473Y22647181D01*
X44845268Y22646659D02*
X44841865Y22646899D01*
X44848684Y22646463D02*
X44845268Y22646659D01*
X44852110Y22646309D02*
X44848684Y22646463D01*
X44855546Y22646200D02*
X44852110Y22646309D01*
X44858995Y22646134D02*
X44855546Y22646200D01*
X44862454Y22646111D02*
X44858995Y22646134D01*
X44865913Y22646134D02*
X44862454Y22646111D01*
X44869360Y22646200D02*
X44865913Y22646134D01*
X44872798Y22646309D02*
X44869360Y22646200D01*
X44876224Y22646463D02*
X44872798Y22646309D01*
X44879639Y22646659D02*
X44876224Y22646463D01*
X44883043Y22646899D02*
X44879639Y22646659D01*
X44886433Y22647181D02*
X44883043Y22646899D01*
X44889812Y22647505D02*
X44886433Y22647181D01*
X44893180Y22647872D02*
X44889812Y22647505D01*
X44896534Y22648280D02*
X44893180Y22647872D01*
X44899874Y22648730D02*
X44896534Y22648280D01*
X44903203Y22649222D02*
X44899874Y22648730D01*
X44906518Y22649754D02*
X44903203Y22649222D01*
X44909818Y22650328D02*
X44906518Y22649754D01*
X44913104Y22650941D02*
X44909818Y22650328D01*
X44916377Y22651595D02*
X44913104Y22650941D01*
X44919635Y22652290D02*
X44916377Y22651595D01*
X44922878Y22653023D02*
X44919635Y22652290D01*
X44926106Y22653797D02*
X44922878Y22653023D01*
X44929319Y22654609D02*
X44926106Y22653797D01*
X44932516Y22655460D02*
X44929319Y22654609D01*
X44935697Y22656350D02*
X44932516Y22655460D01*
X44938861Y22657279D02*
X44935697Y22656350D01*
X44942009Y22658245D02*
X44938861Y22657279D01*
X44945141Y22659249D02*
X44942009Y22658245D01*
X44948257Y22660291D02*
X44945141Y22659249D01*
X44951354Y22661370D02*
X44948257Y22660291D01*
X44954434Y22662487D02*
X44951354Y22661370D01*
X44957497Y22663640D02*
X44954434Y22662487D01*
X44960540Y22664829D02*
X44957497Y22663640D01*
X44963566Y22666055D02*
X44960540Y22664829D01*
X44966573Y22667317D02*
X44963566Y22666055D01*
X44969563Y22668614D02*
X44966573Y22667317D01*
X44972531Y22669947D02*
X44969563Y22668614D01*
X44975482Y22671315D02*
X44972531Y22669947D01*
X44978411Y22672718D02*
X44975482Y22671315D01*
X44981323Y22674156D02*
X44978411Y22672718D01*
X44984212Y22675628D02*
X44981323Y22674156D01*
X44987083Y22677134D02*
X44984212Y22675628D01*
X44989931Y22678674D02*
X44987083Y22677134D01*
X44992759Y22680247D02*
X44989931Y22678674D01*
X44995567Y22681854D02*
X44992759Y22680247D01*
X44998352Y22683494D02*
X44995567Y22681854D01*
X45001115Y22685166D02*
X44998352Y22683494D01*
X45003857Y22686871D02*
X45001115Y22685166D01*
X45006575Y22688609D02*
X45003857Y22686871D01*
X45009272Y22690378D02*
X45006575Y22688609D01*
X45011947Y22692179D02*
X45009272Y22690378D01*
X45014597Y22694011D02*
X45011947Y22692179D01*
X45017224Y22695875D02*
X45014597Y22694011D01*
X45019828Y22697769D02*
X45017224Y22695875D01*
X45022408Y22699694D02*
X45019828Y22697769D01*
X45024962Y22701650D02*
X45022408Y22699694D01*
X45027493Y22703635D02*
X45024962Y22701650D01*
X45029999Y22705650D02*
X45027493Y22703635D01*
X45032480Y22707695D02*
X45029999Y22705650D01*
X45034937Y22709769D02*
X45032480Y22707695D01*
X45037367Y22711872D02*
X45034937Y22709769D01*
X45039772Y22714004D02*
X45037367Y22711872D01*
X45042151Y22716165D02*
X45039772Y22714004D01*
X45044503Y22718353D02*
X45042151Y22716165D01*
X45046828Y22720570D02*
X45044503Y22718353D01*
X45049127Y22722814D02*
X45046828Y22720570D01*
X45051398Y22725085D02*
X45049127Y22722814D01*
X45053642Y22727384D02*
X45051398Y22725085D01*
X45055859Y22729710D02*
X45053642Y22727384D01*
X45058048Y22732062D02*
X45055859Y22729710D01*
X45060208Y22734440D02*
X45058048Y22732062D01*
X45062341Y22736845D02*
X45060208Y22734440D01*
X45064444Y22739275D02*
X45062341Y22736845D01*
X45066517Y22741731D02*
X45064444Y22739275D01*
X45068563Y22744213D02*
X45066517Y22741731D01*
X45070577Y22746719D02*
X45068563Y22744213D01*
X45072563Y22749250D02*
X45070577Y22746719D01*
X45074518Y22751805D02*
X45072563Y22749250D01*
X45076444Y22754385D02*
X45074518Y22751805D01*
X45078338Y22756988D02*
X45076444Y22754385D01*
X45080201Y22759616D02*
X45078338Y22756988D01*
X45082033Y22762266D02*
X45080201Y22759616D01*
X45083834Y22764940D02*
X45082033Y22762266D01*
X45085604Y22767637D02*
X45083834Y22764940D01*
X45087341Y22770356D02*
X45085604Y22767637D01*
X45089045Y22773097D02*
X45087341Y22770356D01*
X45090719Y22775861D02*
X45089045Y22773097D01*
X45092359Y22778646D02*
X45090719Y22775861D01*
X45093965Y22781453D02*
X45092359Y22778646D01*
X45095539Y22784281D02*
X45093965Y22781453D01*
X45097078Y22787130D02*
X45095539Y22784281D01*
X45098585Y22790000D02*
X45097078Y22787130D01*
X45100057Y22792890D02*
X45098585Y22790000D01*
X45101494Y22795801D02*
X45100057Y22792890D01*
X45102898Y22798731D02*
X45101494Y22795801D01*
X45104266Y22801681D02*
X45102898Y22798731D01*
X45105598Y22804650D02*
X45104266Y22801681D01*
X45106895Y22807639D02*
X45105598Y22804650D01*
X45108157Y22810646D02*
X45106895Y22807639D01*
X45109384Y22813672D02*
X45108157Y22810646D01*
X45110573Y22816716D02*
X45109384Y22813672D01*
X45111725Y22819778D02*
X45110573Y22816716D01*
X45112841Y22822858D02*
X45111725Y22819778D01*
X45113921Y22825956D02*
X45112841Y22822858D01*
X45114962Y22829071D02*
X45113921Y22825956D01*
X45115967Y22832203D02*
X45114962Y22829071D01*
X45116933Y22835351D02*
X45115967Y22832203D01*
X45117862Y22838516D02*
X45116933Y22835351D01*
X45118753Y22841697D02*
X45117862Y22838516D01*
X45119603Y22844894D02*
X45118753Y22841697D01*
X45120416Y22848106D02*
X45119603Y22844894D01*
X45121189Y22851334D02*
X45120416Y22848106D01*
X45121922Y22854577D02*
X45121189Y22851334D01*
X45122617Y22857835D02*
X45121922Y22854577D01*
X45123271Y22861107D02*
X45122617Y22857835D01*
X45123884Y22864395D02*
X45123271Y22861107D01*
X45124457Y22867695D02*
X45123884Y22864395D01*
X45124990Y22871010D02*
X45124457Y22867695D01*
X45125482Y22874337D02*
X45124990Y22871010D01*
X45125932Y22877679D02*
X45125482Y22874337D01*
X45126340Y22881033D02*
X45125932Y22877679D01*
X45126707Y22884400D02*
X45126340Y22881033D01*
X45127031Y22887778D02*
X45126707Y22884400D01*
X45127313Y22891170D02*
X45127031Y22887778D01*
X45127553Y22894573D02*
X45127313Y22891170D01*
X45127750Y22897989D02*
X45127553Y22894573D01*
X45127903Y22901415D02*
X45127750Y22897989D01*
X45128012Y22904853D02*
X45127903Y22901415D01*
X45128078Y22908300D02*
X45128012Y22904853D01*
X45128101Y22911759D02*
X45128078Y22908300D01*
D13*
X22225000Y36195000D02*
X22225000Y46355000D01*
X32385000Y36195000D02*
X22225000Y36195000D01*
X32385000Y46355000D02*
X32385000Y36195000D01*
X22225000Y46355000D02*
X32385000Y46355000D01*
D14*
X30769286Y44982143D02*
X30269286Y44982143D01*
X30055000Y44196429D02*
X30769286Y44196429D01*
X30769286Y45696429D01*
X30055000Y45696429D01*
X29412143Y44196429D02*
X29412143Y45696429D01*
X28555000Y44196429D01*
X28555000Y45696429D01*
X27412143Y45696429D02*
X27412143Y44625000D01*
X27483571Y44410714D01*
X27626428Y44267857D01*
X27840714Y44196429D01*
X27983571Y44196429D01*
X26412143Y45696429D02*
X26126429Y45696429D01*
X25983571Y45625000D01*
X25840714Y45482143D01*
X25769286Y45196429D01*
X25769286Y44696429D01*
X25840714Y44410714D01*
X25983571Y44267857D01*
X26126429Y44196429D01*
X26412143Y44196429D01*
X26555000Y44267857D01*
X26697857Y44410714D01*
X26769286Y44696429D01*
X26769286Y45196429D01*
X26697857Y45482143D01*
X26555000Y45625000D01*
X26412143Y45696429D01*
X24840714Y44910714D02*
X24840714Y44196429D01*
X25340714Y45696429D02*
X24840714Y44910714D01*
X24340714Y45696429D01*
X23840714Y44339286D02*
X23769286Y44267857D01*
X23840714Y44196429D01*
X23912143Y44267857D01*
X23840714Y44339286D01*
X23840714Y44196429D01*
X23840714Y44767857D02*
X23912143Y45625000D01*
X23840714Y45696429D01*
X23769286Y45625000D01*
X23840714Y44767857D01*
X23840714Y45696429D01*
X28269286Y43296429D02*
X28269286Y42225000D01*
X28340714Y42010714D01*
X28483571Y41867857D01*
X28697857Y41796429D01*
X28840714Y41796429D01*
X26840714Y41796429D02*
X27555000Y41796429D01*
X27555000Y43296429D01*
X25912143Y43296429D02*
X25912143Y42225000D01*
X25983571Y42010714D01*
X26126428Y41867857D01*
X26340714Y41796429D01*
X26483571Y41796429D01*
X28376428Y40825000D02*
X28519285Y40896429D01*
X28733571Y40896429D01*
X28947856Y40825000D01*
X29090714Y40682143D01*
X29162142Y40539286D01*
X29233571Y40253571D01*
X29233571Y40039286D01*
X29162142Y39753571D01*
X29090714Y39610714D01*
X28947856Y39467857D01*
X28733571Y39396429D01*
X28590714Y39396429D01*
X28376428Y39467857D01*
X28304999Y39539286D01*
X28304999Y40039286D01*
X28590714Y40039286D01*
X27804999Y40896429D02*
X26804999Y40896429D01*
X27804999Y39396429D01*
X26804999Y39396429D01*
X26233571Y39396429D02*
X26233571Y40896429D01*
X25662143Y40896429D01*
X25519285Y40825000D01*
X25447857Y40753571D01*
X25376428Y40610714D01*
X25376428Y40396429D01*
X25447857Y40253571D01*
X25519285Y40182143D01*
X25662143Y40110714D01*
X26233571Y40110714D01*
X27662143Y38425000D02*
X27805000Y38496429D01*
X28019286Y38496429D01*
X28233571Y38425000D01*
X28376429Y38282143D01*
X28447857Y38139286D01*
X28519286Y37853571D01*
X28519286Y37639286D01*
X28447857Y37353571D01*
X28376429Y37210714D01*
X28233571Y37067857D01*
X28019286Y36996429D01*
X27876429Y36996429D01*
X27662143Y37067857D01*
X27590714Y37139286D01*
X27590714Y37639286D01*
X27876429Y37639286D01*
X26090714Y37139286D02*
X26162143Y37067857D01*
X26376429Y36996429D01*
X26519286Y36996429D01*
X26733571Y37067857D01*
X26876429Y37210714D01*
X26947857Y37353571D01*
X27019286Y37639286D01*
X27019286Y37853571D01*
X26947857Y38139286D01*
X26876429Y38282143D01*
X26733571Y38425000D01*
X26519286Y38496429D01*
X26376429Y38496429D01*
X26162143Y38425000D01*
X26090714Y38353571D01*
D11*
X39338095Y35599619D02*
X38719047Y35599619D01*
X39052381Y35218667D01*
X38909523Y35218667D01*
X38814285Y35171048D01*
X38766666Y35123429D01*
X38719047Y35028190D01*
X38719047Y34790095D01*
X38766666Y34694857D01*
X38814285Y34647238D01*
X38909523Y34599619D01*
X39195238Y34599619D01*
X39290476Y34647238D01*
X39338095Y34694857D01*
X38433333Y35599619D02*
X38100000Y34599619D01*
X37766666Y35599619D01*
X37528571Y35599619D02*
X36909523Y35599619D01*
X37242857Y35218667D01*
X37099999Y35218667D01*
X37004761Y35171048D01*
X36957142Y35123429D01*
X36909523Y35028190D01*
X36909523Y34790095D01*
X36957142Y34694857D01*
X37004761Y34647238D01*
X37099999Y34599619D01*
X37385714Y34599619D01*
X37480952Y34647238D01*
X37528571Y34694857D01*
X43941904Y14724000D02*
X44037142Y14771619D01*
X44179999Y14771619D01*
X44322857Y14724000D01*
X44418095Y14628762D01*
X44465714Y14533524D01*
X44513333Y14343048D01*
X44513333Y14200190D01*
X44465714Y14009714D01*
X44418095Y13914476D01*
X44322857Y13819238D01*
X44179999Y13771619D01*
X44084761Y13771619D01*
X43941904Y13819238D01*
X43894285Y13866857D01*
X43894285Y14200190D01*
X44084761Y14200190D01*
X43465714Y13771619D02*
X43465714Y14771619D01*
X42894285Y13771619D01*
X42894285Y14771619D01*
X42418095Y13771619D02*
X42418095Y14771619D01*
X42180000Y14771619D01*
X42037142Y14724000D01*
X41941904Y14628762D01*
X41894285Y14533524D01*
X41846666Y14343048D01*
X41846666Y14200190D01*
X41894285Y14009714D01*
X41941904Y13914476D01*
X42037142Y13819238D01*
X42180000Y13771619D01*
X42418095Y13771619D01*
D13*
X22225000Y15875000D02*
X19685000Y15875000D01*
D11*
X18335476Y37060238D02*
X18192619Y37012619D01*
X17954523Y37012619D01*
X17859285Y37060238D01*
X17811666Y37107857D01*
X17764047Y37203095D01*
X17764047Y37298333D01*
X17811666Y37393571D01*
X17859285Y37441190D01*
X17954523Y37488810D01*
X18145000Y37536429D01*
X18240238Y37584048D01*
X18287857Y37631667D01*
X18335476Y37726905D01*
X18335476Y37822143D01*
X18287857Y37917381D01*
X18240238Y37965000D01*
X18145000Y38012619D01*
X17906904Y38012619D01*
X17764047Y37965000D01*
X16764047Y37107857D02*
X16811666Y37060238D01*
X16954523Y37012619D01*
X17049761Y37012619D01*
X17192619Y37060238D01*
X17287857Y37155476D01*
X17335476Y37250714D01*
X17383095Y37441190D01*
X17383095Y37584048D01*
X17335476Y37774524D01*
X17287857Y37869762D01*
X17192619Y37965000D01*
X17049761Y38012619D01*
X16954523Y38012619D01*
X16811666Y37965000D01*
X16764047Y37917381D01*
X15859285Y37012619D02*
X16335476Y37012619D01*
X16335476Y38012619D01*
X18359286Y39600238D02*
X18216429Y39552619D01*
X17978333Y39552619D01*
X17883095Y39600238D01*
X17835476Y39647857D01*
X17787857Y39743095D01*
X17787857Y39838333D01*
X17835476Y39933571D01*
X17883095Y39981190D01*
X17978333Y40028810D01*
X18168810Y40076429D01*
X18264048Y40124048D01*
X18311667Y40171667D01*
X18359286Y40266905D01*
X18359286Y40362143D01*
X18311667Y40457381D01*
X18264048Y40505000D01*
X18168810Y40552619D01*
X17930714Y40552619D01*
X17787857Y40505000D01*
X17359286Y39552619D02*
X17359286Y40552619D01*
X17121191Y40552619D01*
X16978333Y40505000D01*
X16883095Y40409762D01*
X16835476Y40314524D01*
X16787857Y40124048D01*
X16787857Y39981190D01*
X16835476Y39790714D01*
X16883095Y39695476D01*
X16978333Y39600238D01*
X17121191Y39552619D01*
X17359286Y39552619D01*
X16406905Y39838333D02*
X15930714Y39838333D01*
X16502143Y39552619D02*
X16168810Y40552619D01*
X15835476Y39552619D01*
X18383095Y43092619D02*
X17764047Y43092619D01*
X18097381Y42711667D01*
X17954523Y42711667D01*
X17859285Y42664048D01*
X17811666Y42616429D01*
X17764047Y42521190D01*
X17764047Y42283095D01*
X17811666Y42187857D01*
X17859285Y42140238D01*
X17954523Y42092619D01*
X18240238Y42092619D01*
X18335476Y42140238D01*
X18383095Y42187857D01*
X17478333Y43092619D02*
X17145000Y42092619D01*
X16811666Y43092619D01*
X16573571Y43092619D02*
X15954523Y43092619D01*
X16287857Y42711667D01*
X16144999Y42711667D01*
X16049761Y42664048D01*
X16002142Y42616429D01*
X15954523Y42521190D01*
X15954523Y42283095D01*
X16002142Y42187857D01*
X16049761Y42140238D01*
X16144999Y42092619D01*
X16430714Y42092619D01*
X16525952Y42140238D01*
X16573571Y42187857D01*
X17906904Y45585000D02*
X18002142Y45632619D01*
X18144999Y45632619D01*
X18287857Y45585000D01*
X18383095Y45489762D01*
X18430714Y45394524D01*
X18478333Y45204048D01*
X18478333Y45061190D01*
X18430714Y44870714D01*
X18383095Y44775476D01*
X18287857Y44680238D01*
X18144999Y44632619D01*
X18049761Y44632619D01*
X17906904Y44680238D01*
X17859285Y44727857D01*
X17859285Y45061190D01*
X18049761Y45061190D01*
X17430714Y44632619D02*
X17430714Y45632619D01*
X16859285Y44632619D01*
X16859285Y45632619D01*
X16383095Y44632619D02*
X16383095Y45632619D01*
X16145000Y45632619D01*
X16002142Y45585000D01*
X15906904Y45489762D01*
X15859285Y45394524D01*
X15811666Y45204048D01*
X15811666Y45061190D01*
X15859285Y44870714D01*
X15906904Y44775476D01*
X16002142Y44680238D01*
X16145000Y44632619D01*
X16383095Y44632619D01*
D14*
X35785000Y29595000D02*
X35070714Y29595000D01*
X35927857Y29166429D02*
X35427857Y30666429D01*
X34927857Y29166429D01*
X34427857Y29166429D02*
X34427857Y30666429D01*
X34070714Y30666429D01*
X33856429Y30595000D01*
X33713571Y30452143D01*
X33642143Y30309286D01*
X33570714Y30023571D01*
X33570714Y29809286D01*
X33642143Y29523571D01*
X33713571Y29380714D01*
X33856429Y29237857D01*
X34070714Y29166429D01*
X34427857Y29166429D01*
X32070714Y29309286D02*
X32142143Y29237857D01*
X32356429Y29166429D01*
X32499286Y29166429D01*
X32713571Y29237857D01*
X32856429Y29380714D01*
X32927857Y29523571D01*
X32999286Y29809286D01*
X32999286Y30023571D01*
X32927857Y30309286D01*
X32856429Y30452143D01*
X32713571Y30595000D01*
X32499286Y30666429D01*
X32356429Y30666429D01*
X32142143Y30595000D01*
X32070714Y30523571D01*
X30356429Y29595000D02*
X29642143Y29595000D01*
X30499286Y29166429D02*
X29999286Y30666429D01*
X29499286Y29166429D01*
X28999286Y29166429D02*
X28999286Y30666429D01*
X28499286Y29595000D01*
X27999286Y30666429D01*
X27999286Y29166429D01*
X27356429Y29595000D02*
X26642143Y29595000D01*
X27499286Y29166429D02*
X26999286Y30666429D01*
X26499286Y29166429D01*
X25142143Y29166429D02*
X25642143Y29880714D01*
X25999286Y29166429D02*
X25999286Y30666429D01*
X25427858Y30666429D01*
X25285000Y30595000D01*
X25213572Y30523571D01*
X25142143Y30380714D01*
X25142143Y30166429D01*
X25213572Y30023571D01*
X25285000Y29952143D01*
X25427858Y29880714D01*
X25999286Y29880714D01*
X24570715Y29595000D02*
X23856429Y29595000D01*
X24713572Y29166429D02*
X24213572Y30666429D01*
X23713572Y29166429D01*
X23213572Y29166429D02*
X23213572Y30666429D01*
X22356429Y29166429D01*
X22356429Y30666429D01*
X21856429Y30666429D02*
X20999286Y30666429D01*
X21427857Y29166429D02*
X21427857Y30666429D01*
X20499286Y29166429D02*
X20499286Y30666429D01*
X20499286Y29952143D02*
X19642143Y29952143D01*
X19642143Y29166429D02*
X19642143Y30666429D01*
X17785000Y29166429D02*
X17785000Y30166429D01*
X17785000Y30666429D02*
X17856429Y30595000D01*
X17785000Y30523571D01*
X17713572Y30595000D01*
X17785000Y30666429D01*
X17785000Y30523571D01*
X17142143Y30523571D02*
X17070714Y30595000D01*
X16927857Y30666429D01*
X16570714Y30666429D01*
X16427857Y30595000D01*
X16356428Y30523571D01*
X16285000Y30380714D01*
X16285000Y30237857D01*
X16356428Y30023571D01*
X17213571Y29166429D01*
X16285000Y29166429D01*
D11*
X41910000Y18415000D02*
X8890000Y18415000D01*
X8890000Y18415000D02*
X8890000Y15875000D01*
X8890000Y15875000D02*
X41910000Y15875000D01*
X44730000Y15595000D02*
X43180000Y15595000D01*
X41910000Y15875000D02*
X41910000Y18415000D01*
X43180000Y18695000D02*
X44730000Y18695000D01*
X44730000Y18695000D02*
X44730000Y15595000D01*
X11430000Y31115000D02*
X44450000Y31115000D01*
X44450000Y31115000D02*
X44450000Y33655000D01*
X44450000Y33655000D02*
X11430000Y33655000D01*
X8610000Y33935000D02*
X10160000Y33935000D01*
X11430000Y33655000D02*
X11430000Y31115000D01*
X10160000Y30835000D02*
X8610000Y30835000D01*
X8610000Y30835000D02*
X8610000Y33935000D01*
X15180000Y36195000D02*
X6350000Y36195000D01*
X15180000Y38735000D02*
X15180000Y36195000D01*
X6350000Y38735000D02*
X6350000Y36195000D01*
X6350000Y41275000D02*
X6350000Y38735000D01*
X15180000Y41275000D02*
X15180000Y38735000D01*
X15180000Y38735000D02*
X6350000Y38735000D01*
X15180000Y41275000D02*
X6350000Y41275000D01*
X15180000Y43815000D02*
X15180000Y41275000D01*
X6350000Y43815000D02*
X15180000Y43815000D01*
X6350000Y43815000D02*
X6350000Y41275000D01*
X6350000Y46355000D02*
X6350000Y43815000D01*
X3680000Y45085000D02*
X3680000Y46635000D01*
X3680000Y46635000D02*
X5080000Y46635000D01*
X6350000Y46355000D02*
X15180000Y46355000D01*
X15180000Y46355000D02*
X15180000Y43815000D01*
X15180000Y43815000D02*
X6350000Y43815000D01*
X43620000Y23765000D02*
X43620000Y25765000D01*
X41470000Y25765000D02*
X41470000Y23765000D01*
X14970000Y13775000D02*
X12970000Y13775000D01*
X12970000Y11625000D02*
X14970000Y11625000D01*
X7366000Y24765000D02*
G75*
G03X7366000Y24765000I-2286000J0D01*
G01*
X45807381Y19883095D02*
X45807381Y19311666D01*
X46807381Y19597381D02*
X45807381Y19597381D01*
X46759762Y19025952D02*
X46807381Y18883095D01*
X46807381Y18644999D01*
X46759762Y18549761D01*
X46712143Y18502142D01*
X46616905Y18454523D01*
X46521667Y18454523D01*
X46426429Y18502142D01*
X46378810Y18549761D01*
X46331190Y18644999D01*
X46283571Y18835476D01*
X46235952Y18930714D01*
X46188333Y18978333D01*
X46093095Y19025952D01*
X45997857Y19025952D01*
X45902619Y18978333D01*
X45855000Y18930714D01*
X45807381Y18835476D01*
X45807381Y18597380D01*
X45855000Y18454523D01*
X45807381Y17835476D02*
X45807381Y17644999D01*
X45855000Y17549761D01*
X45950238Y17454523D01*
X46140714Y17406904D01*
X46474048Y17406904D01*
X46664524Y17454523D01*
X46759762Y17549761D01*
X46807381Y17644999D01*
X46807381Y17835476D01*
X46759762Y17930714D01*
X46664524Y18025952D01*
X46474048Y18073571D01*
X46140714Y18073571D01*
X45950238Y18025952D01*
X45855000Y17930714D01*
X45807381Y17835476D01*
X46807381Y16978333D02*
X45807381Y16978333D01*
X46807381Y16406904D01*
X45807381Y16406904D01*
X46283571Y15930714D02*
X46283571Y15597380D01*
X46807381Y15454523D02*
X46807381Y15930714D01*
X45807381Y15930714D01*
X45807381Y15454523D01*
X46807381Y14502142D02*
X46807381Y15073571D01*
X46807381Y14787857D02*
X45807381Y14787857D01*
X45950238Y14883095D01*
X46045476Y14978333D01*
X46093095Y15073571D01*
X6564381Y35289714D02*
X6564381Y34718285D01*
X7564381Y35004000D02*
X6564381Y35004000D01*
X7516762Y34432571D02*
X7564381Y34289714D01*
X7564381Y34051618D01*
X7516762Y33956380D01*
X7469143Y33908761D01*
X7373905Y33861142D01*
X7278667Y33861142D01*
X7183429Y33908761D01*
X7135810Y33956380D01*
X7088190Y34051618D01*
X7040571Y34242095D01*
X6992952Y34337333D01*
X6945333Y34384952D01*
X6850095Y34432571D01*
X6754857Y34432571D01*
X6659619Y34384952D01*
X6612000Y34337333D01*
X6564381Y34242095D01*
X6564381Y34003999D01*
X6612000Y33861142D01*
X6564381Y33527809D02*
X7564381Y33289714D01*
X6850095Y33099237D01*
X7564381Y32908761D01*
X6564381Y32670666D01*
X6564381Y32432571D02*
X6564381Y31861142D01*
X7564381Y32146857D02*
X6564381Y32146857D01*
X6564381Y31623047D02*
X7564381Y31384952D01*
X6850095Y31194475D01*
X7564381Y31003999D01*
X6564381Y30765904D01*
X6564381Y30194476D02*
X6564381Y30003999D01*
X6612000Y29908761D01*
X6707238Y29813523D01*
X6897714Y29765904D01*
X7231048Y29765904D01*
X7421524Y29813523D01*
X7516762Y29908761D01*
X7564381Y30003999D01*
X7564381Y30194476D01*
X7516762Y30289714D01*
X7421524Y30384952D01*
X7231048Y30432571D01*
X6897714Y30432571D01*
X6707238Y30384952D01*
X6612000Y30289714D01*
X6564381Y30194476D01*
X7564381Y28813523D02*
X7564381Y29384952D01*
X7564381Y29099238D02*
X6564381Y29099238D01*
X6707238Y29194476D01*
X6802476Y29289714D01*
X6850095Y29384952D01*
X13699762Y47172619D02*
X13699762Y48172619D01*
X13461667Y48172619D01*
X13318809Y48125000D01*
X13223571Y48029762D01*
X13175952Y47934524D01*
X13128333Y47744048D01*
X13128333Y47601190D01*
X13175952Y47410714D01*
X13223571Y47315476D01*
X13318809Y47220238D01*
X13461667Y47172619D01*
X13699762Y47172619D01*
X12699762Y47696429D02*
X12366428Y47696429D01*
X12223571Y47172619D02*
X12699762Y47172619D01*
X12699762Y48172619D01*
X12223571Y48172619D01*
X11318809Y47172619D02*
X11795000Y47172619D01*
X11795000Y48172619D01*
X11128333Y48172619D02*
X10556904Y48172619D01*
X10842619Y47172619D02*
X10842619Y48172619D01*
X10271190Y47458333D02*
X9794999Y47458333D01*
X10366428Y47172619D02*
X10033095Y48172619D01*
X9699761Y47172619D01*
X9366428Y47172619D02*
X9366428Y48172619D01*
X8985475Y48172619D01*
X8890237Y48125000D01*
X8842618Y48077381D01*
X8794999Y47982143D01*
X8794999Y47839286D01*
X8842618Y47744048D01*
X8890237Y47696429D01*
X8985475Y47648810D01*
X9366428Y47648810D01*
X7842618Y47172619D02*
X8414047Y47172619D01*
X8128333Y47172619D02*
X8128333Y48172619D01*
X8223571Y48029762D01*
X8318809Y47934524D01*
X8414047Y47886905D01*
X40697381Y24931666D02*
X40221190Y25265000D01*
X40697381Y25503095D02*
X39697381Y25503095D01*
X39697381Y25122142D01*
X39745000Y25026904D01*
X39792619Y24979285D01*
X39887857Y24931666D01*
X40030714Y24931666D01*
X40125952Y24979285D01*
X40173571Y25026904D01*
X40221190Y25122142D01*
X40221190Y25503095D01*
X39697381Y24598333D02*
X39697381Y23979285D01*
X40078333Y24312619D01*
X40078333Y24169761D01*
X40125952Y24074523D01*
X40173571Y24026904D01*
X40268810Y23979285D01*
X40506905Y23979285D01*
X40602143Y24026904D01*
X40649762Y24074523D01*
X40697381Y24169761D01*
X40697381Y24455476D01*
X40649762Y24550714D01*
X40602143Y24598333D01*
X14136666Y9947619D02*
X14470000Y10423810D01*
X14708095Y9947619D02*
X14708095Y10947619D01*
X14327142Y10947619D01*
X14231904Y10900000D01*
X14184285Y10852381D01*
X14136666Y10757143D01*
X14136666Y10614286D01*
X14184285Y10519048D01*
X14231904Y10471429D01*
X14327142Y10423810D01*
X14708095Y10423810D01*
X13279523Y10614286D02*
X13279523Y9947619D01*
X13517619Y10995238D02*
X13755714Y10280952D01*
X13136666Y10280952D01*
X5143333Y27487619D02*
X5476667Y27963810D01*
X5714762Y27487619D02*
X5714762Y28487619D01*
X5333809Y28487619D01*
X5238571Y28440000D01*
X5190952Y28392381D01*
X5143333Y28297143D01*
X5143333Y28154286D01*
X5190952Y28059048D01*
X5238571Y28011429D01*
X5333809Y27963810D01*
X5714762Y27963810D01*
X4714762Y28011429D02*
X4381428Y28011429D01*
X4238571Y27487619D02*
X4714762Y27487619D01*
X4714762Y28487619D01*
X4238571Y28487619D01*
X3476666Y28011429D02*
X3810000Y28011429D01*
X3810000Y27487619D02*
X3810000Y28487619D01*
X3333809Y28487619D01*
X2810000Y28487619D02*
X2810000Y28249524D01*
X3048095Y28344762D02*
X2810000Y28249524D01*
X2571904Y28344762D01*
X2952857Y28059048D02*
X2810000Y28249524D01*
X2667142Y28059048D01*
X2048095Y28487619D02*
X2048095Y28249524D01*
X2286190Y28344762D02*
X2048095Y28249524D01*
X1809999Y28344762D01*
X2190952Y28059048D02*
X2048095Y28249524D01*
X1905237Y28059048D01*
X44513333Y7167619D02*
X44846667Y7643810D01*
X45084762Y7167619D02*
X45084762Y8167619D01*
X44703809Y8167619D01*
X44608571Y8120000D01*
X44560952Y8072381D01*
X44513333Y7977143D01*
X44513333Y7834286D01*
X44560952Y7739048D01*
X44608571Y7691429D01*
X44703809Y7643810D01*
X45084762Y7643810D01*
X44084762Y7691429D02*
X43751428Y7691429D01*
X43608571Y7167619D02*
X44084762Y7167619D01*
X44084762Y8167619D01*
X43608571Y8167619D01*
X42846666Y7691429D02*
X43180000Y7691429D01*
X43180000Y7167619D02*
X43180000Y8167619D01*
X42703809Y8167619D01*
X42180000Y8167619D02*
X42180000Y7929524D01*
X42418095Y8024762D02*
X42180000Y7929524D01*
X41941904Y8024762D01*
X42322857Y7739048D02*
X42180000Y7929524D01*
X42037142Y7739048D01*
X41418095Y8167619D02*
X41418095Y7929524D01*
X41656190Y8024762D02*
X41418095Y7929524D01*
X41179999Y8024762D01*
X41560952Y7739048D02*
X41418095Y7929524D01*
X41275237Y7739048D01*
X44513333Y41457619D02*
X44846667Y41933810D01*
X45084762Y41457619D02*
X45084762Y42457619D01*
X44703809Y42457619D01*
X44608571Y42410000D01*
X44560952Y42362381D01*
X44513333Y42267143D01*
X44513333Y42124286D01*
X44560952Y42029048D01*
X44608571Y41981429D01*
X44703809Y41933810D01*
X45084762Y41933810D01*
X44084762Y41981429D02*
X43751428Y41981429D01*
X43608571Y41457619D02*
X44084762Y41457619D01*
X44084762Y42457619D01*
X43608571Y42457619D01*
X42846666Y41981429D02*
X43180000Y41981429D01*
X43180000Y41457619D02*
X43180000Y42457619D01*
X42703809Y42457619D01*
X42180000Y42457619D02*
X42180000Y42219524D01*
X42418095Y42314762D02*
X42180000Y42219524D01*
X41941904Y42314762D01*
X42322857Y42029048D02*
X42180000Y42219524D01*
X42037142Y42029048D01*
X41418095Y42457619D02*
X41418095Y42219524D01*
X41656190Y42314762D02*
X41418095Y42219524D01*
X41179999Y42314762D01*
X41560952Y42029048D02*
X41418095Y42219524D01*
X41275237Y42029048D01*
M02*
