G04 #@! TF.FileFunction,Soldermask,Top*
%FSLAX46Y46*%
G04 Gerber Fmt 4.6, Leading zero omitted, Abs format (unit mm)*
G04 Created by KiCad (PCBNEW 4.0.1-stable) date 17/06/2016 16:01:18*
%MOMM*%
G01*
G04 APERTURE LIST*
%ADD10C,0.100000*%
%ADD11R,2.127200X2.432000*%
%ADD12O,2.127200X2.432000*%
%ADD13R,2.432000X2.127200*%
%ADD14O,2.432000X2.127200*%
%ADD15R,2.400000X2.100000*%
%ADD16C,4.464000*%
%ADD17R,2.432000X2.432000*%
%ADD18O,2.432000X2.432000*%
G04 APERTURE END LIST*
D10*
D11*
X43180000Y17145000D03*
D12*
X40640000Y17145000D03*
X38100000Y17145000D03*
X15240000Y17145000D03*
X12700000Y17145000D03*
X10160000Y17145000D03*
D11*
X38100000Y24765000D03*
D12*
X27940000Y24765000D03*
D11*
X10160000Y32385000D03*
D12*
X12700000Y32385000D03*
X15240000Y32385000D03*
X22860000Y32385000D03*
X25400000Y32385000D03*
X27940000Y32385000D03*
X38100000Y32385000D03*
X40640000Y32385000D03*
X43180000Y32385000D03*
D13*
X5080000Y45085000D03*
D14*
X5080000Y42545000D03*
X5080000Y40005000D03*
X5080000Y37465000D03*
D13*
X38100000Y45085000D03*
D14*
X38100000Y42545000D03*
X38100000Y40005000D03*
X38100000Y37465000D03*
D11*
X27940000Y9525000D03*
D12*
X30480000Y9525000D03*
X33020000Y9525000D03*
X35560000Y9525000D03*
X38100000Y9525000D03*
D15*
X14510000Y24765000D03*
X18510000Y24765000D03*
X31020000Y4445000D03*
X35020000Y4445000D03*
D16*
X43180000Y4445000D03*
X5080000Y24765000D03*
D11*
X17780000Y5715000D03*
D12*
X15240000Y5715000D03*
X12700000Y5715000D03*
X10160000Y5715000D03*
X7620000Y5715000D03*
X5080000Y5715000D03*
D16*
X43180000Y45085000D03*
D17*
X5715000Y10160000D03*
D18*
X3175000Y10160000D03*
M02*
