G04 #@! TF.FileFunction,Copper,L1,Top,Signal*
%FSLAX46Y46*%
G04 Gerber Fmt 4.6, Leading zero omitted, Abs format (unit mm)*
G04 Created by KiCad (PCBNEW 4.0.1-stable) date 17/06/2016 16:01:18*
%MOMM*%
G01*
G04 APERTURE LIST*
%ADD10C,0.100000*%
%ADD11R,1.727200X2.032000*%
%ADD12O,1.727200X2.032000*%
%ADD13R,2.032000X1.727200*%
%ADD14O,2.032000X1.727200*%
%ADD15R,2.000000X1.700000*%
%ADD16C,4.064000*%
%ADD17R,2.032000X2.032000*%
%ADD18O,2.032000X2.032000*%
%ADD19C,0.600000*%
%ADD20C,0.500000*%
%ADD21C,0.254000*%
G04 APERTURE END LIST*
D10*
D11*
X43180000Y17145000D03*
D12*
X40640000Y17145000D03*
X38100000Y17145000D03*
X15240000Y17145000D03*
X12700000Y17145000D03*
X10160000Y17145000D03*
D11*
X38100000Y24765000D03*
D12*
X27940000Y24765000D03*
D11*
X10160000Y32385000D03*
D12*
X12700000Y32385000D03*
X15240000Y32385000D03*
X22860000Y32385000D03*
X25400000Y32385000D03*
X27940000Y32385000D03*
X38100000Y32385000D03*
X40640000Y32385000D03*
X43180000Y32385000D03*
D13*
X5080000Y45085000D03*
D14*
X5080000Y42545000D03*
X5080000Y40005000D03*
X5080000Y37465000D03*
D13*
X38100000Y45085000D03*
D14*
X38100000Y42545000D03*
X38100000Y40005000D03*
X38100000Y37465000D03*
D11*
X27940000Y9525000D03*
D12*
X30480000Y9525000D03*
X33020000Y9525000D03*
X35560000Y9525000D03*
X38100000Y9525000D03*
D15*
X14510000Y24765000D03*
X18510000Y24765000D03*
X31020000Y4445000D03*
X35020000Y4445000D03*
D16*
X43180000Y4445000D03*
X5080000Y24765000D03*
D11*
X17780000Y5715000D03*
D12*
X15240000Y5715000D03*
X12700000Y5715000D03*
X10160000Y5715000D03*
X7620000Y5715000D03*
X5080000Y5715000D03*
D16*
X43180000Y45085000D03*
D17*
X5715000Y10160000D03*
D18*
X3175000Y10160000D03*
D19*
X12446000Y26543000D03*
X5334000Y33655000D03*
X20574000Y8255000D03*
X28194000Y4191000D03*
X9398000Y14351000D03*
X16510000Y22479000D03*
X4826000Y2667000D03*
X32766000Y2159000D03*
X11938000Y10287000D03*
X18542000Y27051000D03*
X17018000Y38735000D03*
X18542000Y14351000D03*
X34798000Y21971000D03*
X21590000Y26035000D03*
X24638000Y22987000D03*
X32766000Y21463000D03*
X38354000Y4191000D03*
X34290000Y19939000D03*
X25146000Y10795000D03*
X22606000Y8255000D03*
D20*
X12700000Y5715000D02*
X12954000Y5715000D01*
X12954000Y5715000D02*
X11938000Y6731000D01*
X11938000Y6731000D02*
X11938000Y7239000D01*
X11938000Y7239000D02*
X5334000Y13843000D01*
X5334000Y13843000D02*
X5334000Y24511000D01*
X5334000Y24511000D02*
X5080000Y24765000D01*
X43180000Y17145000D02*
X43942000Y17399000D01*
X43942000Y17399000D02*
X44958000Y18415000D01*
X44958000Y18415000D02*
X44958000Y34163000D01*
X44958000Y34163000D02*
X43434000Y35687000D01*
X43434000Y35687000D02*
X43434000Y44831000D01*
X43434000Y44831000D02*
X43180000Y45085000D01*
X5080000Y24765000D02*
X5842000Y25019000D01*
X5842000Y25019000D02*
X6858000Y26035000D01*
X6858000Y26035000D02*
X6858000Y44323000D01*
X6858000Y44323000D02*
X5842000Y44323000D01*
X5842000Y44323000D02*
X5080000Y45085000D01*
X43180000Y17145000D02*
X43434000Y16891000D01*
X43434000Y16891000D02*
X43434000Y4191000D01*
X43434000Y4191000D02*
X43180000Y4445000D01*
X12700000Y5715000D02*
X12700000Y8636000D01*
X13589000Y9525000D02*
X27940000Y9525000D01*
X12700000Y8636000D02*
X13589000Y9525000D01*
X14510000Y24765000D02*
X14478000Y24511000D01*
X14478000Y24511000D02*
X12446000Y26543000D01*
X5334000Y33655000D02*
X3302000Y35687000D01*
X3302000Y35687000D02*
X3302000Y41783000D01*
X3302000Y41783000D02*
X4826000Y41783000D01*
X4826000Y41783000D02*
X5334000Y42291000D01*
X5334000Y42291000D02*
X5080000Y42545000D01*
X20574000Y8255000D02*
X17018000Y8255000D01*
X17018000Y8255000D02*
X15494000Y6731000D01*
X15494000Y6731000D02*
X15494000Y5715000D01*
X15494000Y5715000D02*
X15240000Y5715000D01*
X28194000Y4191000D02*
X31242000Y4191000D01*
X31242000Y4191000D02*
X31020000Y4445000D01*
X9398000Y14351000D02*
X8382000Y15367000D01*
X8382000Y15367000D02*
X8382000Y18923000D01*
X8382000Y18923000D02*
X8890000Y18923000D01*
X8890000Y18923000D02*
X14478000Y24511000D01*
X14478000Y24511000D02*
X14510000Y24765000D01*
X14510000Y24765000D02*
X14478000Y24511000D01*
X14478000Y24511000D02*
X16510000Y22479000D01*
X38100000Y32385000D02*
X38862000Y32639000D01*
X38862000Y32639000D02*
X38862000Y34163000D01*
X38862000Y34163000D02*
X39878000Y35179000D01*
X39878000Y35179000D02*
X39878000Y41783000D01*
X39878000Y41783000D02*
X38862000Y41783000D01*
X38862000Y41783000D02*
X38100000Y42545000D01*
X3175000Y10160000D02*
X3302000Y10287000D01*
X3302000Y10287000D02*
X3302000Y4191000D01*
X3302000Y4191000D02*
X4826000Y2667000D01*
X32766000Y2159000D02*
X34798000Y4191000D01*
X34798000Y4191000D02*
X35020000Y4445000D01*
X35020000Y4445000D02*
X34798000Y4191000D01*
X34798000Y4191000D02*
X35814000Y4191000D01*
X35814000Y4191000D02*
X39370000Y7747000D01*
X39370000Y7747000D02*
X39878000Y7747000D01*
X39878000Y7747000D02*
X39878000Y11303000D01*
X39878000Y11303000D02*
X36322000Y14859000D01*
X36322000Y14859000D02*
X36322000Y39243000D01*
X36322000Y39243000D02*
X37846000Y39243000D01*
X37846000Y39243000D02*
X38354000Y39751000D01*
X38354000Y39751000D02*
X38100000Y40005000D01*
X11938000Y10287000D02*
X17526000Y15875000D01*
X17526000Y15875000D02*
X17526000Y21971000D01*
X17526000Y21971000D02*
X18542000Y22987000D01*
X18542000Y22987000D02*
X18542000Y24511000D01*
X18542000Y24511000D02*
X18510000Y24765000D01*
X18510000Y24765000D02*
X18542000Y24511000D01*
X18542000Y24511000D02*
X18542000Y27051000D01*
X22860000Y32385000D02*
X17018000Y38227000D01*
X17018000Y38227000D02*
X17018000Y38735000D01*
X22860000Y32385000D02*
X22606000Y31623000D01*
X22606000Y31623000D02*
X20066000Y29083000D01*
X20066000Y29083000D02*
X20066000Y22987000D01*
X20066000Y22987000D02*
X18542000Y21463000D01*
X18542000Y21463000D02*
X18542000Y14351000D01*
X25400000Y32385000D02*
X26162000Y31623000D01*
X26162000Y31623000D02*
X26162000Y30607000D01*
X26162000Y30607000D02*
X34798000Y21971000D01*
X21590000Y26035000D02*
X24638000Y22987000D01*
X32766000Y21463000D02*
X33274000Y21463000D01*
X33274000Y21463000D02*
X33782000Y20955000D01*
X33782000Y20955000D02*
X35306000Y20955000D01*
X35306000Y20955000D02*
X35306000Y18923000D01*
X35306000Y18923000D02*
X33274000Y16891000D01*
X33274000Y16891000D02*
X33274000Y9271000D01*
X33274000Y9271000D02*
X33020000Y9525000D01*
X38354000Y4191000D02*
X40894000Y6731000D01*
X40894000Y6731000D02*
X40894000Y16891000D01*
X40894000Y16891000D02*
X40640000Y17145000D01*
X34290000Y19939000D02*
X25146000Y10795000D01*
X22606000Y8255000D02*
X19558000Y5207000D01*
X19558000Y5207000D02*
X19558000Y4191000D01*
X19558000Y4191000D02*
X8382000Y4191000D01*
X8382000Y4191000D02*
X7874000Y4699000D01*
X7874000Y4699000D02*
X7874000Y5715000D01*
X7874000Y5715000D02*
X7620000Y5715000D01*
D21*
G36*
X46863000Y1397000D02*
X33326114Y1397000D01*
X33558192Y1628673D01*
X33608566Y1749986D01*
X34806139Y2947560D01*
X36020000Y2947560D01*
X36255317Y2991838D01*
X36471441Y3130910D01*
X36616431Y3343110D01*
X36667440Y3595000D01*
X36667440Y3792860D01*
X37537595Y4663015D01*
X37419162Y4377799D01*
X37418838Y4005833D01*
X37560883Y3662057D01*
X37823673Y3398808D01*
X38167201Y3256162D01*
X38539167Y3255838D01*
X38882943Y3397883D01*
X39146192Y3660673D01*
X39196566Y3781986D01*
X40603885Y5189306D01*
X40509120Y4955612D01*
X40517025Y3894643D01*
X40907832Y2951154D01*
X41281879Y2726484D01*
X41580603Y3025208D01*
X41760051Y2845446D01*
X41461484Y2546879D01*
X41686154Y2172832D01*
X42669388Y1774120D01*
X43730357Y1782025D01*
X44673846Y2172832D01*
X44898516Y2546879D01*
X44599792Y2845603D01*
X44779554Y3025051D01*
X45078121Y2726484D01*
X45452168Y2951154D01*
X45850880Y3934388D01*
X45842975Y4995357D01*
X45452168Y5938846D01*
X45078121Y6163516D01*
X44779397Y5864792D01*
X44599949Y6044554D01*
X44898516Y6343121D01*
X44673846Y6717168D01*
X43690612Y7115880D01*
X42629643Y7107975D01*
X41779000Y6755626D01*
X41779000Y15768374D01*
X41956702Y15590673D01*
X42190091Y15494000D01*
X42894250Y15494000D01*
X43053000Y15652750D01*
X43053000Y17018000D01*
X43307000Y17018000D01*
X43307000Y15652750D01*
X43465750Y15494000D01*
X44169909Y15494000D01*
X44403298Y15590673D01*
X44581927Y15769301D01*
X44678600Y16002690D01*
X44678600Y16859250D01*
X44519850Y17018000D01*
X43307000Y17018000D01*
X43053000Y17018000D01*
X43033000Y17018000D01*
X43033000Y17272000D01*
X43053000Y17272000D01*
X43053000Y18637250D01*
X43307000Y18637250D01*
X43307000Y17272000D01*
X44519850Y17272000D01*
X44678600Y17430750D01*
X44678600Y18287310D01*
X44581927Y18520699D01*
X44403298Y18699327D01*
X44169909Y18796000D01*
X43465750Y18796000D01*
X43307000Y18637250D01*
X43053000Y18637250D01*
X42894250Y18796000D01*
X42190091Y18796000D01*
X41956702Y18699327D01*
X41778073Y18520699D01*
X41714500Y18367220D01*
X41699670Y18389415D01*
X41213489Y18714271D01*
X40640000Y18828345D01*
X40066511Y18714271D01*
X39580330Y18389415D01*
X39370000Y18074634D01*
X39159670Y18389415D01*
X38673489Y18714271D01*
X38100000Y18828345D01*
X37526511Y18714271D01*
X37207000Y18500780D01*
X37207000Y23107514D01*
X37236400Y23101560D01*
X38963600Y23101560D01*
X39198917Y23145838D01*
X39415041Y23284910D01*
X39560031Y23497110D01*
X39611040Y23749000D01*
X39611040Y25781000D01*
X39566762Y26016317D01*
X39427690Y26232441D01*
X39215490Y26377431D01*
X38963600Y26428440D01*
X37236400Y26428440D01*
X37207000Y26422908D01*
X37207000Y31029220D01*
X37526511Y30815729D01*
X38100000Y30701655D01*
X38673489Y30815729D01*
X39159670Y31140585D01*
X39370000Y31455366D01*
X39580330Y31140585D01*
X40066511Y30815729D01*
X40640000Y30701655D01*
X41213489Y30815729D01*
X41699670Y31140585D01*
X41910000Y31455366D01*
X42120330Y31140585D01*
X42606511Y30815729D01*
X43180000Y30701655D01*
X43753489Y30815729D01*
X44239670Y31140585D01*
X44564526Y31626766D01*
X44678600Y32200255D01*
X44678600Y32569745D01*
X44564526Y33143234D01*
X44239670Y33629415D01*
X43753489Y33954271D01*
X43180000Y34068345D01*
X42606511Y33954271D01*
X42120330Y33629415D01*
X41910000Y33314634D01*
X41699670Y33629415D01*
X41213489Y33954271D01*
X40640000Y34068345D01*
X40066511Y33954271D01*
X39747000Y33740780D01*
X39747000Y33796420D01*
X40503787Y34553208D01*
X40503790Y34553210D01*
X40695633Y34840325D01*
X40723542Y34980633D01*
X40763001Y35179000D01*
X40763000Y35179005D01*
X40763000Y41783000D01*
X40695633Y42121675D01*
X40503790Y42408790D01*
X40216675Y42600633D01*
X39878000Y42668000D01*
X39758879Y42668000D01*
X39669271Y43118489D01*
X39344415Y43604670D01*
X39322220Y43619500D01*
X39475699Y43683073D01*
X39654327Y43861702D01*
X39751000Y44095091D01*
X39751000Y44799250D01*
X39592250Y44958000D01*
X38227000Y44958000D01*
X38227000Y44938000D01*
X37973000Y44938000D01*
X37973000Y44958000D01*
X36607750Y44958000D01*
X36449000Y44799250D01*
X36449000Y44095091D01*
X36545673Y43861702D01*
X36724301Y43683073D01*
X36877780Y43619500D01*
X36855585Y43604670D01*
X36530729Y43118489D01*
X36416655Y42545000D01*
X36530729Y41971511D01*
X36855585Y41485330D01*
X37170366Y41275000D01*
X36855585Y41064670D01*
X36530729Y40578489D01*
X36441121Y40128000D01*
X36322000Y40128000D01*
X35983325Y40060633D01*
X35696210Y39868790D01*
X35504367Y39581675D01*
X35437000Y39243000D01*
X35437000Y22654329D01*
X35328327Y22763192D01*
X35207013Y22813566D01*
X27047000Y30973580D01*
X27047000Y31029220D01*
X27366511Y30815729D01*
X27940000Y30701655D01*
X28513489Y30815729D01*
X28999670Y31140585D01*
X29324526Y31626766D01*
X29438600Y32200255D01*
X29438600Y32569745D01*
X29324526Y33143234D01*
X28999670Y33629415D01*
X28513489Y33954271D01*
X27940000Y34068345D01*
X27366511Y33954271D01*
X26880330Y33629415D01*
X26670000Y33314634D01*
X26459670Y33629415D01*
X25973489Y33954271D01*
X25400000Y34068345D01*
X24826511Y33954271D01*
X24340330Y33629415D01*
X24130000Y33314634D01*
X23919670Y33629415D01*
X23433489Y33954271D01*
X22860000Y34068345D01*
X22499869Y33996710D01*
X17951530Y38545050D01*
X17952838Y38548201D01*
X17953162Y38920167D01*
X17811117Y39263943D01*
X17548327Y39527192D01*
X17204799Y39669838D01*
X16832833Y39670162D01*
X16489057Y39528117D01*
X16225808Y39265327D01*
X16083162Y38921799D01*
X16082838Y38549833D01*
X16133000Y38428431D01*
X16133000Y38227005D01*
X16132999Y38227000D01*
X16170497Y38038489D01*
X16200367Y37888325D01*
X16259492Y37799838D01*
X16392210Y37601210D01*
X21371732Y32621689D01*
X21361400Y32569745D01*
X21361400Y32200255D01*
X21456015Y31724594D01*
X19440210Y29708790D01*
X19248367Y29421675D01*
X19248367Y29421674D01*
X19180999Y29083000D01*
X19181000Y29082995D01*
X19181000Y27734329D01*
X19072327Y27843192D01*
X18728799Y27985838D01*
X18356833Y27986162D01*
X18013057Y27844117D01*
X17749808Y27581327D01*
X17607162Y27237799D01*
X17606838Y26865833D01*
X17657000Y26744431D01*
X17657000Y26262440D01*
X17510000Y26262440D01*
X17274683Y26218162D01*
X17058559Y26079090D01*
X16913569Y25866890D01*
X16862560Y25615000D01*
X16862560Y23915000D01*
X16906838Y23679683D01*
X17045910Y23463559D01*
X17258110Y23318569D01*
X17510000Y23267560D01*
X17570981Y23267560D01*
X17305528Y23002108D01*
X17303117Y23007943D01*
X17040327Y23271192D01*
X16919013Y23321566D01*
X16157440Y24083139D01*
X16157440Y25615000D01*
X16113162Y25850317D01*
X15974090Y26066441D01*
X15761890Y26211431D01*
X15510000Y26262440D01*
X13978140Y26262440D01*
X13288744Y26951836D01*
X13239117Y27071943D01*
X12976327Y27335192D01*
X12632799Y27477838D01*
X12260833Y27478162D01*
X11917057Y27336117D01*
X11653808Y27073327D01*
X11511162Y26729799D01*
X11510838Y26357833D01*
X11652883Y26014057D01*
X11915673Y25750808D01*
X12036986Y25700434D01*
X12862560Y24874861D01*
X12862560Y24147139D01*
X8523420Y19808000D01*
X8382000Y19808000D01*
X8043325Y19740633D01*
X7756210Y19548790D01*
X7564367Y19261675D01*
X7497000Y18923000D01*
X7497000Y15367005D01*
X7496999Y15367000D01*
X7530681Y15197674D01*
X7564367Y15028325D01*
X7663512Y14879943D01*
X7756210Y14741210D01*
X8555255Y13942165D01*
X8604883Y13822057D01*
X8867673Y13558808D01*
X9211201Y13416162D01*
X9583167Y13415838D01*
X9926943Y13557883D01*
X10190192Y13820673D01*
X10332838Y14164201D01*
X10333162Y14536167D01*
X10191117Y14879943D01*
X9928327Y15143192D01*
X9807013Y15193566D01*
X9267000Y15733580D01*
X9267000Y15789220D01*
X9586511Y15575729D01*
X10160000Y15461655D01*
X10733489Y15575729D01*
X11219670Y15900585D01*
X11430000Y16215366D01*
X11640330Y15900585D01*
X12126511Y15575729D01*
X12700000Y15461655D01*
X13273489Y15575729D01*
X13759670Y15900585D01*
X13970000Y16215366D01*
X14180330Y15900585D01*
X14666511Y15575729D01*
X15240000Y15461655D01*
X15813489Y15575729D01*
X16299670Y15900585D01*
X16624526Y16386766D01*
X16641000Y16469586D01*
X16641000Y16241579D01*
X11529164Y11129744D01*
X11409057Y11080117D01*
X11145808Y10817327D01*
X11003162Y10473799D01*
X11002838Y10101833D01*
X11144883Y9758057D01*
X11407673Y9494808D01*
X11751201Y9352162D01*
X12123167Y9351838D01*
X12466943Y9493883D01*
X12730192Y9756673D01*
X12780566Y9877986D01*
X17657000Y14754421D01*
X17657000Y14657822D01*
X17607162Y14537799D01*
X17606838Y14165833D01*
X17748883Y13822057D01*
X18011673Y13558808D01*
X18355201Y13416162D01*
X18727167Y13415838D01*
X19070943Y13557883D01*
X19334192Y13820673D01*
X19476838Y14164201D01*
X19477162Y14536167D01*
X19427000Y14657569D01*
X19427000Y21096420D01*
X20691787Y22361208D01*
X20691790Y22361210D01*
X20883633Y22648325D01*
X20951000Y22987000D01*
X20951000Y25351671D01*
X21059673Y25242808D01*
X21180986Y25192434D01*
X23795255Y22578166D01*
X23844883Y22458057D01*
X24107673Y22194808D01*
X24451201Y22052162D01*
X24823167Y22051838D01*
X25166943Y22193883D01*
X25430192Y22456673D01*
X25572838Y22800201D01*
X25573162Y23172167D01*
X25431117Y23515943D01*
X25168327Y23779192D01*
X25047013Y23829566D01*
X23926835Y24949745D01*
X26441400Y24949745D01*
X26441400Y24580255D01*
X26555474Y24006766D01*
X26880330Y23520585D01*
X27366511Y23195729D01*
X27940000Y23081655D01*
X28513489Y23195729D01*
X28999670Y23520585D01*
X29324526Y24006766D01*
X29438600Y24580255D01*
X29438600Y24949745D01*
X29324526Y25523234D01*
X28999670Y26009415D01*
X28513489Y26334271D01*
X27940000Y26448345D01*
X27366511Y26334271D01*
X26880330Y26009415D01*
X26555474Y25523234D01*
X26441400Y24949745D01*
X23926835Y24949745D01*
X22432744Y26443836D01*
X22383117Y26563943D01*
X22120327Y26827192D01*
X21776799Y26969838D01*
X21404833Y26970162D01*
X21061057Y26828117D01*
X20951000Y26718252D01*
X20951000Y28716420D01*
X22955163Y30720584D01*
X23433489Y30815729D01*
X23919670Y31140585D01*
X24130000Y31455366D01*
X24340330Y31140585D01*
X24826511Y30815729D01*
X25277000Y30726121D01*
X25277000Y30607005D01*
X25276999Y30607000D01*
X25333190Y30324516D01*
X25344367Y30268325D01*
X25536210Y29981210D01*
X33169421Y22348000D01*
X33072822Y22348000D01*
X32952799Y22397838D01*
X32580833Y22398162D01*
X32237057Y22256117D01*
X31973808Y21993327D01*
X31831162Y21649799D01*
X31830838Y21277833D01*
X31972883Y20934057D01*
X32235673Y20670808D01*
X32579201Y20528162D01*
X32951167Y20527838D01*
X32955707Y20529714D01*
X33156208Y20329213D01*
X33156210Y20329210D01*
X33319515Y20220094D01*
X24737164Y11637744D01*
X24617057Y11588117D01*
X24353808Y11325327D01*
X24211162Y10981799D01*
X24210838Y10609833D01*
X24352883Y10266057D01*
X24615673Y10002808D01*
X24959201Y9860162D01*
X25331167Y9859838D01*
X25674943Y10001883D01*
X25938192Y10264673D01*
X25988566Y10385986D01*
X26269889Y10667310D01*
X26441400Y10667310D01*
X26441400Y9810750D01*
X26600150Y9652000D01*
X27813000Y9652000D01*
X27813000Y11017250D01*
X27654250Y11176000D01*
X26950091Y11176000D01*
X26716702Y11079327D01*
X26538073Y10900699D01*
X26441400Y10667310D01*
X26269889Y10667310D01*
X32389000Y16786421D01*
X32389000Y11055843D01*
X31960330Y10769415D01*
X31750000Y10454634D01*
X31539670Y10769415D01*
X31053489Y11094271D01*
X30480000Y11208345D01*
X29906511Y11094271D01*
X29420330Y10769415D01*
X29405500Y10747220D01*
X29341927Y10900699D01*
X29163298Y11079327D01*
X28929909Y11176000D01*
X28225750Y11176000D01*
X28067000Y11017250D01*
X28067000Y9652000D01*
X28087000Y9652000D01*
X28087000Y9398000D01*
X28067000Y9398000D01*
X28067000Y8032750D01*
X28225750Y7874000D01*
X28929909Y7874000D01*
X29163298Y7970673D01*
X29341927Y8149301D01*
X29405500Y8302780D01*
X29420330Y8280585D01*
X29906511Y7955729D01*
X30480000Y7841655D01*
X31053489Y7955729D01*
X31539670Y8280585D01*
X31750000Y8595366D01*
X31960330Y8280585D01*
X32446511Y7955729D01*
X33020000Y7841655D01*
X33593489Y7955729D01*
X34079670Y8280585D01*
X34290000Y8595366D01*
X34500330Y8280585D01*
X34986511Y7955729D01*
X35560000Y7841655D01*
X36133489Y7955729D01*
X36619670Y8280585D01*
X36830000Y8595366D01*
X37040330Y8280585D01*
X37526511Y7955729D01*
X38100000Y7841655D01*
X38241153Y7869732D01*
X36264373Y5892953D01*
X36020000Y5942440D01*
X34020000Y5942440D01*
X33784683Y5898162D01*
X33568559Y5759090D01*
X33423569Y5546890D01*
X33372560Y5295000D01*
X33372560Y4017139D01*
X32357164Y3001744D01*
X32237057Y2952117D01*
X31973808Y2689327D01*
X31831162Y2345799D01*
X31830838Y1973833D01*
X31972883Y1630057D01*
X32205534Y1397000D01*
X1397000Y1397000D01*
X1397000Y10160000D01*
X1491655Y10160000D01*
X1617330Y9528190D01*
X1975222Y8992567D01*
X2417000Y8697380D01*
X2417000Y4191005D01*
X2416999Y4191000D01*
X2473190Y3908516D01*
X2484367Y3852325D01*
X2612424Y3660673D01*
X2676210Y3565210D01*
X3983255Y2258166D01*
X4032883Y2138057D01*
X4295673Y1874808D01*
X4639201Y1732162D01*
X5011167Y1731838D01*
X5354943Y1873883D01*
X5618192Y2136673D01*
X5760838Y2480201D01*
X5761162Y2852167D01*
X5619117Y3195943D01*
X5356327Y3459192D01*
X5235013Y3509566D01*
X4621779Y4122801D01*
X5080000Y4031655D01*
X5653489Y4145729D01*
X6139670Y4470585D01*
X6350000Y4785366D01*
X6560330Y4470585D01*
X7046511Y4145729D01*
X7223244Y4110575D01*
X7248210Y4073210D01*
X7756208Y3565213D01*
X7756210Y3565210D01*
X8005250Y3398808D01*
X8043325Y3373367D01*
X8382000Y3306000D01*
X19558000Y3306000D01*
X19896675Y3373367D01*
X20183790Y3565210D01*
X20375633Y3852325D01*
X20406167Y4005833D01*
X27258838Y4005833D01*
X27400883Y3662057D01*
X27663673Y3398808D01*
X28007201Y3256162D01*
X28379167Y3255838D01*
X28500569Y3306000D01*
X29451382Y3306000D01*
X29555910Y3143559D01*
X29768110Y2998569D01*
X30020000Y2947560D01*
X32020000Y2947560D01*
X32255317Y2991838D01*
X32471441Y3130910D01*
X32616431Y3343110D01*
X32667440Y3595000D01*
X32667440Y5295000D01*
X32623162Y5530317D01*
X32484090Y5746441D01*
X32271890Y5891431D01*
X32020000Y5942440D01*
X30020000Y5942440D01*
X29784683Y5898162D01*
X29568559Y5759090D01*
X29423569Y5546890D01*
X29372560Y5295000D01*
X29372560Y5076000D01*
X28500822Y5076000D01*
X28380799Y5125838D01*
X28008833Y5126162D01*
X27665057Y4984117D01*
X27401808Y4721327D01*
X27259162Y4377799D01*
X27258838Y4005833D01*
X20406167Y4005833D01*
X20443000Y4191000D01*
X20443000Y4840420D01*
X23014834Y7412255D01*
X23134943Y7461883D01*
X23398192Y7724673D01*
X23540838Y8068201D01*
X23541162Y8440167D01*
X23399117Y8783943D01*
X23136327Y9047192D01*
X22792799Y9189838D01*
X22420833Y9190162D01*
X22077057Y9048117D01*
X21813808Y8785327D01*
X21763434Y8664013D01*
X21509135Y8409715D01*
X21509162Y8440167D01*
X21367117Y8783943D01*
X21104327Y9047192D01*
X20760799Y9189838D01*
X20388833Y9190162D01*
X20267431Y9140000D01*
X17018000Y9140000D01*
X16679325Y9072633D01*
X16392210Y8880790D01*
X16392208Y8880787D01*
X14868210Y7356790D01*
X14843244Y7319425D01*
X14666511Y7284271D01*
X14180330Y6959415D01*
X13973539Y6649931D01*
X13602036Y7065732D01*
X13074791Y7319709D01*
X13059026Y7322358D01*
X12827000Y7201217D01*
X12827000Y5842000D01*
X12847000Y5842000D01*
X12847000Y5588000D01*
X12827000Y5588000D01*
X12827000Y5568000D01*
X12573000Y5568000D01*
X12573000Y5588000D01*
X12553000Y5588000D01*
X12553000Y5842000D01*
X12573000Y5842000D01*
X12573000Y7201217D01*
X12340974Y7322358D01*
X12325209Y7319709D01*
X11797964Y7065732D01*
X11426461Y6649931D01*
X11219670Y6959415D01*
X10733489Y7284271D01*
X10160000Y7398345D01*
X9586511Y7284271D01*
X9100330Y6959415D01*
X8890000Y6644634D01*
X8679670Y6959415D01*
X8193489Y7284271D01*
X7620000Y7398345D01*
X7046511Y7284271D01*
X6560330Y6959415D01*
X6350000Y6644634D01*
X6139670Y6959415D01*
X5653489Y7284271D01*
X5080000Y7398345D01*
X4506511Y7284271D01*
X4187000Y7070780D01*
X4187000Y8767013D01*
X4234910Y8692559D01*
X4447110Y8547569D01*
X4699000Y8496560D01*
X6731000Y8496560D01*
X6966317Y8540838D01*
X7182441Y8679910D01*
X7327431Y8892110D01*
X7378440Y9144000D01*
X7378440Y9239250D01*
X26441400Y9239250D01*
X26441400Y8382690D01*
X26538073Y8149301D01*
X26716702Y7970673D01*
X26950091Y7874000D01*
X27654250Y7874000D01*
X27813000Y8032750D01*
X27813000Y9398000D01*
X26600150Y9398000D01*
X26441400Y9239250D01*
X7378440Y9239250D01*
X7378440Y11176000D01*
X7334162Y11411317D01*
X7195090Y11627441D01*
X6982890Y11772431D01*
X6731000Y11823440D01*
X4699000Y11823440D01*
X4463683Y11779162D01*
X4247559Y11640090D01*
X4140767Y11483794D01*
X3839155Y11685325D01*
X3207345Y11811000D01*
X3142655Y11811000D01*
X2510845Y11685325D01*
X1975222Y11327433D01*
X1617330Y10791810D01*
X1491655Y10160000D01*
X1397000Y10160000D01*
X1397000Y25275612D01*
X2409120Y25275612D01*
X2417025Y24214643D01*
X2807832Y23271154D01*
X3181879Y23046484D01*
X3480603Y23345208D01*
X3660051Y23165446D01*
X3361484Y22866879D01*
X3586154Y22492832D01*
X4569388Y22094120D01*
X5630357Y22102025D01*
X6573846Y22492832D01*
X6798516Y22866879D01*
X6499792Y23165603D01*
X6679554Y23345051D01*
X6978121Y23046484D01*
X7352168Y23271154D01*
X7750880Y24254388D01*
X7742975Y25315357D01*
X7352168Y26258846D01*
X6978121Y26483516D01*
X6679397Y26184792D01*
X6499949Y26364554D01*
X6798516Y26663121D01*
X6573846Y27037168D01*
X5590612Y27435880D01*
X4529643Y27427975D01*
X3586154Y27037168D01*
X3361484Y26663121D01*
X3660208Y26364397D01*
X3480446Y26184949D01*
X3181879Y26483516D01*
X2807832Y26258846D01*
X2409120Y25275612D01*
X1397000Y25275612D01*
X1397000Y35687000D01*
X2416999Y35687000D01*
X2450681Y35517674D01*
X2484367Y35348325D01*
X2597506Y35179000D01*
X2676210Y35061210D01*
X4491255Y33246166D01*
X4540883Y33126057D01*
X4803673Y32862808D01*
X5147201Y32720162D01*
X5519167Y32719838D01*
X5862943Y32861883D01*
X6126192Y33124673D01*
X6240933Y33401000D01*
X8648960Y33401000D01*
X8648960Y31369000D01*
X8693238Y31133683D01*
X8832310Y30917559D01*
X9044510Y30772569D01*
X9296400Y30721560D01*
X11023600Y30721560D01*
X11258917Y30765838D01*
X11475041Y30904910D01*
X11620031Y31117110D01*
X11628400Y31158439D01*
X11640330Y31140585D01*
X12126511Y30815729D01*
X12700000Y30701655D01*
X13273489Y30815729D01*
X13759670Y31140585D01*
X13970000Y31455366D01*
X14180330Y31140585D01*
X14666511Y30815729D01*
X15240000Y30701655D01*
X15813489Y30815729D01*
X16299670Y31140585D01*
X16624526Y31626766D01*
X16738600Y32200255D01*
X16738600Y32569745D01*
X16624526Y33143234D01*
X16299670Y33629415D01*
X15813489Y33954271D01*
X15240000Y34068345D01*
X14666511Y33954271D01*
X14180330Y33629415D01*
X13970000Y33314634D01*
X13759670Y33629415D01*
X13273489Y33954271D01*
X12700000Y34068345D01*
X12126511Y33954271D01*
X11640330Y33629415D01*
X11630757Y33615087D01*
X11626762Y33636317D01*
X11487690Y33852441D01*
X11275490Y33997431D01*
X11023600Y34048440D01*
X9296400Y34048440D01*
X9061083Y34004162D01*
X8844959Y33865090D01*
X8699969Y33652890D01*
X8648960Y33401000D01*
X6240933Y33401000D01*
X6268838Y33468201D01*
X6269162Y33840167D01*
X6127117Y34183943D01*
X5864327Y34447192D01*
X5743013Y34497566D01*
X4187000Y36053580D01*
X4187000Y36170522D01*
X4321766Y36080474D01*
X4895255Y35966400D01*
X5264745Y35966400D01*
X5838234Y36080474D01*
X6324415Y36405330D01*
X6649271Y36891511D01*
X6763345Y37465000D01*
X6649271Y38038489D01*
X6324415Y38524670D01*
X6009634Y38735000D01*
X6324415Y38945330D01*
X6649271Y39431511D01*
X6763345Y40005000D01*
X6649271Y40578489D01*
X6324415Y41064670D01*
X6009634Y41275000D01*
X6324415Y41485330D01*
X6649271Y41971511D01*
X6763345Y42545000D01*
X6649271Y43118489D01*
X6324415Y43604670D01*
X6302220Y43619500D01*
X6455699Y43683073D01*
X6634327Y43861702D01*
X6731000Y44095091D01*
X6731000Y44799250D01*
X6572250Y44958000D01*
X5207000Y44958000D01*
X5207000Y44938000D01*
X4953000Y44938000D01*
X4953000Y44958000D01*
X3587750Y44958000D01*
X3429000Y44799250D01*
X3429000Y44095091D01*
X3525673Y43861702D01*
X3704301Y43683073D01*
X3857780Y43619500D01*
X3835585Y43604670D01*
X3510729Y43118489D01*
X3421121Y42668000D01*
X3302000Y42668000D01*
X2963325Y42600633D01*
X2676210Y42408790D01*
X2484367Y42121675D01*
X2417000Y41783000D01*
X2417000Y35687005D01*
X2416999Y35687000D01*
X1397000Y35687000D01*
X1397000Y46074909D01*
X3429000Y46074909D01*
X3429000Y45370750D01*
X3587750Y45212000D01*
X4953000Y45212000D01*
X4953000Y46424850D01*
X5207000Y46424850D01*
X5207000Y45212000D01*
X6572250Y45212000D01*
X6731000Y45370750D01*
X6731000Y46074909D01*
X36449000Y46074909D01*
X36449000Y45370750D01*
X36607750Y45212000D01*
X37973000Y45212000D01*
X37973000Y46424850D01*
X38227000Y46424850D01*
X38227000Y45212000D01*
X39592250Y45212000D01*
X39751000Y45370750D01*
X39751000Y45595612D01*
X40509120Y45595612D01*
X40517025Y44534643D01*
X40907832Y43591154D01*
X41281879Y43366484D01*
X41580603Y43665208D01*
X41760051Y43485446D01*
X41461484Y43186879D01*
X41686154Y42812832D01*
X42669388Y42414120D01*
X43730357Y42422025D01*
X44673846Y42812832D01*
X44898516Y43186879D01*
X44599792Y43485603D01*
X44779554Y43665051D01*
X45078121Y43366484D01*
X45452168Y43591154D01*
X45850880Y44574388D01*
X45842975Y45635357D01*
X45452168Y46578846D01*
X45078121Y46803516D01*
X44779397Y46504792D01*
X44599949Y46684554D01*
X44898516Y46983121D01*
X44673846Y47357168D01*
X43690612Y47755880D01*
X42629643Y47747975D01*
X41686154Y47357168D01*
X41461484Y46983121D01*
X41760208Y46684397D01*
X41580446Y46504949D01*
X41281879Y46803516D01*
X40907832Y46578846D01*
X40509120Y45595612D01*
X39751000Y45595612D01*
X39751000Y46074909D01*
X39654327Y46308298D01*
X39475699Y46486927D01*
X39242310Y46583600D01*
X38385750Y46583600D01*
X38227000Y46424850D01*
X37973000Y46424850D01*
X37814250Y46583600D01*
X36957690Y46583600D01*
X36724301Y46486927D01*
X36545673Y46308298D01*
X36449000Y46074909D01*
X6731000Y46074909D01*
X6634327Y46308298D01*
X6455699Y46486927D01*
X6222310Y46583600D01*
X5365750Y46583600D01*
X5207000Y46424850D01*
X4953000Y46424850D01*
X4794250Y46583600D01*
X3937690Y46583600D01*
X3704301Y46486927D01*
X3525673Y46308298D01*
X3429000Y46074909D01*
X1397000Y46074909D01*
X1397000Y48133000D01*
X46863000Y48133000D01*
X46863000Y1397000D01*
X46863000Y1397000D01*
G37*
X46863000Y1397000D02*
X33326114Y1397000D01*
X33558192Y1628673D01*
X33608566Y1749986D01*
X34806139Y2947560D01*
X36020000Y2947560D01*
X36255317Y2991838D01*
X36471441Y3130910D01*
X36616431Y3343110D01*
X36667440Y3595000D01*
X36667440Y3792860D01*
X37537595Y4663015D01*
X37419162Y4377799D01*
X37418838Y4005833D01*
X37560883Y3662057D01*
X37823673Y3398808D01*
X38167201Y3256162D01*
X38539167Y3255838D01*
X38882943Y3397883D01*
X39146192Y3660673D01*
X39196566Y3781986D01*
X40603885Y5189306D01*
X40509120Y4955612D01*
X40517025Y3894643D01*
X40907832Y2951154D01*
X41281879Y2726484D01*
X41580603Y3025208D01*
X41760051Y2845446D01*
X41461484Y2546879D01*
X41686154Y2172832D01*
X42669388Y1774120D01*
X43730357Y1782025D01*
X44673846Y2172832D01*
X44898516Y2546879D01*
X44599792Y2845603D01*
X44779554Y3025051D01*
X45078121Y2726484D01*
X45452168Y2951154D01*
X45850880Y3934388D01*
X45842975Y4995357D01*
X45452168Y5938846D01*
X45078121Y6163516D01*
X44779397Y5864792D01*
X44599949Y6044554D01*
X44898516Y6343121D01*
X44673846Y6717168D01*
X43690612Y7115880D01*
X42629643Y7107975D01*
X41779000Y6755626D01*
X41779000Y15768374D01*
X41956702Y15590673D01*
X42190091Y15494000D01*
X42894250Y15494000D01*
X43053000Y15652750D01*
X43053000Y17018000D01*
X43307000Y17018000D01*
X43307000Y15652750D01*
X43465750Y15494000D01*
X44169909Y15494000D01*
X44403298Y15590673D01*
X44581927Y15769301D01*
X44678600Y16002690D01*
X44678600Y16859250D01*
X44519850Y17018000D01*
X43307000Y17018000D01*
X43053000Y17018000D01*
X43033000Y17018000D01*
X43033000Y17272000D01*
X43053000Y17272000D01*
X43053000Y18637250D01*
X43307000Y18637250D01*
X43307000Y17272000D01*
X44519850Y17272000D01*
X44678600Y17430750D01*
X44678600Y18287310D01*
X44581927Y18520699D01*
X44403298Y18699327D01*
X44169909Y18796000D01*
X43465750Y18796000D01*
X43307000Y18637250D01*
X43053000Y18637250D01*
X42894250Y18796000D01*
X42190091Y18796000D01*
X41956702Y18699327D01*
X41778073Y18520699D01*
X41714500Y18367220D01*
X41699670Y18389415D01*
X41213489Y18714271D01*
X40640000Y18828345D01*
X40066511Y18714271D01*
X39580330Y18389415D01*
X39370000Y18074634D01*
X39159670Y18389415D01*
X38673489Y18714271D01*
X38100000Y18828345D01*
X37526511Y18714271D01*
X37207000Y18500780D01*
X37207000Y23107514D01*
X37236400Y23101560D01*
X38963600Y23101560D01*
X39198917Y23145838D01*
X39415041Y23284910D01*
X39560031Y23497110D01*
X39611040Y23749000D01*
X39611040Y25781000D01*
X39566762Y26016317D01*
X39427690Y26232441D01*
X39215490Y26377431D01*
X38963600Y26428440D01*
X37236400Y26428440D01*
X37207000Y26422908D01*
X37207000Y31029220D01*
X37526511Y30815729D01*
X38100000Y30701655D01*
X38673489Y30815729D01*
X39159670Y31140585D01*
X39370000Y31455366D01*
X39580330Y31140585D01*
X40066511Y30815729D01*
X40640000Y30701655D01*
X41213489Y30815729D01*
X41699670Y31140585D01*
X41910000Y31455366D01*
X42120330Y31140585D01*
X42606511Y30815729D01*
X43180000Y30701655D01*
X43753489Y30815729D01*
X44239670Y31140585D01*
X44564526Y31626766D01*
X44678600Y32200255D01*
X44678600Y32569745D01*
X44564526Y33143234D01*
X44239670Y33629415D01*
X43753489Y33954271D01*
X43180000Y34068345D01*
X42606511Y33954271D01*
X42120330Y33629415D01*
X41910000Y33314634D01*
X41699670Y33629415D01*
X41213489Y33954271D01*
X40640000Y34068345D01*
X40066511Y33954271D01*
X39747000Y33740780D01*
X39747000Y33796420D01*
X40503787Y34553208D01*
X40503790Y34553210D01*
X40695633Y34840325D01*
X40723542Y34980633D01*
X40763001Y35179000D01*
X40763000Y35179005D01*
X40763000Y41783000D01*
X40695633Y42121675D01*
X40503790Y42408790D01*
X40216675Y42600633D01*
X39878000Y42668000D01*
X39758879Y42668000D01*
X39669271Y43118489D01*
X39344415Y43604670D01*
X39322220Y43619500D01*
X39475699Y43683073D01*
X39654327Y43861702D01*
X39751000Y44095091D01*
X39751000Y44799250D01*
X39592250Y44958000D01*
X38227000Y44958000D01*
X38227000Y44938000D01*
X37973000Y44938000D01*
X37973000Y44958000D01*
X36607750Y44958000D01*
X36449000Y44799250D01*
X36449000Y44095091D01*
X36545673Y43861702D01*
X36724301Y43683073D01*
X36877780Y43619500D01*
X36855585Y43604670D01*
X36530729Y43118489D01*
X36416655Y42545000D01*
X36530729Y41971511D01*
X36855585Y41485330D01*
X37170366Y41275000D01*
X36855585Y41064670D01*
X36530729Y40578489D01*
X36441121Y40128000D01*
X36322000Y40128000D01*
X35983325Y40060633D01*
X35696210Y39868790D01*
X35504367Y39581675D01*
X35437000Y39243000D01*
X35437000Y22654329D01*
X35328327Y22763192D01*
X35207013Y22813566D01*
X27047000Y30973580D01*
X27047000Y31029220D01*
X27366511Y30815729D01*
X27940000Y30701655D01*
X28513489Y30815729D01*
X28999670Y31140585D01*
X29324526Y31626766D01*
X29438600Y32200255D01*
X29438600Y32569745D01*
X29324526Y33143234D01*
X28999670Y33629415D01*
X28513489Y33954271D01*
X27940000Y34068345D01*
X27366511Y33954271D01*
X26880330Y33629415D01*
X26670000Y33314634D01*
X26459670Y33629415D01*
X25973489Y33954271D01*
X25400000Y34068345D01*
X24826511Y33954271D01*
X24340330Y33629415D01*
X24130000Y33314634D01*
X23919670Y33629415D01*
X23433489Y33954271D01*
X22860000Y34068345D01*
X22499869Y33996710D01*
X17951530Y38545050D01*
X17952838Y38548201D01*
X17953162Y38920167D01*
X17811117Y39263943D01*
X17548327Y39527192D01*
X17204799Y39669838D01*
X16832833Y39670162D01*
X16489057Y39528117D01*
X16225808Y39265327D01*
X16083162Y38921799D01*
X16082838Y38549833D01*
X16133000Y38428431D01*
X16133000Y38227005D01*
X16132999Y38227000D01*
X16170497Y38038489D01*
X16200367Y37888325D01*
X16259492Y37799838D01*
X16392210Y37601210D01*
X21371732Y32621689D01*
X21361400Y32569745D01*
X21361400Y32200255D01*
X21456015Y31724594D01*
X19440210Y29708790D01*
X19248367Y29421675D01*
X19248367Y29421674D01*
X19180999Y29083000D01*
X19181000Y29082995D01*
X19181000Y27734329D01*
X19072327Y27843192D01*
X18728799Y27985838D01*
X18356833Y27986162D01*
X18013057Y27844117D01*
X17749808Y27581327D01*
X17607162Y27237799D01*
X17606838Y26865833D01*
X17657000Y26744431D01*
X17657000Y26262440D01*
X17510000Y26262440D01*
X17274683Y26218162D01*
X17058559Y26079090D01*
X16913569Y25866890D01*
X16862560Y25615000D01*
X16862560Y23915000D01*
X16906838Y23679683D01*
X17045910Y23463559D01*
X17258110Y23318569D01*
X17510000Y23267560D01*
X17570981Y23267560D01*
X17305528Y23002108D01*
X17303117Y23007943D01*
X17040327Y23271192D01*
X16919013Y23321566D01*
X16157440Y24083139D01*
X16157440Y25615000D01*
X16113162Y25850317D01*
X15974090Y26066441D01*
X15761890Y26211431D01*
X15510000Y26262440D01*
X13978140Y26262440D01*
X13288744Y26951836D01*
X13239117Y27071943D01*
X12976327Y27335192D01*
X12632799Y27477838D01*
X12260833Y27478162D01*
X11917057Y27336117D01*
X11653808Y27073327D01*
X11511162Y26729799D01*
X11510838Y26357833D01*
X11652883Y26014057D01*
X11915673Y25750808D01*
X12036986Y25700434D01*
X12862560Y24874861D01*
X12862560Y24147139D01*
X8523420Y19808000D01*
X8382000Y19808000D01*
X8043325Y19740633D01*
X7756210Y19548790D01*
X7564367Y19261675D01*
X7497000Y18923000D01*
X7497000Y15367005D01*
X7496999Y15367000D01*
X7530681Y15197674D01*
X7564367Y15028325D01*
X7663512Y14879943D01*
X7756210Y14741210D01*
X8555255Y13942165D01*
X8604883Y13822057D01*
X8867673Y13558808D01*
X9211201Y13416162D01*
X9583167Y13415838D01*
X9926943Y13557883D01*
X10190192Y13820673D01*
X10332838Y14164201D01*
X10333162Y14536167D01*
X10191117Y14879943D01*
X9928327Y15143192D01*
X9807013Y15193566D01*
X9267000Y15733580D01*
X9267000Y15789220D01*
X9586511Y15575729D01*
X10160000Y15461655D01*
X10733489Y15575729D01*
X11219670Y15900585D01*
X11430000Y16215366D01*
X11640330Y15900585D01*
X12126511Y15575729D01*
X12700000Y15461655D01*
X13273489Y15575729D01*
X13759670Y15900585D01*
X13970000Y16215366D01*
X14180330Y15900585D01*
X14666511Y15575729D01*
X15240000Y15461655D01*
X15813489Y15575729D01*
X16299670Y15900585D01*
X16624526Y16386766D01*
X16641000Y16469586D01*
X16641000Y16241579D01*
X11529164Y11129744D01*
X11409057Y11080117D01*
X11145808Y10817327D01*
X11003162Y10473799D01*
X11002838Y10101833D01*
X11144883Y9758057D01*
X11407673Y9494808D01*
X11751201Y9352162D01*
X12123167Y9351838D01*
X12466943Y9493883D01*
X12730192Y9756673D01*
X12780566Y9877986D01*
X17657000Y14754421D01*
X17657000Y14657822D01*
X17607162Y14537799D01*
X17606838Y14165833D01*
X17748883Y13822057D01*
X18011673Y13558808D01*
X18355201Y13416162D01*
X18727167Y13415838D01*
X19070943Y13557883D01*
X19334192Y13820673D01*
X19476838Y14164201D01*
X19477162Y14536167D01*
X19427000Y14657569D01*
X19427000Y21096420D01*
X20691787Y22361208D01*
X20691790Y22361210D01*
X20883633Y22648325D01*
X20951000Y22987000D01*
X20951000Y25351671D01*
X21059673Y25242808D01*
X21180986Y25192434D01*
X23795255Y22578166D01*
X23844883Y22458057D01*
X24107673Y22194808D01*
X24451201Y22052162D01*
X24823167Y22051838D01*
X25166943Y22193883D01*
X25430192Y22456673D01*
X25572838Y22800201D01*
X25573162Y23172167D01*
X25431117Y23515943D01*
X25168327Y23779192D01*
X25047013Y23829566D01*
X23926835Y24949745D01*
X26441400Y24949745D01*
X26441400Y24580255D01*
X26555474Y24006766D01*
X26880330Y23520585D01*
X27366511Y23195729D01*
X27940000Y23081655D01*
X28513489Y23195729D01*
X28999670Y23520585D01*
X29324526Y24006766D01*
X29438600Y24580255D01*
X29438600Y24949745D01*
X29324526Y25523234D01*
X28999670Y26009415D01*
X28513489Y26334271D01*
X27940000Y26448345D01*
X27366511Y26334271D01*
X26880330Y26009415D01*
X26555474Y25523234D01*
X26441400Y24949745D01*
X23926835Y24949745D01*
X22432744Y26443836D01*
X22383117Y26563943D01*
X22120327Y26827192D01*
X21776799Y26969838D01*
X21404833Y26970162D01*
X21061057Y26828117D01*
X20951000Y26718252D01*
X20951000Y28716420D01*
X22955163Y30720584D01*
X23433489Y30815729D01*
X23919670Y31140585D01*
X24130000Y31455366D01*
X24340330Y31140585D01*
X24826511Y30815729D01*
X25277000Y30726121D01*
X25277000Y30607005D01*
X25276999Y30607000D01*
X25333190Y30324516D01*
X25344367Y30268325D01*
X25536210Y29981210D01*
X33169421Y22348000D01*
X33072822Y22348000D01*
X32952799Y22397838D01*
X32580833Y22398162D01*
X32237057Y22256117D01*
X31973808Y21993327D01*
X31831162Y21649799D01*
X31830838Y21277833D01*
X31972883Y20934057D01*
X32235673Y20670808D01*
X32579201Y20528162D01*
X32951167Y20527838D01*
X32955707Y20529714D01*
X33156208Y20329213D01*
X33156210Y20329210D01*
X33319515Y20220094D01*
X24737164Y11637744D01*
X24617057Y11588117D01*
X24353808Y11325327D01*
X24211162Y10981799D01*
X24210838Y10609833D01*
X24352883Y10266057D01*
X24615673Y10002808D01*
X24959201Y9860162D01*
X25331167Y9859838D01*
X25674943Y10001883D01*
X25938192Y10264673D01*
X25988566Y10385986D01*
X26269889Y10667310D01*
X26441400Y10667310D01*
X26441400Y9810750D01*
X26600150Y9652000D01*
X27813000Y9652000D01*
X27813000Y11017250D01*
X27654250Y11176000D01*
X26950091Y11176000D01*
X26716702Y11079327D01*
X26538073Y10900699D01*
X26441400Y10667310D01*
X26269889Y10667310D01*
X32389000Y16786421D01*
X32389000Y11055843D01*
X31960330Y10769415D01*
X31750000Y10454634D01*
X31539670Y10769415D01*
X31053489Y11094271D01*
X30480000Y11208345D01*
X29906511Y11094271D01*
X29420330Y10769415D01*
X29405500Y10747220D01*
X29341927Y10900699D01*
X29163298Y11079327D01*
X28929909Y11176000D01*
X28225750Y11176000D01*
X28067000Y11017250D01*
X28067000Y9652000D01*
X28087000Y9652000D01*
X28087000Y9398000D01*
X28067000Y9398000D01*
X28067000Y8032750D01*
X28225750Y7874000D01*
X28929909Y7874000D01*
X29163298Y7970673D01*
X29341927Y8149301D01*
X29405500Y8302780D01*
X29420330Y8280585D01*
X29906511Y7955729D01*
X30480000Y7841655D01*
X31053489Y7955729D01*
X31539670Y8280585D01*
X31750000Y8595366D01*
X31960330Y8280585D01*
X32446511Y7955729D01*
X33020000Y7841655D01*
X33593489Y7955729D01*
X34079670Y8280585D01*
X34290000Y8595366D01*
X34500330Y8280585D01*
X34986511Y7955729D01*
X35560000Y7841655D01*
X36133489Y7955729D01*
X36619670Y8280585D01*
X36830000Y8595366D01*
X37040330Y8280585D01*
X37526511Y7955729D01*
X38100000Y7841655D01*
X38241153Y7869732D01*
X36264373Y5892953D01*
X36020000Y5942440D01*
X34020000Y5942440D01*
X33784683Y5898162D01*
X33568559Y5759090D01*
X33423569Y5546890D01*
X33372560Y5295000D01*
X33372560Y4017139D01*
X32357164Y3001744D01*
X32237057Y2952117D01*
X31973808Y2689327D01*
X31831162Y2345799D01*
X31830838Y1973833D01*
X31972883Y1630057D01*
X32205534Y1397000D01*
X1397000Y1397000D01*
X1397000Y10160000D01*
X1491655Y10160000D01*
X1617330Y9528190D01*
X1975222Y8992567D01*
X2417000Y8697380D01*
X2417000Y4191005D01*
X2416999Y4191000D01*
X2473190Y3908516D01*
X2484367Y3852325D01*
X2612424Y3660673D01*
X2676210Y3565210D01*
X3983255Y2258166D01*
X4032883Y2138057D01*
X4295673Y1874808D01*
X4639201Y1732162D01*
X5011167Y1731838D01*
X5354943Y1873883D01*
X5618192Y2136673D01*
X5760838Y2480201D01*
X5761162Y2852167D01*
X5619117Y3195943D01*
X5356327Y3459192D01*
X5235013Y3509566D01*
X4621779Y4122801D01*
X5080000Y4031655D01*
X5653489Y4145729D01*
X6139670Y4470585D01*
X6350000Y4785366D01*
X6560330Y4470585D01*
X7046511Y4145729D01*
X7223244Y4110575D01*
X7248210Y4073210D01*
X7756208Y3565213D01*
X7756210Y3565210D01*
X8005250Y3398808D01*
X8043325Y3373367D01*
X8382000Y3306000D01*
X19558000Y3306000D01*
X19896675Y3373367D01*
X20183790Y3565210D01*
X20375633Y3852325D01*
X20406167Y4005833D01*
X27258838Y4005833D01*
X27400883Y3662057D01*
X27663673Y3398808D01*
X28007201Y3256162D01*
X28379167Y3255838D01*
X28500569Y3306000D01*
X29451382Y3306000D01*
X29555910Y3143559D01*
X29768110Y2998569D01*
X30020000Y2947560D01*
X32020000Y2947560D01*
X32255317Y2991838D01*
X32471441Y3130910D01*
X32616431Y3343110D01*
X32667440Y3595000D01*
X32667440Y5295000D01*
X32623162Y5530317D01*
X32484090Y5746441D01*
X32271890Y5891431D01*
X32020000Y5942440D01*
X30020000Y5942440D01*
X29784683Y5898162D01*
X29568559Y5759090D01*
X29423569Y5546890D01*
X29372560Y5295000D01*
X29372560Y5076000D01*
X28500822Y5076000D01*
X28380799Y5125838D01*
X28008833Y5126162D01*
X27665057Y4984117D01*
X27401808Y4721327D01*
X27259162Y4377799D01*
X27258838Y4005833D01*
X20406167Y4005833D01*
X20443000Y4191000D01*
X20443000Y4840420D01*
X23014834Y7412255D01*
X23134943Y7461883D01*
X23398192Y7724673D01*
X23540838Y8068201D01*
X23541162Y8440167D01*
X23399117Y8783943D01*
X23136327Y9047192D01*
X22792799Y9189838D01*
X22420833Y9190162D01*
X22077057Y9048117D01*
X21813808Y8785327D01*
X21763434Y8664013D01*
X21509135Y8409715D01*
X21509162Y8440167D01*
X21367117Y8783943D01*
X21104327Y9047192D01*
X20760799Y9189838D01*
X20388833Y9190162D01*
X20267431Y9140000D01*
X17018000Y9140000D01*
X16679325Y9072633D01*
X16392210Y8880790D01*
X16392208Y8880787D01*
X14868210Y7356790D01*
X14843244Y7319425D01*
X14666511Y7284271D01*
X14180330Y6959415D01*
X13973539Y6649931D01*
X13602036Y7065732D01*
X13074791Y7319709D01*
X13059026Y7322358D01*
X12827000Y7201217D01*
X12827000Y5842000D01*
X12847000Y5842000D01*
X12847000Y5588000D01*
X12827000Y5588000D01*
X12827000Y5568000D01*
X12573000Y5568000D01*
X12573000Y5588000D01*
X12553000Y5588000D01*
X12553000Y5842000D01*
X12573000Y5842000D01*
X12573000Y7201217D01*
X12340974Y7322358D01*
X12325209Y7319709D01*
X11797964Y7065732D01*
X11426461Y6649931D01*
X11219670Y6959415D01*
X10733489Y7284271D01*
X10160000Y7398345D01*
X9586511Y7284271D01*
X9100330Y6959415D01*
X8890000Y6644634D01*
X8679670Y6959415D01*
X8193489Y7284271D01*
X7620000Y7398345D01*
X7046511Y7284271D01*
X6560330Y6959415D01*
X6350000Y6644634D01*
X6139670Y6959415D01*
X5653489Y7284271D01*
X5080000Y7398345D01*
X4506511Y7284271D01*
X4187000Y7070780D01*
X4187000Y8767013D01*
X4234910Y8692559D01*
X4447110Y8547569D01*
X4699000Y8496560D01*
X6731000Y8496560D01*
X6966317Y8540838D01*
X7182441Y8679910D01*
X7327431Y8892110D01*
X7378440Y9144000D01*
X7378440Y9239250D01*
X26441400Y9239250D01*
X26441400Y8382690D01*
X26538073Y8149301D01*
X26716702Y7970673D01*
X26950091Y7874000D01*
X27654250Y7874000D01*
X27813000Y8032750D01*
X27813000Y9398000D01*
X26600150Y9398000D01*
X26441400Y9239250D01*
X7378440Y9239250D01*
X7378440Y11176000D01*
X7334162Y11411317D01*
X7195090Y11627441D01*
X6982890Y11772431D01*
X6731000Y11823440D01*
X4699000Y11823440D01*
X4463683Y11779162D01*
X4247559Y11640090D01*
X4140767Y11483794D01*
X3839155Y11685325D01*
X3207345Y11811000D01*
X3142655Y11811000D01*
X2510845Y11685325D01*
X1975222Y11327433D01*
X1617330Y10791810D01*
X1491655Y10160000D01*
X1397000Y10160000D01*
X1397000Y25275612D01*
X2409120Y25275612D01*
X2417025Y24214643D01*
X2807832Y23271154D01*
X3181879Y23046484D01*
X3480603Y23345208D01*
X3660051Y23165446D01*
X3361484Y22866879D01*
X3586154Y22492832D01*
X4569388Y22094120D01*
X5630357Y22102025D01*
X6573846Y22492832D01*
X6798516Y22866879D01*
X6499792Y23165603D01*
X6679554Y23345051D01*
X6978121Y23046484D01*
X7352168Y23271154D01*
X7750880Y24254388D01*
X7742975Y25315357D01*
X7352168Y26258846D01*
X6978121Y26483516D01*
X6679397Y26184792D01*
X6499949Y26364554D01*
X6798516Y26663121D01*
X6573846Y27037168D01*
X5590612Y27435880D01*
X4529643Y27427975D01*
X3586154Y27037168D01*
X3361484Y26663121D01*
X3660208Y26364397D01*
X3480446Y26184949D01*
X3181879Y26483516D01*
X2807832Y26258846D01*
X2409120Y25275612D01*
X1397000Y25275612D01*
X1397000Y35687000D01*
X2416999Y35687000D01*
X2450681Y35517674D01*
X2484367Y35348325D01*
X2597506Y35179000D01*
X2676210Y35061210D01*
X4491255Y33246166D01*
X4540883Y33126057D01*
X4803673Y32862808D01*
X5147201Y32720162D01*
X5519167Y32719838D01*
X5862943Y32861883D01*
X6126192Y33124673D01*
X6240933Y33401000D01*
X8648960Y33401000D01*
X8648960Y31369000D01*
X8693238Y31133683D01*
X8832310Y30917559D01*
X9044510Y30772569D01*
X9296400Y30721560D01*
X11023600Y30721560D01*
X11258917Y30765838D01*
X11475041Y30904910D01*
X11620031Y31117110D01*
X11628400Y31158439D01*
X11640330Y31140585D01*
X12126511Y30815729D01*
X12700000Y30701655D01*
X13273489Y30815729D01*
X13759670Y31140585D01*
X13970000Y31455366D01*
X14180330Y31140585D01*
X14666511Y30815729D01*
X15240000Y30701655D01*
X15813489Y30815729D01*
X16299670Y31140585D01*
X16624526Y31626766D01*
X16738600Y32200255D01*
X16738600Y32569745D01*
X16624526Y33143234D01*
X16299670Y33629415D01*
X15813489Y33954271D01*
X15240000Y34068345D01*
X14666511Y33954271D01*
X14180330Y33629415D01*
X13970000Y33314634D01*
X13759670Y33629415D01*
X13273489Y33954271D01*
X12700000Y34068345D01*
X12126511Y33954271D01*
X11640330Y33629415D01*
X11630757Y33615087D01*
X11626762Y33636317D01*
X11487690Y33852441D01*
X11275490Y33997431D01*
X11023600Y34048440D01*
X9296400Y34048440D01*
X9061083Y34004162D01*
X8844959Y33865090D01*
X8699969Y33652890D01*
X8648960Y33401000D01*
X6240933Y33401000D01*
X6268838Y33468201D01*
X6269162Y33840167D01*
X6127117Y34183943D01*
X5864327Y34447192D01*
X5743013Y34497566D01*
X4187000Y36053580D01*
X4187000Y36170522D01*
X4321766Y36080474D01*
X4895255Y35966400D01*
X5264745Y35966400D01*
X5838234Y36080474D01*
X6324415Y36405330D01*
X6649271Y36891511D01*
X6763345Y37465000D01*
X6649271Y38038489D01*
X6324415Y38524670D01*
X6009634Y38735000D01*
X6324415Y38945330D01*
X6649271Y39431511D01*
X6763345Y40005000D01*
X6649271Y40578489D01*
X6324415Y41064670D01*
X6009634Y41275000D01*
X6324415Y41485330D01*
X6649271Y41971511D01*
X6763345Y42545000D01*
X6649271Y43118489D01*
X6324415Y43604670D01*
X6302220Y43619500D01*
X6455699Y43683073D01*
X6634327Y43861702D01*
X6731000Y44095091D01*
X6731000Y44799250D01*
X6572250Y44958000D01*
X5207000Y44958000D01*
X5207000Y44938000D01*
X4953000Y44938000D01*
X4953000Y44958000D01*
X3587750Y44958000D01*
X3429000Y44799250D01*
X3429000Y44095091D01*
X3525673Y43861702D01*
X3704301Y43683073D01*
X3857780Y43619500D01*
X3835585Y43604670D01*
X3510729Y43118489D01*
X3421121Y42668000D01*
X3302000Y42668000D01*
X2963325Y42600633D01*
X2676210Y42408790D01*
X2484367Y42121675D01*
X2417000Y41783000D01*
X2417000Y35687005D01*
X2416999Y35687000D01*
X1397000Y35687000D01*
X1397000Y46074909D01*
X3429000Y46074909D01*
X3429000Y45370750D01*
X3587750Y45212000D01*
X4953000Y45212000D01*
X4953000Y46424850D01*
X5207000Y46424850D01*
X5207000Y45212000D01*
X6572250Y45212000D01*
X6731000Y45370750D01*
X6731000Y46074909D01*
X36449000Y46074909D01*
X36449000Y45370750D01*
X36607750Y45212000D01*
X37973000Y45212000D01*
X37973000Y46424850D01*
X38227000Y46424850D01*
X38227000Y45212000D01*
X39592250Y45212000D01*
X39751000Y45370750D01*
X39751000Y45595612D01*
X40509120Y45595612D01*
X40517025Y44534643D01*
X40907832Y43591154D01*
X41281879Y43366484D01*
X41580603Y43665208D01*
X41760051Y43485446D01*
X41461484Y43186879D01*
X41686154Y42812832D01*
X42669388Y42414120D01*
X43730357Y42422025D01*
X44673846Y42812832D01*
X44898516Y43186879D01*
X44599792Y43485603D01*
X44779554Y43665051D01*
X45078121Y43366484D01*
X45452168Y43591154D01*
X45850880Y44574388D01*
X45842975Y45635357D01*
X45452168Y46578846D01*
X45078121Y46803516D01*
X44779397Y46504792D01*
X44599949Y46684554D01*
X44898516Y46983121D01*
X44673846Y47357168D01*
X43690612Y47755880D01*
X42629643Y47747975D01*
X41686154Y47357168D01*
X41461484Y46983121D01*
X41760208Y46684397D01*
X41580446Y46504949D01*
X41281879Y46803516D01*
X40907832Y46578846D01*
X40509120Y45595612D01*
X39751000Y45595612D01*
X39751000Y46074909D01*
X39654327Y46308298D01*
X39475699Y46486927D01*
X39242310Y46583600D01*
X38385750Y46583600D01*
X38227000Y46424850D01*
X37973000Y46424850D01*
X37814250Y46583600D01*
X36957690Y46583600D01*
X36724301Y46486927D01*
X36545673Y46308298D01*
X36449000Y46074909D01*
X6731000Y46074909D01*
X6634327Y46308298D01*
X6455699Y46486927D01*
X6222310Y46583600D01*
X5365750Y46583600D01*
X5207000Y46424850D01*
X4953000Y46424850D01*
X4794250Y46583600D01*
X3937690Y46583600D01*
X3704301Y46486927D01*
X3525673Y46308298D01*
X3429000Y46074909D01*
X1397000Y46074909D01*
X1397000Y48133000D01*
X46863000Y48133000D01*
X46863000Y1397000D01*
M02*
