G04 #@! TF.FileFunction,Copper,L2,Bot,Signal*
%FSLAX46Y46*%
G04 Gerber Fmt 4.6, Leading zero omitted, Abs format (unit mm)*
G04 Created by KiCad (PCBNEW 4.0.1-stable) date 17/06/2016 16:01:18*
%MOMM*%
G01*
G04 APERTURE LIST*
%ADD10C,0.100000*%
%ADD11R,1.727200X2.032000*%
%ADD12O,1.727200X2.032000*%
%ADD13R,2.032000X1.727200*%
%ADD14O,2.032000X1.727200*%
%ADD15R,1.700000X2.000000*%
%ADD16R,2.000000X1.700000*%
%ADD17C,4.064000*%
%ADD18R,2.032000X2.032000*%
%ADD19O,2.032000X2.032000*%
%ADD20C,0.600000*%
%ADD21C,0.500000*%
%ADD22C,0.254000*%
G04 APERTURE END LIST*
D10*
D11*
X43180000Y17145000D03*
D12*
X40640000Y17145000D03*
X38100000Y17145000D03*
X15240000Y17145000D03*
X12700000Y17145000D03*
X10160000Y17145000D03*
D11*
X38100000Y24765000D03*
D12*
X27940000Y24765000D03*
D11*
X10160000Y32385000D03*
D12*
X12700000Y32385000D03*
X15240000Y32385000D03*
X22860000Y32385000D03*
X25400000Y32385000D03*
X27940000Y32385000D03*
X38100000Y32385000D03*
X40640000Y32385000D03*
X43180000Y32385000D03*
D13*
X5080000Y45085000D03*
D14*
X5080000Y42545000D03*
X5080000Y40005000D03*
X5080000Y37465000D03*
D13*
X38100000Y45085000D03*
D14*
X38100000Y42545000D03*
X38100000Y40005000D03*
X38100000Y37465000D03*
D11*
X27940000Y9525000D03*
D12*
X30480000Y9525000D03*
X33020000Y9525000D03*
X35560000Y9525000D03*
X38100000Y9525000D03*
D15*
X42545000Y26765000D03*
X42545000Y22765000D03*
D16*
X11970000Y12700000D03*
X15970000Y12700000D03*
D17*
X43180000Y4445000D03*
X5080000Y24765000D03*
D11*
X17780000Y5715000D03*
D12*
X15240000Y5715000D03*
X12700000Y5715000D03*
X10160000Y5715000D03*
X7620000Y5715000D03*
X5080000Y5715000D03*
D17*
X43180000Y45085000D03*
D18*
X5715000Y10160000D03*
D19*
X3175000Y10160000D03*
D20*
X12446000Y26543000D03*
X5334000Y33655000D03*
X20574000Y8255000D03*
X28194000Y4191000D03*
X9398000Y14351000D03*
X16510000Y22479000D03*
X4826000Y2667000D03*
X32766000Y2159000D03*
X11938000Y10287000D03*
X18542000Y27051000D03*
X17018000Y38735000D03*
X18542000Y14351000D03*
X34798000Y21971000D03*
X21590000Y26035000D03*
X24638000Y22987000D03*
X32766000Y21463000D03*
X38354000Y4191000D03*
X34290000Y19939000D03*
X25146000Y10795000D03*
X22606000Y8255000D03*
D21*
X43180000Y4445000D02*
X39878000Y7747000D01*
X39878000Y7747000D02*
X28702000Y7747000D01*
X28702000Y7747000D02*
X28702000Y8763000D01*
X28702000Y8763000D02*
X27940000Y9525000D01*
X43180000Y45085000D02*
X43434000Y44831000D01*
X43434000Y44831000D02*
X38354000Y44831000D01*
X38354000Y44831000D02*
X38100000Y45085000D01*
X12446000Y26543000D02*
X5334000Y33655000D01*
X42545000Y26765000D02*
X42418000Y26543000D01*
X42418000Y26543000D02*
X42418000Y27051000D01*
X42418000Y27051000D02*
X38862000Y30607000D01*
X38862000Y30607000D02*
X38862000Y31623000D01*
X38862000Y31623000D02*
X38100000Y32385000D01*
X11970000Y12700000D02*
X11938000Y12827000D01*
X11938000Y12827000D02*
X16510000Y8255000D01*
X16510000Y8255000D02*
X20574000Y8255000D01*
X27940000Y24765000D02*
X28702000Y25019000D01*
X28702000Y25019000D02*
X30226000Y26543000D01*
X30226000Y26543000D02*
X42418000Y26543000D01*
X42418000Y26543000D02*
X42545000Y26765000D01*
X15240000Y5715000D02*
X15494000Y5715000D01*
X15494000Y5715000D02*
X15494000Y5207000D01*
X15494000Y5207000D02*
X16002000Y4699000D01*
X16002000Y4699000D02*
X16002000Y4191000D01*
X16002000Y4191000D02*
X28194000Y4191000D01*
X11970000Y12700000D02*
X11938000Y12827000D01*
X11938000Y12827000D02*
X10414000Y14351000D01*
X10414000Y14351000D02*
X9398000Y14351000D01*
X16510000Y22479000D02*
X18542000Y24511000D01*
X18542000Y24511000D02*
X28194000Y24511000D01*
X28194000Y24511000D02*
X27940000Y24765000D01*
X4826000Y2667000D02*
X5334000Y2159000D01*
X5334000Y2159000D02*
X32766000Y2159000D01*
X5715000Y10160000D02*
X5842000Y10287000D01*
X5842000Y10287000D02*
X11938000Y10287000D01*
X18542000Y27051000D02*
X22098000Y30607000D01*
X22098000Y30607000D02*
X29718000Y30607000D01*
X29718000Y30607000D02*
X36322000Y37211000D01*
X36322000Y37211000D02*
X38354000Y37211000D01*
X38354000Y37211000D02*
X38100000Y37465000D01*
X17018000Y38735000D02*
X16002000Y39751000D01*
X16002000Y39751000D02*
X5334000Y39751000D01*
X5334000Y39751000D02*
X5080000Y40005000D01*
X18542000Y14351000D02*
X17018000Y12827000D01*
X17018000Y12827000D02*
X16002000Y12827000D01*
X16002000Y12827000D02*
X15970000Y12700000D01*
X34798000Y21971000D02*
X35814000Y22987000D01*
X35814000Y22987000D02*
X42418000Y22987000D01*
X42418000Y22987000D02*
X42545000Y22765000D01*
X25400000Y32385000D02*
X25654000Y32131000D01*
X25654000Y32131000D02*
X25654000Y33147000D01*
X25654000Y33147000D02*
X21590000Y37211000D01*
X21590000Y37211000D02*
X5334000Y37211000D01*
X5334000Y37211000D02*
X5080000Y37465000D01*
X30480000Y9525000D02*
X30734000Y9271000D01*
X30734000Y9271000D02*
X30734000Y10287000D01*
X30734000Y10287000D02*
X24130000Y16891000D01*
X24130000Y16891000D02*
X15494000Y16891000D01*
X15494000Y16891000D02*
X15240000Y17145000D01*
X10160000Y32385000D02*
X10414000Y32131000D01*
X10414000Y32131000D02*
X10414000Y31115000D01*
X10414000Y31115000D02*
X15494000Y26035000D01*
X15494000Y26035000D02*
X21590000Y26035000D01*
X24638000Y22987000D02*
X26162000Y21463000D01*
X26162000Y21463000D02*
X32766000Y21463000D01*
X12700000Y17145000D02*
X12954000Y16891000D01*
X12954000Y16891000D02*
X12954000Y17907000D01*
X12954000Y17907000D02*
X13462000Y18415000D01*
X13462000Y18415000D02*
X13462000Y18923000D01*
X13462000Y18923000D02*
X17018000Y18923000D01*
X17018000Y18923000D02*
X18034000Y17907000D01*
X18034000Y17907000D02*
X24638000Y17907000D01*
X24638000Y17907000D02*
X31242000Y11303000D01*
X31242000Y11303000D02*
X34798000Y11303000D01*
X34798000Y11303000D02*
X34798000Y10287000D01*
X34798000Y10287000D02*
X35560000Y9525000D01*
X38100000Y9525000D02*
X38354000Y9271000D01*
X38354000Y9271000D02*
X38354000Y10287000D01*
X38354000Y10287000D02*
X28702000Y19939000D01*
X28702000Y19939000D02*
X12954000Y19939000D01*
X12954000Y19939000D02*
X11938000Y18923000D01*
X11938000Y18923000D02*
X10922000Y18923000D01*
X10922000Y18923000D02*
X10922000Y17399000D01*
X10922000Y17399000D02*
X10414000Y16891000D01*
X10414000Y16891000D02*
X10160000Y17145000D01*
X5080000Y5715000D02*
X5334000Y5715000D01*
X5334000Y5715000D02*
X5334000Y6223000D01*
X5334000Y6223000D02*
X5842000Y6731000D01*
X5842000Y6731000D02*
X5842000Y7239000D01*
X5842000Y7239000D02*
X17018000Y7239000D01*
X17018000Y7239000D02*
X17018000Y6731000D01*
X17018000Y6731000D02*
X18034000Y5715000D01*
X18034000Y5715000D02*
X17780000Y5715000D01*
X10160000Y5715000D02*
X10414000Y5715000D01*
X10414000Y5715000D02*
X10414000Y4699000D01*
X10414000Y4699000D02*
X11938000Y3175000D01*
X11938000Y3175000D02*
X29210000Y3175000D01*
X29210000Y3175000D02*
X30226000Y4191000D01*
X30226000Y4191000D02*
X38354000Y4191000D01*
X38100000Y17145000D02*
X35306000Y19939000D01*
X35306000Y19939000D02*
X34290000Y19939000D01*
X25146000Y10795000D02*
X22606000Y8255000D01*
D22*
G36*
X46863000Y1397000D02*
X33326114Y1397000D01*
X33558192Y1628673D01*
X33700838Y1972201D01*
X33701162Y2344167D01*
X33559117Y2687943D01*
X33296327Y2951192D01*
X32952799Y3093838D01*
X32580833Y3094162D01*
X32459431Y3044000D01*
X30330580Y3044000D01*
X30592579Y3306000D01*
X38047178Y3306000D01*
X38167201Y3256162D01*
X38539167Y3255838D01*
X38882943Y3397883D01*
X39146192Y3660673D01*
X39288838Y4004201D01*
X39289162Y4376167D01*
X39147117Y4719943D01*
X38911859Y4955612D01*
X40509120Y4955612D01*
X40517025Y3894643D01*
X40907832Y2951154D01*
X41281879Y2726484D01*
X41580603Y3025208D01*
X41760051Y2845446D01*
X41461484Y2546879D01*
X41686154Y2172832D01*
X42669388Y1774120D01*
X43730357Y1782025D01*
X44673846Y2172832D01*
X44898516Y2546879D01*
X44599792Y2845603D01*
X44779554Y3025051D01*
X45078121Y2726484D01*
X45452168Y2951154D01*
X45850880Y3934388D01*
X45842975Y4995357D01*
X45452168Y5938846D01*
X45078121Y6163516D01*
X44779397Y5864792D01*
X44599949Y6044554D01*
X44898516Y6343121D01*
X44673846Y6717168D01*
X43690612Y7115880D01*
X42629643Y7107975D01*
X41686154Y6717168D01*
X41461484Y6343121D01*
X41760208Y6044397D01*
X41580446Y5864949D01*
X41281879Y6163516D01*
X40907832Y5938846D01*
X40509120Y4955612D01*
X38911859Y4955612D01*
X38884327Y4983192D01*
X38540799Y5125838D01*
X38168833Y5126162D01*
X38047431Y5076000D01*
X30226005Y5076000D01*
X30226000Y5076001D01*
X29943516Y5019810D01*
X29887325Y5008633D01*
X29600210Y4816790D01*
X29600208Y4816787D01*
X29129135Y4345715D01*
X29129162Y4376167D01*
X28987117Y4719943D01*
X28724327Y4983192D01*
X28380799Y5125838D01*
X28008833Y5126162D01*
X27887431Y5076000D01*
X19291040Y5076000D01*
X19291040Y6731000D01*
X19246762Y6966317D01*
X19107690Y7182441D01*
X18895490Y7327431D01*
X18685278Y7370000D01*
X20267178Y7370000D01*
X20387201Y7320162D01*
X20759167Y7319838D01*
X21102943Y7461883D01*
X21366192Y7724673D01*
X21508838Y8068201D01*
X21508839Y8069833D01*
X21670838Y8069833D01*
X21812883Y7726057D01*
X22075673Y7462808D01*
X22419201Y7320162D01*
X22791167Y7319838D01*
X23134943Y7461883D01*
X23398192Y7724673D01*
X23448566Y7845986D01*
X24841829Y9239250D01*
X26441400Y9239250D01*
X26441400Y8382690D01*
X26538073Y8149301D01*
X26716702Y7970673D01*
X26950091Y7874000D01*
X27654250Y7874000D01*
X27813000Y8032750D01*
X27813000Y9398000D01*
X26600150Y9398000D01*
X26441400Y9239250D01*
X24841829Y9239250D01*
X25554834Y9952255D01*
X25674943Y10001883D01*
X25938192Y10264673D01*
X26080838Y10608201D01*
X26080889Y10667310D01*
X26441400Y10667310D01*
X26441400Y9810750D01*
X26600150Y9652000D01*
X27813000Y9652000D01*
X27813000Y11017250D01*
X27654250Y11176000D01*
X26950091Y11176000D01*
X26716702Y11079327D01*
X26538073Y10900699D01*
X26441400Y10667310D01*
X26080889Y10667310D01*
X26081162Y10980167D01*
X25939117Y11323943D01*
X25676327Y11587192D01*
X25332799Y11729838D01*
X24960833Y11730162D01*
X24617057Y11588117D01*
X24353808Y11325327D01*
X24303434Y11204013D01*
X22197164Y9097744D01*
X22077057Y9048117D01*
X21813808Y8785327D01*
X21671162Y8441799D01*
X21670838Y8069833D01*
X21508839Y8069833D01*
X21509162Y8440167D01*
X21367117Y8783943D01*
X21104327Y9047192D01*
X20760799Y9189838D01*
X20388833Y9190162D01*
X20267431Y9140000D01*
X16876579Y9140000D01*
X14774412Y11242168D01*
X14970000Y11202560D01*
X16970000Y11202560D01*
X17205317Y11246838D01*
X17421441Y11385910D01*
X17566431Y11598110D01*
X17617440Y11850000D01*
X17617440Y12183604D01*
X17643790Y12201210D01*
X17643791Y12201211D01*
X18950834Y13508255D01*
X19070943Y13557883D01*
X19334192Y13820673D01*
X19476838Y14164201D01*
X19477162Y14536167D01*
X19335117Y14879943D01*
X19072327Y15143192D01*
X18728799Y15285838D01*
X18356833Y15286162D01*
X18013057Y15144117D01*
X17749808Y14881327D01*
X17699434Y14760013D01*
X17108761Y14169340D01*
X16970000Y14197440D01*
X14970000Y14197440D01*
X14734683Y14153162D01*
X14518559Y14014090D01*
X14373569Y13801890D01*
X14322560Y13550000D01*
X14322560Y11850000D01*
X14358712Y11657867D01*
X13617440Y12399140D01*
X13617440Y13550000D01*
X13573162Y13785317D01*
X13434090Y14001441D01*
X13221890Y14146431D01*
X12970000Y14197440D01*
X11819139Y14197440D01*
X11039790Y14976790D01*
X10790750Y15143192D01*
X10752675Y15168633D01*
X10696484Y15179810D01*
X10414000Y15236001D01*
X10413995Y15236000D01*
X9704822Y15236000D01*
X9584799Y15285838D01*
X9212833Y15286162D01*
X8869057Y15144117D01*
X8605808Y14881327D01*
X8463162Y14537799D01*
X8462838Y14165833D01*
X8604883Y13822057D01*
X8867673Y13558808D01*
X9211201Y13416162D01*
X9583167Y13415838D01*
X9704569Y13466000D01*
X10047420Y13466000D01*
X10322560Y13190860D01*
X10322560Y11850000D01*
X10366838Y11614683D01*
X10505910Y11398559D01*
X10718110Y11253569D01*
X10970000Y11202560D01*
X11705392Y11202560D01*
X11631431Y11172000D01*
X7378440Y11172000D01*
X7378440Y11176000D01*
X7334162Y11411317D01*
X7195090Y11627441D01*
X6982890Y11772431D01*
X6731000Y11823440D01*
X4699000Y11823440D01*
X4463683Y11779162D01*
X4247559Y11640090D01*
X4140767Y11483794D01*
X3839155Y11685325D01*
X3207345Y11811000D01*
X3142655Y11811000D01*
X2510845Y11685325D01*
X1975222Y11327433D01*
X1617330Y10791810D01*
X1491655Y10160000D01*
X1617330Y9528190D01*
X1975222Y8992567D01*
X2510845Y8634675D01*
X3142655Y8509000D01*
X3207345Y8509000D01*
X3839155Y8634675D01*
X4141962Y8837004D01*
X4234910Y8692559D01*
X4447110Y8547569D01*
X4699000Y8496560D01*
X6731000Y8496560D01*
X6966317Y8540838D01*
X7182441Y8679910D01*
X7327431Y8892110D01*
X7378440Y9144000D01*
X7378440Y9402000D01*
X11631178Y9402000D01*
X11751201Y9352162D01*
X12123167Y9351838D01*
X12466943Y9493883D01*
X12730192Y9756673D01*
X12872838Y10100201D01*
X12873162Y10472167D01*
X12754804Y10758617D01*
X15389421Y8124000D01*
X5842000Y8124000D01*
X5503325Y8056633D01*
X5216210Y7864790D01*
X5024367Y7577675D01*
X4984934Y7379435D01*
X4506511Y7284271D01*
X4020330Y6959415D01*
X3695474Y6473234D01*
X3581400Y5899745D01*
X3581400Y5530255D01*
X3695474Y4956766D01*
X4020330Y4470585D01*
X4506511Y4145729D01*
X5080000Y4031655D01*
X5653489Y4145729D01*
X6139670Y4470585D01*
X6350000Y4785366D01*
X6560330Y4470585D01*
X7046511Y4145729D01*
X7620000Y4031655D01*
X8193489Y4145729D01*
X8679670Y4470585D01*
X8890000Y4785366D01*
X9100330Y4470585D01*
X9586511Y4145729D01*
X9763244Y4110575D01*
X9788210Y4073210D01*
X10817421Y3044000D01*
X5700580Y3044000D01*
X5668744Y3075835D01*
X5619117Y3195943D01*
X5356327Y3459192D01*
X5012799Y3601838D01*
X4640833Y3602162D01*
X4297057Y3460117D01*
X4033808Y3197327D01*
X3891162Y2853799D01*
X3890838Y2481833D01*
X4032883Y2138057D01*
X4295673Y1874808D01*
X4416986Y1824434D01*
X4708208Y1533213D01*
X4708210Y1533210D01*
X4912064Y1397000D01*
X1397000Y1397000D01*
X1397000Y25275612D01*
X2409120Y25275612D01*
X2417025Y24214643D01*
X2807832Y23271154D01*
X3181879Y23046484D01*
X3480603Y23345208D01*
X3660051Y23165446D01*
X3361484Y22866879D01*
X3586154Y22492832D01*
X4569388Y22094120D01*
X5630357Y22102025D01*
X6573846Y22492832D01*
X6798516Y22866879D01*
X6499792Y23165603D01*
X6679554Y23345051D01*
X6978121Y23046484D01*
X7352168Y23271154D01*
X7750880Y24254388D01*
X7742975Y25315357D01*
X7352168Y26258846D01*
X6978121Y26483516D01*
X6679397Y26184792D01*
X6499949Y26364554D01*
X6798516Y26663121D01*
X6573846Y27037168D01*
X5590612Y27435880D01*
X4529643Y27427975D01*
X3586154Y27037168D01*
X3361484Y26663121D01*
X3660208Y26364397D01*
X3480446Y26184949D01*
X3181879Y26483516D01*
X2807832Y26258846D01*
X2409120Y25275612D01*
X1397000Y25275612D01*
X1397000Y42545000D01*
X3396655Y42545000D01*
X3510729Y41971511D01*
X3835585Y41485330D01*
X4150366Y41275000D01*
X3835585Y41064670D01*
X3510729Y40578489D01*
X3396655Y40005000D01*
X3510729Y39431511D01*
X3835585Y38945330D01*
X4150366Y38735000D01*
X3835585Y38524670D01*
X3510729Y38038489D01*
X3396655Y37465000D01*
X3510729Y36891511D01*
X3835585Y36405330D01*
X4321766Y36080474D01*
X4895255Y35966400D01*
X5264745Y35966400D01*
X5838234Y36080474D01*
X6205689Y36326000D01*
X21223420Y36326000D01*
X24171972Y33377449D01*
X24130000Y33314634D01*
X23919670Y33629415D01*
X23433489Y33954271D01*
X22860000Y34068345D01*
X22286511Y33954271D01*
X21800330Y33629415D01*
X21475474Y33143234D01*
X21361400Y32569745D01*
X21361400Y32200255D01*
X21475474Y31626766D01*
X21656460Y31355901D01*
X21472210Y31232790D01*
X21472208Y31232787D01*
X18133164Y27893744D01*
X18013057Y27844117D01*
X17749808Y27581327D01*
X17607162Y27237799D01*
X17606885Y26920000D01*
X15860579Y26920000D01*
X11627346Y31153234D01*
X11628400Y31158439D01*
X11640330Y31140585D01*
X12126511Y30815729D01*
X12700000Y30701655D01*
X13273489Y30815729D01*
X13759670Y31140585D01*
X13970000Y31455366D01*
X14180330Y31140585D01*
X14666511Y30815729D01*
X15240000Y30701655D01*
X15813489Y30815729D01*
X16299670Y31140585D01*
X16624526Y31626766D01*
X16738600Y32200255D01*
X16738600Y32569745D01*
X16624526Y33143234D01*
X16299670Y33629415D01*
X15813489Y33954271D01*
X15240000Y34068345D01*
X14666511Y33954271D01*
X14180330Y33629415D01*
X13970000Y33314634D01*
X13759670Y33629415D01*
X13273489Y33954271D01*
X12700000Y34068345D01*
X12126511Y33954271D01*
X11640330Y33629415D01*
X11630757Y33615087D01*
X11626762Y33636317D01*
X11487690Y33852441D01*
X11275490Y33997431D01*
X11023600Y34048440D01*
X9296400Y34048440D01*
X9061083Y34004162D01*
X8844959Y33865090D01*
X8699969Y33652890D01*
X8648960Y33401000D01*
X8648960Y31591620D01*
X6176744Y34063836D01*
X6127117Y34183943D01*
X5864327Y34447192D01*
X5520799Y34589838D01*
X5148833Y34590162D01*
X4805057Y34448117D01*
X4541808Y34185327D01*
X4399162Y33841799D01*
X4398838Y33469833D01*
X4540883Y33126057D01*
X4803673Y32862808D01*
X4924986Y32812434D01*
X11603255Y26134166D01*
X11652883Y26014057D01*
X11915673Y25750808D01*
X12259201Y25608162D01*
X12631167Y25607838D01*
X12974943Y25749883D01*
X13238192Y26012673D01*
X13380838Y26356201D01*
X13381162Y26728167D01*
X13262803Y27014617D01*
X14868208Y25409213D01*
X14868210Y25409210D01*
X15155325Y25217367D01*
X15211516Y25206190D01*
X15494000Y25149999D01*
X15494005Y25150000D01*
X17935980Y25150000D01*
X17916210Y25136790D01*
X17916208Y25136787D01*
X16101164Y23321744D01*
X15981057Y23272117D01*
X15717808Y23009327D01*
X15575162Y22665799D01*
X15574838Y22293833D01*
X15716883Y21950057D01*
X15979673Y21686808D01*
X16323201Y21544162D01*
X16695167Y21543838D01*
X17038943Y21685883D01*
X17302192Y21948673D01*
X17352566Y22069986D01*
X18908579Y23626000D01*
X23954671Y23626000D01*
X23845808Y23517327D01*
X23703162Y23173799D01*
X23702838Y22801833D01*
X23844883Y22458057D01*
X24107673Y22194808D01*
X24228986Y22144434D01*
X25536208Y20837213D01*
X25536210Y20837210D01*
X25555980Y20824000D01*
X12954005Y20824000D01*
X12954000Y20824001D01*
X12671516Y20767810D01*
X12615325Y20756633D01*
X12328210Y20564790D01*
X12328208Y20564787D01*
X11571420Y19808000D01*
X10922000Y19808000D01*
X10583325Y19740633D01*
X10296210Y19548790D01*
X10104367Y19261675D01*
X10037000Y18923000D01*
X10037000Y18803879D01*
X9586511Y18714271D01*
X9100330Y18389415D01*
X8775474Y17903234D01*
X8661400Y17329745D01*
X8661400Y16960255D01*
X8775474Y16386766D01*
X9100330Y15900585D01*
X9586511Y15575729D01*
X10160000Y15461655D01*
X10733489Y15575729D01*
X11219670Y15900585D01*
X11430000Y16215366D01*
X11640330Y15900585D01*
X12126511Y15575729D01*
X12700000Y15461655D01*
X13273489Y15575729D01*
X13759670Y15900585D01*
X13970000Y16215366D01*
X14180330Y15900585D01*
X14666511Y15575729D01*
X15240000Y15461655D01*
X15813489Y15575729D01*
X16299670Y15900585D01*
X16370106Y16006000D01*
X23763420Y16006000D01*
X28593421Y11176000D01*
X28225750Y11176000D01*
X28067000Y11017250D01*
X28067000Y9652000D01*
X28087000Y9652000D01*
X28087000Y9398000D01*
X28067000Y9398000D01*
X28067000Y8032750D01*
X28225750Y7874000D01*
X28929909Y7874000D01*
X29163298Y7970673D01*
X29341927Y8149301D01*
X29405500Y8302780D01*
X29420330Y8280585D01*
X29906511Y7955729D01*
X30480000Y7841655D01*
X31053489Y7955729D01*
X31539670Y8280585D01*
X31750000Y8595366D01*
X31960330Y8280585D01*
X32446511Y7955729D01*
X33020000Y7841655D01*
X33593489Y7955729D01*
X34079670Y8280585D01*
X34290000Y8595366D01*
X34500330Y8280585D01*
X34986511Y7955729D01*
X35560000Y7841655D01*
X36133489Y7955729D01*
X36619670Y8280585D01*
X36830000Y8595366D01*
X37040330Y8280585D01*
X37526511Y7955729D01*
X38100000Y7841655D01*
X38673489Y7955729D01*
X39159670Y8280585D01*
X39484526Y8766766D01*
X39598600Y9340255D01*
X39598600Y9709745D01*
X39484526Y10283234D01*
X39159670Y10769415D01*
X39007774Y10870909D01*
X38979790Y10912790D01*
X38979787Y10912792D01*
X30138747Y19753833D01*
X33354838Y19753833D01*
X33496883Y19410057D01*
X33759673Y19146808D01*
X34103201Y19004162D01*
X34475167Y19003838D01*
X34596569Y19054000D01*
X34939420Y19054000D01*
X36611732Y17381688D01*
X36601400Y17329745D01*
X36601400Y16960255D01*
X36715474Y16386766D01*
X37040330Y15900585D01*
X37526511Y15575729D01*
X38100000Y15461655D01*
X38673489Y15575729D01*
X39159670Y15900585D01*
X39370000Y16215366D01*
X39580330Y15900585D01*
X40066511Y15575729D01*
X40640000Y15461655D01*
X41213489Y15575729D01*
X41699670Y15900585D01*
X41714500Y15922780D01*
X41778073Y15769301D01*
X41956702Y15590673D01*
X42190091Y15494000D01*
X42894250Y15494000D01*
X43053000Y15652750D01*
X43053000Y17018000D01*
X43307000Y17018000D01*
X43307000Y15652750D01*
X43465750Y15494000D01*
X44169909Y15494000D01*
X44403298Y15590673D01*
X44581927Y15769301D01*
X44678600Y16002690D01*
X44678600Y16859250D01*
X44519850Y17018000D01*
X43307000Y17018000D01*
X43053000Y17018000D01*
X43033000Y17018000D01*
X43033000Y17272000D01*
X43053000Y17272000D01*
X43053000Y18637250D01*
X43307000Y18637250D01*
X43307000Y17272000D01*
X44519850Y17272000D01*
X44678600Y17430750D01*
X44678600Y18287310D01*
X44581927Y18520699D01*
X44403298Y18699327D01*
X44169909Y18796000D01*
X43465750Y18796000D01*
X43307000Y18637250D01*
X43053000Y18637250D01*
X42894250Y18796000D01*
X42190091Y18796000D01*
X41956702Y18699327D01*
X41778073Y18520699D01*
X41714500Y18367220D01*
X41699670Y18389415D01*
X41213489Y18714271D01*
X40640000Y18828345D01*
X40066511Y18714271D01*
X39580330Y18389415D01*
X39370000Y18074634D01*
X39159670Y18389415D01*
X38673489Y18714271D01*
X38100000Y18828345D01*
X37739869Y18756710D01*
X35931790Y20564790D01*
X35774506Y20669883D01*
X35644675Y20756633D01*
X35588484Y20767810D01*
X35306000Y20824001D01*
X35305995Y20824000D01*
X34596822Y20824000D01*
X34476799Y20873838D01*
X34104833Y20874162D01*
X33761057Y20732117D01*
X33497808Y20469327D01*
X33355162Y20125799D01*
X33354838Y19753833D01*
X30138747Y19753833D01*
X29327790Y20564790D01*
X29308020Y20578000D01*
X32459178Y20578000D01*
X32579201Y20528162D01*
X32951167Y20527838D01*
X33294943Y20669883D01*
X33558192Y20932673D01*
X33700838Y21276201D01*
X33701162Y21648167D01*
X33559117Y21991943D01*
X33296327Y22255192D01*
X32952799Y22397838D01*
X32580833Y22398162D01*
X32459431Y22348000D01*
X26528579Y22348000D01*
X25480744Y23395836D01*
X25431117Y23515943D01*
X25321252Y23626000D01*
X26809894Y23626000D01*
X26880330Y23520585D01*
X27366511Y23195729D01*
X27940000Y23081655D01*
X28513489Y23195729D01*
X28999670Y23520585D01*
X29324526Y24006766D01*
X29419671Y24485091D01*
X30592579Y25658000D01*
X36588960Y25658000D01*
X36588960Y23872000D01*
X35814005Y23872000D01*
X35814000Y23872001D01*
X35531516Y23815810D01*
X35475325Y23804633D01*
X35188210Y23612790D01*
X35188208Y23612787D01*
X34389164Y22813744D01*
X34269057Y22764117D01*
X34005808Y22501327D01*
X33863162Y22157799D01*
X33862838Y21785833D01*
X34004883Y21442057D01*
X34267673Y21178808D01*
X34611201Y21036162D01*
X34983167Y21035838D01*
X35326943Y21177883D01*
X35590192Y21440673D01*
X35640566Y21561986D01*
X36180579Y22102000D01*
X41047560Y22102000D01*
X41047560Y21765000D01*
X41091838Y21529683D01*
X41230910Y21313559D01*
X41443110Y21168569D01*
X41695000Y21117560D01*
X43395000Y21117560D01*
X43630317Y21161838D01*
X43846441Y21300910D01*
X43991431Y21513110D01*
X44042440Y21765000D01*
X44042440Y23765000D01*
X43998162Y24000317D01*
X43859090Y24216441D01*
X43646890Y24361431D01*
X43395000Y24412440D01*
X41695000Y24412440D01*
X41459683Y24368162D01*
X41243559Y24229090D01*
X41098569Y24016890D01*
X41069228Y23872000D01*
X39611040Y23872000D01*
X39611040Y25658000D01*
X41067693Y25658000D01*
X41091838Y25529683D01*
X41230910Y25313559D01*
X41443110Y25168569D01*
X41695000Y25117560D01*
X43395000Y25117560D01*
X43630317Y25161838D01*
X43846441Y25300910D01*
X43991431Y25513110D01*
X44042440Y25765000D01*
X44042440Y27765000D01*
X43998162Y28000317D01*
X43859090Y28216441D01*
X43646890Y28361431D01*
X43395000Y28412440D01*
X42308139Y28412440D01*
X39747000Y30973580D01*
X39747000Y31029220D01*
X40066511Y30815729D01*
X40640000Y30701655D01*
X41213489Y30815729D01*
X41699670Y31140585D01*
X41910000Y31455366D01*
X42120330Y31140585D01*
X42606511Y30815729D01*
X43180000Y30701655D01*
X43753489Y30815729D01*
X44239670Y31140585D01*
X44564526Y31626766D01*
X44678600Y32200255D01*
X44678600Y32569745D01*
X44564526Y33143234D01*
X44239670Y33629415D01*
X43753489Y33954271D01*
X43180000Y34068345D01*
X42606511Y33954271D01*
X42120330Y33629415D01*
X41910000Y33314634D01*
X41699670Y33629415D01*
X41213489Y33954271D01*
X40640000Y34068345D01*
X40066511Y33954271D01*
X39580330Y33629415D01*
X39370000Y33314634D01*
X39159670Y33629415D01*
X38673489Y33954271D01*
X38100000Y34068345D01*
X37526511Y33954271D01*
X37040330Y33629415D01*
X36715474Y33143234D01*
X36601400Y32569745D01*
X36601400Y32200255D01*
X36715474Y31626766D01*
X37040330Y31140585D01*
X37526511Y30815729D01*
X37977000Y30726121D01*
X37977000Y30607005D01*
X37976999Y30607000D01*
X38033190Y30324516D01*
X38044367Y30268325D01*
X38069975Y30230000D01*
X38236210Y29981210D01*
X40789421Y27428000D01*
X30226000Y27428000D01*
X29887325Y27360633D01*
X29600210Y27168790D01*
X29600208Y27168787D01*
X28664673Y26233253D01*
X28513489Y26334271D01*
X27940000Y26448345D01*
X27366511Y26334271D01*
X26880330Y26009415D01*
X26555474Y25523234D01*
X26530166Y25396000D01*
X22273329Y25396000D01*
X22382192Y25504673D01*
X22524838Y25848201D01*
X22525162Y26220167D01*
X22383117Y26563943D01*
X22120327Y26827192D01*
X21776799Y26969838D01*
X21404833Y26970162D01*
X21283431Y26920000D01*
X19662580Y26920000D01*
X22464579Y29722000D01*
X29717995Y29722000D01*
X29718000Y29721999D01*
X30000484Y29778190D01*
X30056675Y29789367D01*
X30343790Y29981210D01*
X36688579Y36326000D01*
X36974311Y36326000D01*
X37341766Y36080474D01*
X37915255Y35966400D01*
X38284745Y35966400D01*
X38858234Y36080474D01*
X39344415Y36405330D01*
X39669271Y36891511D01*
X39783345Y37465000D01*
X39669271Y38038489D01*
X39344415Y38524670D01*
X39029634Y38735000D01*
X39344415Y38945330D01*
X39669271Y39431511D01*
X39783345Y40005000D01*
X39669271Y40578489D01*
X39344415Y41064670D01*
X39029634Y41275000D01*
X39344415Y41485330D01*
X39669271Y41971511D01*
X39783345Y42545000D01*
X39669271Y43118489D01*
X39344415Y43604670D01*
X39322220Y43619500D01*
X39475699Y43683073D01*
X39654327Y43861702D01*
X39751000Y44095091D01*
X39751000Y44799250D01*
X39592250Y44958000D01*
X38227000Y44958000D01*
X38227000Y44938000D01*
X37973000Y44938000D01*
X37973000Y44958000D01*
X36607750Y44958000D01*
X36449000Y44799250D01*
X36449000Y44095091D01*
X36545673Y43861702D01*
X36724301Y43683073D01*
X36877780Y43619500D01*
X36855585Y43604670D01*
X36530729Y43118489D01*
X36416655Y42545000D01*
X36530729Y41971511D01*
X36855585Y41485330D01*
X37170366Y41275000D01*
X36855585Y41064670D01*
X36530729Y40578489D01*
X36416655Y40005000D01*
X36530729Y39431511D01*
X36855585Y38945330D01*
X37170366Y38735000D01*
X36855585Y38524670D01*
X36569157Y38096000D01*
X36322000Y38096000D01*
X35983325Y38028633D01*
X35696210Y37836790D01*
X35696208Y37836787D01*
X29351420Y31492000D01*
X29234478Y31492000D01*
X29324526Y31626766D01*
X29438600Y32200255D01*
X29438600Y32569745D01*
X29324526Y33143234D01*
X28999670Y33629415D01*
X28513489Y33954271D01*
X27940000Y34068345D01*
X27366511Y33954271D01*
X26880330Y33629415D01*
X26670000Y33314634D01*
X26459670Y33629415D01*
X26307774Y33730909D01*
X26279790Y33772790D01*
X26279787Y33772792D01*
X22215790Y37836790D01*
X22058506Y37941883D01*
X21928675Y38028633D01*
X21872484Y38039810D01*
X21590000Y38096001D01*
X21589995Y38096000D01*
X17701329Y38096000D01*
X17810192Y38204673D01*
X17952838Y38548201D01*
X17953162Y38920167D01*
X17811117Y39263943D01*
X17548327Y39527192D01*
X17427013Y39577566D01*
X16627790Y40376790D01*
X16340675Y40568633D01*
X16284484Y40579810D01*
X16002000Y40636001D01*
X16001995Y40636000D01*
X6610843Y40636000D01*
X6324415Y41064670D01*
X6009634Y41275000D01*
X6324415Y41485330D01*
X6649271Y41971511D01*
X6763345Y42545000D01*
X6649271Y43118489D01*
X6324415Y43604670D01*
X6302220Y43619500D01*
X6455699Y43683073D01*
X6634327Y43861702D01*
X6731000Y44095091D01*
X6731000Y44799250D01*
X6572250Y44958000D01*
X5207000Y44958000D01*
X5207000Y44938000D01*
X4953000Y44938000D01*
X4953000Y44958000D01*
X3587750Y44958000D01*
X3429000Y44799250D01*
X3429000Y44095091D01*
X3525673Y43861702D01*
X3704301Y43683073D01*
X3857780Y43619500D01*
X3835585Y43604670D01*
X3510729Y43118489D01*
X3396655Y42545000D01*
X1397000Y42545000D01*
X1397000Y46074909D01*
X3429000Y46074909D01*
X3429000Y45370750D01*
X3587750Y45212000D01*
X4953000Y45212000D01*
X4953000Y46424850D01*
X5207000Y46424850D01*
X5207000Y45212000D01*
X6572250Y45212000D01*
X6731000Y45370750D01*
X6731000Y46074909D01*
X36449000Y46074909D01*
X36449000Y45370750D01*
X36607750Y45212000D01*
X37973000Y45212000D01*
X37973000Y46424850D01*
X38227000Y46424850D01*
X38227000Y45212000D01*
X39592250Y45212000D01*
X39751000Y45370750D01*
X39751000Y45595612D01*
X40509120Y45595612D01*
X40517025Y44534643D01*
X40907832Y43591154D01*
X41281879Y43366484D01*
X41580603Y43665208D01*
X41760051Y43485446D01*
X41461484Y43186879D01*
X41686154Y42812832D01*
X42669388Y42414120D01*
X43730357Y42422025D01*
X44673846Y42812832D01*
X44898516Y43186879D01*
X44599792Y43485603D01*
X44779554Y43665051D01*
X45078121Y43366484D01*
X45452168Y43591154D01*
X45850880Y44574388D01*
X45842975Y45635357D01*
X45452168Y46578846D01*
X45078121Y46803516D01*
X44779397Y46504792D01*
X44599949Y46684554D01*
X44898516Y46983121D01*
X44673846Y47357168D01*
X43690612Y47755880D01*
X42629643Y47747975D01*
X41686154Y47357168D01*
X41461484Y46983121D01*
X41760208Y46684397D01*
X41580446Y46504949D01*
X41281879Y46803516D01*
X40907832Y46578846D01*
X40509120Y45595612D01*
X39751000Y45595612D01*
X39751000Y46074909D01*
X39654327Y46308298D01*
X39475699Y46486927D01*
X39242310Y46583600D01*
X38385750Y46583600D01*
X38227000Y46424850D01*
X37973000Y46424850D01*
X37814250Y46583600D01*
X36957690Y46583600D01*
X36724301Y46486927D01*
X36545673Y46308298D01*
X36449000Y46074909D01*
X6731000Y46074909D01*
X6634327Y46308298D01*
X6455699Y46486927D01*
X6222310Y46583600D01*
X5365750Y46583600D01*
X5207000Y46424850D01*
X4953000Y46424850D01*
X4794250Y46583600D01*
X3937690Y46583600D01*
X3704301Y46486927D01*
X3525673Y46308298D01*
X3429000Y46074909D01*
X1397000Y46074909D01*
X1397000Y48133000D01*
X46863000Y48133000D01*
X46863000Y1397000D01*
X46863000Y1397000D01*
G37*
X46863000Y1397000D02*
X33326114Y1397000D01*
X33558192Y1628673D01*
X33700838Y1972201D01*
X33701162Y2344167D01*
X33559117Y2687943D01*
X33296327Y2951192D01*
X32952799Y3093838D01*
X32580833Y3094162D01*
X32459431Y3044000D01*
X30330580Y3044000D01*
X30592579Y3306000D01*
X38047178Y3306000D01*
X38167201Y3256162D01*
X38539167Y3255838D01*
X38882943Y3397883D01*
X39146192Y3660673D01*
X39288838Y4004201D01*
X39289162Y4376167D01*
X39147117Y4719943D01*
X38911859Y4955612D01*
X40509120Y4955612D01*
X40517025Y3894643D01*
X40907832Y2951154D01*
X41281879Y2726484D01*
X41580603Y3025208D01*
X41760051Y2845446D01*
X41461484Y2546879D01*
X41686154Y2172832D01*
X42669388Y1774120D01*
X43730357Y1782025D01*
X44673846Y2172832D01*
X44898516Y2546879D01*
X44599792Y2845603D01*
X44779554Y3025051D01*
X45078121Y2726484D01*
X45452168Y2951154D01*
X45850880Y3934388D01*
X45842975Y4995357D01*
X45452168Y5938846D01*
X45078121Y6163516D01*
X44779397Y5864792D01*
X44599949Y6044554D01*
X44898516Y6343121D01*
X44673846Y6717168D01*
X43690612Y7115880D01*
X42629643Y7107975D01*
X41686154Y6717168D01*
X41461484Y6343121D01*
X41760208Y6044397D01*
X41580446Y5864949D01*
X41281879Y6163516D01*
X40907832Y5938846D01*
X40509120Y4955612D01*
X38911859Y4955612D01*
X38884327Y4983192D01*
X38540799Y5125838D01*
X38168833Y5126162D01*
X38047431Y5076000D01*
X30226005Y5076000D01*
X30226000Y5076001D01*
X29943516Y5019810D01*
X29887325Y5008633D01*
X29600210Y4816790D01*
X29600208Y4816787D01*
X29129135Y4345715D01*
X29129162Y4376167D01*
X28987117Y4719943D01*
X28724327Y4983192D01*
X28380799Y5125838D01*
X28008833Y5126162D01*
X27887431Y5076000D01*
X19291040Y5076000D01*
X19291040Y6731000D01*
X19246762Y6966317D01*
X19107690Y7182441D01*
X18895490Y7327431D01*
X18685278Y7370000D01*
X20267178Y7370000D01*
X20387201Y7320162D01*
X20759167Y7319838D01*
X21102943Y7461883D01*
X21366192Y7724673D01*
X21508838Y8068201D01*
X21508839Y8069833D01*
X21670838Y8069833D01*
X21812883Y7726057D01*
X22075673Y7462808D01*
X22419201Y7320162D01*
X22791167Y7319838D01*
X23134943Y7461883D01*
X23398192Y7724673D01*
X23448566Y7845986D01*
X24841829Y9239250D01*
X26441400Y9239250D01*
X26441400Y8382690D01*
X26538073Y8149301D01*
X26716702Y7970673D01*
X26950091Y7874000D01*
X27654250Y7874000D01*
X27813000Y8032750D01*
X27813000Y9398000D01*
X26600150Y9398000D01*
X26441400Y9239250D01*
X24841829Y9239250D01*
X25554834Y9952255D01*
X25674943Y10001883D01*
X25938192Y10264673D01*
X26080838Y10608201D01*
X26080889Y10667310D01*
X26441400Y10667310D01*
X26441400Y9810750D01*
X26600150Y9652000D01*
X27813000Y9652000D01*
X27813000Y11017250D01*
X27654250Y11176000D01*
X26950091Y11176000D01*
X26716702Y11079327D01*
X26538073Y10900699D01*
X26441400Y10667310D01*
X26080889Y10667310D01*
X26081162Y10980167D01*
X25939117Y11323943D01*
X25676327Y11587192D01*
X25332799Y11729838D01*
X24960833Y11730162D01*
X24617057Y11588117D01*
X24353808Y11325327D01*
X24303434Y11204013D01*
X22197164Y9097744D01*
X22077057Y9048117D01*
X21813808Y8785327D01*
X21671162Y8441799D01*
X21670838Y8069833D01*
X21508839Y8069833D01*
X21509162Y8440167D01*
X21367117Y8783943D01*
X21104327Y9047192D01*
X20760799Y9189838D01*
X20388833Y9190162D01*
X20267431Y9140000D01*
X16876579Y9140000D01*
X14774412Y11242168D01*
X14970000Y11202560D01*
X16970000Y11202560D01*
X17205317Y11246838D01*
X17421441Y11385910D01*
X17566431Y11598110D01*
X17617440Y11850000D01*
X17617440Y12183604D01*
X17643790Y12201210D01*
X17643791Y12201211D01*
X18950834Y13508255D01*
X19070943Y13557883D01*
X19334192Y13820673D01*
X19476838Y14164201D01*
X19477162Y14536167D01*
X19335117Y14879943D01*
X19072327Y15143192D01*
X18728799Y15285838D01*
X18356833Y15286162D01*
X18013057Y15144117D01*
X17749808Y14881327D01*
X17699434Y14760013D01*
X17108761Y14169340D01*
X16970000Y14197440D01*
X14970000Y14197440D01*
X14734683Y14153162D01*
X14518559Y14014090D01*
X14373569Y13801890D01*
X14322560Y13550000D01*
X14322560Y11850000D01*
X14358712Y11657867D01*
X13617440Y12399140D01*
X13617440Y13550000D01*
X13573162Y13785317D01*
X13434090Y14001441D01*
X13221890Y14146431D01*
X12970000Y14197440D01*
X11819139Y14197440D01*
X11039790Y14976790D01*
X10790750Y15143192D01*
X10752675Y15168633D01*
X10696484Y15179810D01*
X10414000Y15236001D01*
X10413995Y15236000D01*
X9704822Y15236000D01*
X9584799Y15285838D01*
X9212833Y15286162D01*
X8869057Y15144117D01*
X8605808Y14881327D01*
X8463162Y14537799D01*
X8462838Y14165833D01*
X8604883Y13822057D01*
X8867673Y13558808D01*
X9211201Y13416162D01*
X9583167Y13415838D01*
X9704569Y13466000D01*
X10047420Y13466000D01*
X10322560Y13190860D01*
X10322560Y11850000D01*
X10366838Y11614683D01*
X10505910Y11398559D01*
X10718110Y11253569D01*
X10970000Y11202560D01*
X11705392Y11202560D01*
X11631431Y11172000D01*
X7378440Y11172000D01*
X7378440Y11176000D01*
X7334162Y11411317D01*
X7195090Y11627441D01*
X6982890Y11772431D01*
X6731000Y11823440D01*
X4699000Y11823440D01*
X4463683Y11779162D01*
X4247559Y11640090D01*
X4140767Y11483794D01*
X3839155Y11685325D01*
X3207345Y11811000D01*
X3142655Y11811000D01*
X2510845Y11685325D01*
X1975222Y11327433D01*
X1617330Y10791810D01*
X1491655Y10160000D01*
X1617330Y9528190D01*
X1975222Y8992567D01*
X2510845Y8634675D01*
X3142655Y8509000D01*
X3207345Y8509000D01*
X3839155Y8634675D01*
X4141962Y8837004D01*
X4234910Y8692559D01*
X4447110Y8547569D01*
X4699000Y8496560D01*
X6731000Y8496560D01*
X6966317Y8540838D01*
X7182441Y8679910D01*
X7327431Y8892110D01*
X7378440Y9144000D01*
X7378440Y9402000D01*
X11631178Y9402000D01*
X11751201Y9352162D01*
X12123167Y9351838D01*
X12466943Y9493883D01*
X12730192Y9756673D01*
X12872838Y10100201D01*
X12873162Y10472167D01*
X12754804Y10758617D01*
X15389421Y8124000D01*
X5842000Y8124000D01*
X5503325Y8056633D01*
X5216210Y7864790D01*
X5024367Y7577675D01*
X4984934Y7379435D01*
X4506511Y7284271D01*
X4020330Y6959415D01*
X3695474Y6473234D01*
X3581400Y5899745D01*
X3581400Y5530255D01*
X3695474Y4956766D01*
X4020330Y4470585D01*
X4506511Y4145729D01*
X5080000Y4031655D01*
X5653489Y4145729D01*
X6139670Y4470585D01*
X6350000Y4785366D01*
X6560330Y4470585D01*
X7046511Y4145729D01*
X7620000Y4031655D01*
X8193489Y4145729D01*
X8679670Y4470585D01*
X8890000Y4785366D01*
X9100330Y4470585D01*
X9586511Y4145729D01*
X9763244Y4110575D01*
X9788210Y4073210D01*
X10817421Y3044000D01*
X5700580Y3044000D01*
X5668744Y3075835D01*
X5619117Y3195943D01*
X5356327Y3459192D01*
X5012799Y3601838D01*
X4640833Y3602162D01*
X4297057Y3460117D01*
X4033808Y3197327D01*
X3891162Y2853799D01*
X3890838Y2481833D01*
X4032883Y2138057D01*
X4295673Y1874808D01*
X4416986Y1824434D01*
X4708208Y1533213D01*
X4708210Y1533210D01*
X4912064Y1397000D01*
X1397000Y1397000D01*
X1397000Y25275612D01*
X2409120Y25275612D01*
X2417025Y24214643D01*
X2807832Y23271154D01*
X3181879Y23046484D01*
X3480603Y23345208D01*
X3660051Y23165446D01*
X3361484Y22866879D01*
X3586154Y22492832D01*
X4569388Y22094120D01*
X5630357Y22102025D01*
X6573846Y22492832D01*
X6798516Y22866879D01*
X6499792Y23165603D01*
X6679554Y23345051D01*
X6978121Y23046484D01*
X7352168Y23271154D01*
X7750880Y24254388D01*
X7742975Y25315357D01*
X7352168Y26258846D01*
X6978121Y26483516D01*
X6679397Y26184792D01*
X6499949Y26364554D01*
X6798516Y26663121D01*
X6573846Y27037168D01*
X5590612Y27435880D01*
X4529643Y27427975D01*
X3586154Y27037168D01*
X3361484Y26663121D01*
X3660208Y26364397D01*
X3480446Y26184949D01*
X3181879Y26483516D01*
X2807832Y26258846D01*
X2409120Y25275612D01*
X1397000Y25275612D01*
X1397000Y42545000D01*
X3396655Y42545000D01*
X3510729Y41971511D01*
X3835585Y41485330D01*
X4150366Y41275000D01*
X3835585Y41064670D01*
X3510729Y40578489D01*
X3396655Y40005000D01*
X3510729Y39431511D01*
X3835585Y38945330D01*
X4150366Y38735000D01*
X3835585Y38524670D01*
X3510729Y38038489D01*
X3396655Y37465000D01*
X3510729Y36891511D01*
X3835585Y36405330D01*
X4321766Y36080474D01*
X4895255Y35966400D01*
X5264745Y35966400D01*
X5838234Y36080474D01*
X6205689Y36326000D01*
X21223420Y36326000D01*
X24171972Y33377449D01*
X24130000Y33314634D01*
X23919670Y33629415D01*
X23433489Y33954271D01*
X22860000Y34068345D01*
X22286511Y33954271D01*
X21800330Y33629415D01*
X21475474Y33143234D01*
X21361400Y32569745D01*
X21361400Y32200255D01*
X21475474Y31626766D01*
X21656460Y31355901D01*
X21472210Y31232790D01*
X21472208Y31232787D01*
X18133164Y27893744D01*
X18013057Y27844117D01*
X17749808Y27581327D01*
X17607162Y27237799D01*
X17606885Y26920000D01*
X15860579Y26920000D01*
X11627346Y31153234D01*
X11628400Y31158439D01*
X11640330Y31140585D01*
X12126511Y30815729D01*
X12700000Y30701655D01*
X13273489Y30815729D01*
X13759670Y31140585D01*
X13970000Y31455366D01*
X14180330Y31140585D01*
X14666511Y30815729D01*
X15240000Y30701655D01*
X15813489Y30815729D01*
X16299670Y31140585D01*
X16624526Y31626766D01*
X16738600Y32200255D01*
X16738600Y32569745D01*
X16624526Y33143234D01*
X16299670Y33629415D01*
X15813489Y33954271D01*
X15240000Y34068345D01*
X14666511Y33954271D01*
X14180330Y33629415D01*
X13970000Y33314634D01*
X13759670Y33629415D01*
X13273489Y33954271D01*
X12700000Y34068345D01*
X12126511Y33954271D01*
X11640330Y33629415D01*
X11630757Y33615087D01*
X11626762Y33636317D01*
X11487690Y33852441D01*
X11275490Y33997431D01*
X11023600Y34048440D01*
X9296400Y34048440D01*
X9061083Y34004162D01*
X8844959Y33865090D01*
X8699969Y33652890D01*
X8648960Y33401000D01*
X8648960Y31591620D01*
X6176744Y34063836D01*
X6127117Y34183943D01*
X5864327Y34447192D01*
X5520799Y34589838D01*
X5148833Y34590162D01*
X4805057Y34448117D01*
X4541808Y34185327D01*
X4399162Y33841799D01*
X4398838Y33469833D01*
X4540883Y33126057D01*
X4803673Y32862808D01*
X4924986Y32812434D01*
X11603255Y26134166D01*
X11652883Y26014057D01*
X11915673Y25750808D01*
X12259201Y25608162D01*
X12631167Y25607838D01*
X12974943Y25749883D01*
X13238192Y26012673D01*
X13380838Y26356201D01*
X13381162Y26728167D01*
X13262803Y27014617D01*
X14868208Y25409213D01*
X14868210Y25409210D01*
X15155325Y25217367D01*
X15211516Y25206190D01*
X15494000Y25149999D01*
X15494005Y25150000D01*
X17935980Y25150000D01*
X17916210Y25136790D01*
X17916208Y25136787D01*
X16101164Y23321744D01*
X15981057Y23272117D01*
X15717808Y23009327D01*
X15575162Y22665799D01*
X15574838Y22293833D01*
X15716883Y21950057D01*
X15979673Y21686808D01*
X16323201Y21544162D01*
X16695167Y21543838D01*
X17038943Y21685883D01*
X17302192Y21948673D01*
X17352566Y22069986D01*
X18908579Y23626000D01*
X23954671Y23626000D01*
X23845808Y23517327D01*
X23703162Y23173799D01*
X23702838Y22801833D01*
X23844883Y22458057D01*
X24107673Y22194808D01*
X24228986Y22144434D01*
X25536208Y20837213D01*
X25536210Y20837210D01*
X25555980Y20824000D01*
X12954005Y20824000D01*
X12954000Y20824001D01*
X12671516Y20767810D01*
X12615325Y20756633D01*
X12328210Y20564790D01*
X12328208Y20564787D01*
X11571420Y19808000D01*
X10922000Y19808000D01*
X10583325Y19740633D01*
X10296210Y19548790D01*
X10104367Y19261675D01*
X10037000Y18923000D01*
X10037000Y18803879D01*
X9586511Y18714271D01*
X9100330Y18389415D01*
X8775474Y17903234D01*
X8661400Y17329745D01*
X8661400Y16960255D01*
X8775474Y16386766D01*
X9100330Y15900585D01*
X9586511Y15575729D01*
X10160000Y15461655D01*
X10733489Y15575729D01*
X11219670Y15900585D01*
X11430000Y16215366D01*
X11640330Y15900585D01*
X12126511Y15575729D01*
X12700000Y15461655D01*
X13273489Y15575729D01*
X13759670Y15900585D01*
X13970000Y16215366D01*
X14180330Y15900585D01*
X14666511Y15575729D01*
X15240000Y15461655D01*
X15813489Y15575729D01*
X16299670Y15900585D01*
X16370106Y16006000D01*
X23763420Y16006000D01*
X28593421Y11176000D01*
X28225750Y11176000D01*
X28067000Y11017250D01*
X28067000Y9652000D01*
X28087000Y9652000D01*
X28087000Y9398000D01*
X28067000Y9398000D01*
X28067000Y8032750D01*
X28225750Y7874000D01*
X28929909Y7874000D01*
X29163298Y7970673D01*
X29341927Y8149301D01*
X29405500Y8302780D01*
X29420330Y8280585D01*
X29906511Y7955729D01*
X30480000Y7841655D01*
X31053489Y7955729D01*
X31539670Y8280585D01*
X31750000Y8595366D01*
X31960330Y8280585D01*
X32446511Y7955729D01*
X33020000Y7841655D01*
X33593489Y7955729D01*
X34079670Y8280585D01*
X34290000Y8595366D01*
X34500330Y8280585D01*
X34986511Y7955729D01*
X35560000Y7841655D01*
X36133489Y7955729D01*
X36619670Y8280585D01*
X36830000Y8595366D01*
X37040330Y8280585D01*
X37526511Y7955729D01*
X38100000Y7841655D01*
X38673489Y7955729D01*
X39159670Y8280585D01*
X39484526Y8766766D01*
X39598600Y9340255D01*
X39598600Y9709745D01*
X39484526Y10283234D01*
X39159670Y10769415D01*
X39007774Y10870909D01*
X38979790Y10912790D01*
X38979787Y10912792D01*
X30138747Y19753833D01*
X33354838Y19753833D01*
X33496883Y19410057D01*
X33759673Y19146808D01*
X34103201Y19004162D01*
X34475167Y19003838D01*
X34596569Y19054000D01*
X34939420Y19054000D01*
X36611732Y17381688D01*
X36601400Y17329745D01*
X36601400Y16960255D01*
X36715474Y16386766D01*
X37040330Y15900585D01*
X37526511Y15575729D01*
X38100000Y15461655D01*
X38673489Y15575729D01*
X39159670Y15900585D01*
X39370000Y16215366D01*
X39580330Y15900585D01*
X40066511Y15575729D01*
X40640000Y15461655D01*
X41213489Y15575729D01*
X41699670Y15900585D01*
X41714500Y15922780D01*
X41778073Y15769301D01*
X41956702Y15590673D01*
X42190091Y15494000D01*
X42894250Y15494000D01*
X43053000Y15652750D01*
X43053000Y17018000D01*
X43307000Y17018000D01*
X43307000Y15652750D01*
X43465750Y15494000D01*
X44169909Y15494000D01*
X44403298Y15590673D01*
X44581927Y15769301D01*
X44678600Y16002690D01*
X44678600Y16859250D01*
X44519850Y17018000D01*
X43307000Y17018000D01*
X43053000Y17018000D01*
X43033000Y17018000D01*
X43033000Y17272000D01*
X43053000Y17272000D01*
X43053000Y18637250D01*
X43307000Y18637250D01*
X43307000Y17272000D01*
X44519850Y17272000D01*
X44678600Y17430750D01*
X44678600Y18287310D01*
X44581927Y18520699D01*
X44403298Y18699327D01*
X44169909Y18796000D01*
X43465750Y18796000D01*
X43307000Y18637250D01*
X43053000Y18637250D01*
X42894250Y18796000D01*
X42190091Y18796000D01*
X41956702Y18699327D01*
X41778073Y18520699D01*
X41714500Y18367220D01*
X41699670Y18389415D01*
X41213489Y18714271D01*
X40640000Y18828345D01*
X40066511Y18714271D01*
X39580330Y18389415D01*
X39370000Y18074634D01*
X39159670Y18389415D01*
X38673489Y18714271D01*
X38100000Y18828345D01*
X37739869Y18756710D01*
X35931790Y20564790D01*
X35774506Y20669883D01*
X35644675Y20756633D01*
X35588484Y20767810D01*
X35306000Y20824001D01*
X35305995Y20824000D01*
X34596822Y20824000D01*
X34476799Y20873838D01*
X34104833Y20874162D01*
X33761057Y20732117D01*
X33497808Y20469327D01*
X33355162Y20125799D01*
X33354838Y19753833D01*
X30138747Y19753833D01*
X29327790Y20564790D01*
X29308020Y20578000D01*
X32459178Y20578000D01*
X32579201Y20528162D01*
X32951167Y20527838D01*
X33294943Y20669883D01*
X33558192Y20932673D01*
X33700838Y21276201D01*
X33701162Y21648167D01*
X33559117Y21991943D01*
X33296327Y22255192D01*
X32952799Y22397838D01*
X32580833Y22398162D01*
X32459431Y22348000D01*
X26528579Y22348000D01*
X25480744Y23395836D01*
X25431117Y23515943D01*
X25321252Y23626000D01*
X26809894Y23626000D01*
X26880330Y23520585D01*
X27366511Y23195729D01*
X27940000Y23081655D01*
X28513489Y23195729D01*
X28999670Y23520585D01*
X29324526Y24006766D01*
X29419671Y24485091D01*
X30592579Y25658000D01*
X36588960Y25658000D01*
X36588960Y23872000D01*
X35814005Y23872000D01*
X35814000Y23872001D01*
X35531516Y23815810D01*
X35475325Y23804633D01*
X35188210Y23612790D01*
X35188208Y23612787D01*
X34389164Y22813744D01*
X34269057Y22764117D01*
X34005808Y22501327D01*
X33863162Y22157799D01*
X33862838Y21785833D01*
X34004883Y21442057D01*
X34267673Y21178808D01*
X34611201Y21036162D01*
X34983167Y21035838D01*
X35326943Y21177883D01*
X35590192Y21440673D01*
X35640566Y21561986D01*
X36180579Y22102000D01*
X41047560Y22102000D01*
X41047560Y21765000D01*
X41091838Y21529683D01*
X41230910Y21313559D01*
X41443110Y21168569D01*
X41695000Y21117560D01*
X43395000Y21117560D01*
X43630317Y21161838D01*
X43846441Y21300910D01*
X43991431Y21513110D01*
X44042440Y21765000D01*
X44042440Y23765000D01*
X43998162Y24000317D01*
X43859090Y24216441D01*
X43646890Y24361431D01*
X43395000Y24412440D01*
X41695000Y24412440D01*
X41459683Y24368162D01*
X41243559Y24229090D01*
X41098569Y24016890D01*
X41069228Y23872000D01*
X39611040Y23872000D01*
X39611040Y25658000D01*
X41067693Y25658000D01*
X41091838Y25529683D01*
X41230910Y25313559D01*
X41443110Y25168569D01*
X41695000Y25117560D01*
X43395000Y25117560D01*
X43630317Y25161838D01*
X43846441Y25300910D01*
X43991431Y25513110D01*
X44042440Y25765000D01*
X44042440Y27765000D01*
X43998162Y28000317D01*
X43859090Y28216441D01*
X43646890Y28361431D01*
X43395000Y28412440D01*
X42308139Y28412440D01*
X39747000Y30973580D01*
X39747000Y31029220D01*
X40066511Y30815729D01*
X40640000Y30701655D01*
X41213489Y30815729D01*
X41699670Y31140585D01*
X41910000Y31455366D01*
X42120330Y31140585D01*
X42606511Y30815729D01*
X43180000Y30701655D01*
X43753489Y30815729D01*
X44239670Y31140585D01*
X44564526Y31626766D01*
X44678600Y32200255D01*
X44678600Y32569745D01*
X44564526Y33143234D01*
X44239670Y33629415D01*
X43753489Y33954271D01*
X43180000Y34068345D01*
X42606511Y33954271D01*
X42120330Y33629415D01*
X41910000Y33314634D01*
X41699670Y33629415D01*
X41213489Y33954271D01*
X40640000Y34068345D01*
X40066511Y33954271D01*
X39580330Y33629415D01*
X39370000Y33314634D01*
X39159670Y33629415D01*
X38673489Y33954271D01*
X38100000Y34068345D01*
X37526511Y33954271D01*
X37040330Y33629415D01*
X36715474Y33143234D01*
X36601400Y32569745D01*
X36601400Y32200255D01*
X36715474Y31626766D01*
X37040330Y31140585D01*
X37526511Y30815729D01*
X37977000Y30726121D01*
X37977000Y30607005D01*
X37976999Y30607000D01*
X38033190Y30324516D01*
X38044367Y30268325D01*
X38069975Y30230000D01*
X38236210Y29981210D01*
X40789421Y27428000D01*
X30226000Y27428000D01*
X29887325Y27360633D01*
X29600210Y27168790D01*
X29600208Y27168787D01*
X28664673Y26233253D01*
X28513489Y26334271D01*
X27940000Y26448345D01*
X27366511Y26334271D01*
X26880330Y26009415D01*
X26555474Y25523234D01*
X26530166Y25396000D01*
X22273329Y25396000D01*
X22382192Y25504673D01*
X22524838Y25848201D01*
X22525162Y26220167D01*
X22383117Y26563943D01*
X22120327Y26827192D01*
X21776799Y26969838D01*
X21404833Y26970162D01*
X21283431Y26920000D01*
X19662580Y26920000D01*
X22464579Y29722000D01*
X29717995Y29722000D01*
X29718000Y29721999D01*
X30000484Y29778190D01*
X30056675Y29789367D01*
X30343790Y29981210D01*
X36688579Y36326000D01*
X36974311Y36326000D01*
X37341766Y36080474D01*
X37915255Y35966400D01*
X38284745Y35966400D01*
X38858234Y36080474D01*
X39344415Y36405330D01*
X39669271Y36891511D01*
X39783345Y37465000D01*
X39669271Y38038489D01*
X39344415Y38524670D01*
X39029634Y38735000D01*
X39344415Y38945330D01*
X39669271Y39431511D01*
X39783345Y40005000D01*
X39669271Y40578489D01*
X39344415Y41064670D01*
X39029634Y41275000D01*
X39344415Y41485330D01*
X39669271Y41971511D01*
X39783345Y42545000D01*
X39669271Y43118489D01*
X39344415Y43604670D01*
X39322220Y43619500D01*
X39475699Y43683073D01*
X39654327Y43861702D01*
X39751000Y44095091D01*
X39751000Y44799250D01*
X39592250Y44958000D01*
X38227000Y44958000D01*
X38227000Y44938000D01*
X37973000Y44938000D01*
X37973000Y44958000D01*
X36607750Y44958000D01*
X36449000Y44799250D01*
X36449000Y44095091D01*
X36545673Y43861702D01*
X36724301Y43683073D01*
X36877780Y43619500D01*
X36855585Y43604670D01*
X36530729Y43118489D01*
X36416655Y42545000D01*
X36530729Y41971511D01*
X36855585Y41485330D01*
X37170366Y41275000D01*
X36855585Y41064670D01*
X36530729Y40578489D01*
X36416655Y40005000D01*
X36530729Y39431511D01*
X36855585Y38945330D01*
X37170366Y38735000D01*
X36855585Y38524670D01*
X36569157Y38096000D01*
X36322000Y38096000D01*
X35983325Y38028633D01*
X35696210Y37836790D01*
X35696208Y37836787D01*
X29351420Y31492000D01*
X29234478Y31492000D01*
X29324526Y31626766D01*
X29438600Y32200255D01*
X29438600Y32569745D01*
X29324526Y33143234D01*
X28999670Y33629415D01*
X28513489Y33954271D01*
X27940000Y34068345D01*
X27366511Y33954271D01*
X26880330Y33629415D01*
X26670000Y33314634D01*
X26459670Y33629415D01*
X26307774Y33730909D01*
X26279790Y33772790D01*
X26279787Y33772792D01*
X22215790Y37836790D01*
X22058506Y37941883D01*
X21928675Y38028633D01*
X21872484Y38039810D01*
X21590000Y38096001D01*
X21589995Y38096000D01*
X17701329Y38096000D01*
X17810192Y38204673D01*
X17952838Y38548201D01*
X17953162Y38920167D01*
X17811117Y39263943D01*
X17548327Y39527192D01*
X17427013Y39577566D01*
X16627790Y40376790D01*
X16340675Y40568633D01*
X16284484Y40579810D01*
X16002000Y40636001D01*
X16001995Y40636000D01*
X6610843Y40636000D01*
X6324415Y41064670D01*
X6009634Y41275000D01*
X6324415Y41485330D01*
X6649271Y41971511D01*
X6763345Y42545000D01*
X6649271Y43118489D01*
X6324415Y43604670D01*
X6302220Y43619500D01*
X6455699Y43683073D01*
X6634327Y43861702D01*
X6731000Y44095091D01*
X6731000Y44799250D01*
X6572250Y44958000D01*
X5207000Y44958000D01*
X5207000Y44938000D01*
X4953000Y44938000D01*
X4953000Y44958000D01*
X3587750Y44958000D01*
X3429000Y44799250D01*
X3429000Y44095091D01*
X3525673Y43861702D01*
X3704301Y43683073D01*
X3857780Y43619500D01*
X3835585Y43604670D01*
X3510729Y43118489D01*
X3396655Y42545000D01*
X1397000Y42545000D01*
X1397000Y46074909D01*
X3429000Y46074909D01*
X3429000Y45370750D01*
X3587750Y45212000D01*
X4953000Y45212000D01*
X4953000Y46424850D01*
X5207000Y46424850D01*
X5207000Y45212000D01*
X6572250Y45212000D01*
X6731000Y45370750D01*
X6731000Y46074909D01*
X36449000Y46074909D01*
X36449000Y45370750D01*
X36607750Y45212000D01*
X37973000Y45212000D01*
X37973000Y46424850D01*
X38227000Y46424850D01*
X38227000Y45212000D01*
X39592250Y45212000D01*
X39751000Y45370750D01*
X39751000Y45595612D01*
X40509120Y45595612D01*
X40517025Y44534643D01*
X40907832Y43591154D01*
X41281879Y43366484D01*
X41580603Y43665208D01*
X41760051Y43485446D01*
X41461484Y43186879D01*
X41686154Y42812832D01*
X42669388Y42414120D01*
X43730357Y42422025D01*
X44673846Y42812832D01*
X44898516Y43186879D01*
X44599792Y43485603D01*
X44779554Y43665051D01*
X45078121Y43366484D01*
X45452168Y43591154D01*
X45850880Y44574388D01*
X45842975Y45635357D01*
X45452168Y46578846D01*
X45078121Y46803516D01*
X44779397Y46504792D01*
X44599949Y46684554D01*
X44898516Y46983121D01*
X44673846Y47357168D01*
X43690612Y47755880D01*
X42629643Y47747975D01*
X41686154Y47357168D01*
X41461484Y46983121D01*
X41760208Y46684397D01*
X41580446Y46504949D01*
X41281879Y46803516D01*
X40907832Y46578846D01*
X40509120Y45595612D01*
X39751000Y45595612D01*
X39751000Y46074909D01*
X39654327Y46308298D01*
X39475699Y46486927D01*
X39242310Y46583600D01*
X38385750Y46583600D01*
X38227000Y46424850D01*
X37973000Y46424850D01*
X37814250Y46583600D01*
X36957690Y46583600D01*
X36724301Y46486927D01*
X36545673Y46308298D01*
X36449000Y46074909D01*
X6731000Y46074909D01*
X6634327Y46308298D01*
X6455699Y46486927D01*
X6222310Y46583600D01*
X5365750Y46583600D01*
X5207000Y46424850D01*
X4953000Y46424850D01*
X4794250Y46583600D01*
X3937690Y46583600D01*
X3704301Y46486927D01*
X3525673Y46308298D01*
X3429000Y46074909D01*
X1397000Y46074909D01*
X1397000Y48133000D01*
X46863000Y48133000D01*
X46863000Y1397000D01*
G36*
X12827000Y5842000D02*
X12847000Y5842000D01*
X12847000Y5588000D01*
X12827000Y5588000D01*
X12827000Y4228783D01*
X13059026Y4107642D01*
X13074791Y4110291D01*
X13602036Y4364268D01*
X13973539Y4780069D01*
X14180330Y4470585D01*
X14666511Y4145729D01*
X15097500Y4060000D01*
X12304579Y4060000D01*
X12188374Y4176205D01*
X12325209Y4110291D01*
X12340974Y4107642D01*
X12573000Y4228783D01*
X12573000Y5588000D01*
X12553000Y5588000D01*
X12553000Y5842000D01*
X12573000Y5842000D01*
X12573000Y5862000D01*
X12827000Y5862000D01*
X12827000Y5842000D01*
X12827000Y5842000D01*
G37*
X12827000Y5842000D02*
X12847000Y5842000D01*
X12847000Y5588000D01*
X12827000Y5588000D01*
X12827000Y4228783D01*
X13059026Y4107642D01*
X13074791Y4110291D01*
X13602036Y4364268D01*
X13973539Y4780069D01*
X14180330Y4470585D01*
X14666511Y4145729D01*
X15097500Y4060000D01*
X12304579Y4060000D01*
X12188374Y4176205D01*
X12325209Y4110291D01*
X12340974Y4107642D01*
X12573000Y4228783D01*
X12573000Y5588000D01*
X12553000Y5588000D01*
X12553000Y5842000D01*
X12573000Y5842000D01*
X12573000Y5862000D01*
X12827000Y5862000D01*
X12827000Y5842000D01*
M02*
