M48
;DRILL file {KiCad 4.0.1-stable} date 17/06/2016 15:58:27
;FORMAT={-:-/ absolute / metric / decimal}
FMAT,2
METRIC,TZ
T1C0.400
T2C1.016
T3C3.000
T4C3.048
%
G90
G05
M71
T1
X4.826Y2.667
X5.334Y33.655
X9.398Y14.351
X11.938Y10.287
X12.446Y26.543
X16.51Y22.479
X17.018Y38.735
X18.542Y27.051
X18.542Y14.351
X20.574Y8.255
X21.59Y26.035
X22.606Y8.255
X24.638Y22.987
X25.146Y10.795
X28.194Y4.191
X32.766Y21.463
X32.766Y2.159
X34.29Y19.939
X34.798Y21.971
X38.354Y4.191
T2
X3.175Y10.16
X5.08Y45.085
X5.08Y42.545
X5.08Y40.005
X5.08Y37.465
X5.08Y5.715
X5.715Y10.16
X7.62Y5.715
X10.16Y32.385
X10.16Y17.145
X10.16Y5.715
X12.7Y32.385
X12.7Y17.145
X12.7Y5.715
X15.24Y32.385
X15.24Y17.145
X15.24Y5.715
X17.78Y5.715
X22.86Y32.385
X25.4Y32.385
X27.94Y32.385
X27.94Y24.765
X27.94Y9.525
X30.48Y9.525
X33.02Y9.525
X35.56Y9.525
X38.1Y45.085
X38.1Y42.545
X38.1Y40.005
X38.1Y37.465
X38.1Y32.385
X38.1Y24.765
X38.1Y17.145
X38.1Y9.525
X40.64Y32.385
X40.64Y17.145
X43.18Y32.385
X43.18Y17.145
T3
X5.08Y24.765
X43.18Y45.085
X43.18Y4.445
T4
X5.08Y24.765
X43.18Y45.085
X43.18Y4.445
T0
M30
