M48
;DRILL file {KiCad 4.0.6} date 05/30/17 16:39:32
;FORMAT={-:-/ absolute / metric / decimal}
FMAT,2
METRIC,TZ
T1C0.400
T2C0.700
T3C1.000
%
G90
G05
M71
T1
X2.794Y35.814
X2.794Y21.844
X3.429Y33.909
X3.81Y41.91
X4.064Y14.224
X5.461Y48.006
X7.874Y39.37
X9.344Y38.974
T2
X5.08Y36.83
X6.98Y36.83
X10.04Y59.2
X10.04Y57.3
X10.04Y54.48
X10.04Y52.58
X11.43Y36.83
X13.33Y36.83
T3
X1.27Y59.69
X1.27Y57.15
X1.27Y54.61
X1.27Y52.07
X1.27Y49.53
X1.27Y46.99
X1.27Y44.45
X1.27Y41.91
X1.27Y39.37
X1.27Y36.83
X1.27Y34.29
X1.27Y31.75
X1.27Y29.21
X1.27Y26.67
X1.27Y24.13
X1.27Y21.59
X1.27Y19.05
X1.27Y16.51
X1.27Y13.97
X1.27Y11.43
X1.27Y8.89
X1.27Y6.35
X1.27Y3.81
X1.27Y1.27
X6.35Y59.69
X6.35Y57.15
X6.35Y54.61
X6.35Y52.07
X6.35Y41.91
X6.35Y31.75
X6.35Y24.13
X8.89Y41.91
X8.89Y31.75
X8.89Y24.13
X11.43Y41.91
X11.43Y31.75
X11.43Y24.13
X13.97Y59.69
X13.97Y57.15
X13.97Y54.61
X13.97Y52.07
X13.97Y41.91
X16.51Y59.69
X16.51Y57.15
X16.51Y54.61
X16.51Y52.07
X16.51Y49.53
X16.51Y46.99
X16.51Y44.45
X16.51Y41.91
X16.51Y39.37
X16.51Y36.83
X16.51Y34.29
X16.51Y31.75
X16.51Y29.21
X16.51Y26.67
X16.51Y24.13
X16.51Y21.59
X16.51Y19.05
X16.51Y16.51
X16.51Y13.97
X16.51Y11.43
X16.51Y8.89
X16.51Y6.35
X16.51Y3.81
X16.51Y1.27
T0
M30
