G04 #@! TF.FileFunction,Soldermask,Bot*
%FSLAX46Y46*%
G04 Gerber Fmt 4.6, Leading zero omitted, Abs format (unit mm)*
G04 Created by KiCad (PCBNEW 4.0.6) date 10/26/17 08:41:42*
%MOMM*%
%LPD*%
G01*
G04 APERTURE LIST*
%ADD10C,0.100000*%
%ADD11R,2.100000X2.100000*%
%ADD12O,2.100000X2.100000*%
%ADD13O,1.910000X3.410000*%
%ADD14C,1.800000*%
%ADD15O,1.800000X1.800000*%
G04 APERTURE END LIST*
D10*
D11*
X6350000Y52070000D03*
D12*
X6350000Y54610000D03*
X6350000Y57150000D03*
X6350000Y59690000D03*
D11*
X13970000Y41910000D03*
D12*
X11430000Y41910000D03*
X8890000Y41910000D03*
X6350000Y41910000D03*
D11*
X13970000Y52070000D03*
D12*
X13970000Y54610000D03*
X13970000Y57150000D03*
X13970000Y59690000D03*
D13*
X6350000Y24130000D03*
X8890000Y24130000D03*
X11430000Y24130000D03*
X6350000Y31750000D03*
X8890000Y31750000D03*
X11430000Y31750000D03*
D14*
X5080000Y36830000D03*
D15*
X6980000Y36830000D03*
D14*
X10040000Y52580000D03*
D15*
X10040000Y54480000D03*
D14*
X11430000Y36830000D03*
D15*
X13330000Y36830000D03*
D14*
X10040000Y59200000D03*
D15*
X10040000Y57300000D03*
D11*
X16510000Y1270000D03*
D12*
X1270000Y1270000D03*
X16510000Y3810000D03*
X1270000Y3810000D03*
X16510000Y6350000D03*
X1270000Y6350000D03*
X16510000Y8890000D03*
X1270000Y8890000D03*
X16510000Y11430000D03*
X1270000Y11430000D03*
X16510000Y13970000D03*
X1270000Y13970000D03*
X16510000Y16510000D03*
X1270000Y16510000D03*
X16510000Y19050000D03*
X1270000Y19050000D03*
X16510000Y21590000D03*
X1270000Y21590000D03*
X16510000Y24130000D03*
X1270000Y24130000D03*
X16510000Y26670000D03*
X1270000Y26670000D03*
X16510000Y29210000D03*
X1270000Y29210000D03*
X16510000Y31750000D03*
X1270000Y31750000D03*
X16510000Y34290000D03*
X1270000Y34290000D03*
X16510000Y36830000D03*
X1270000Y36830000D03*
X16510000Y39370000D03*
X1270000Y39370000D03*
X16510000Y41910000D03*
X1270000Y41910000D03*
X16510000Y44450000D03*
X1270000Y44450000D03*
X16510000Y46990000D03*
X1270000Y46990000D03*
X16510000Y49530000D03*
X1270000Y49530000D03*
X16510000Y52070000D03*
X1270000Y52070000D03*
X16510000Y54610000D03*
X1270000Y54610000D03*
X16510000Y57150000D03*
X1270000Y57150000D03*
X16510000Y59690000D03*
X1270000Y59690000D03*
M02*
