G04 #@! TF.FileFunction,Legend,Top*
%FSLAX46Y46*%
G04 Gerber Fmt 4.6, Leading zero omitted, Abs format (unit mm)*
G04 Created by KiCad (PCBNEW 4.0.6) date 05/30/17 16:39:26*
%MOMM*%
%LPD*%
G01*
G04 APERTURE LIST*
%ADD10C,0.100000*%
%ADD11C,0.250000*%
%ADD12C,0.120000*%
G04 APERTURE END LIST*
D10*
D11*
X12518571Y1697381D02*
X11661428Y1697381D01*
X12089999Y2697381D02*
X12089999Y1697381D01*
X11161428Y2173571D02*
X10661428Y2173571D01*
X10447142Y2697381D02*
X11161428Y2697381D01*
X11161428Y1697381D01*
X10447142Y1697381D01*
X9804285Y2173571D02*
X9304285Y2173571D01*
X9089999Y2697381D02*
X9804285Y2697381D01*
X9804285Y1697381D01*
X9089999Y1697381D01*
X8447142Y2697381D02*
X8447142Y1697381D01*
X7589999Y2697381D01*
X7589999Y1697381D01*
X6947142Y2649762D02*
X6732856Y2697381D01*
X6375713Y2697381D01*
X6232856Y2649762D01*
X6161427Y2602143D01*
X6089999Y2506905D01*
X6089999Y2411667D01*
X6161427Y2316429D01*
X6232856Y2268810D01*
X6375713Y2221190D01*
X6661427Y2173571D01*
X6804285Y2125952D01*
X6875713Y2078333D01*
X6947142Y1983095D01*
X6947142Y1887857D01*
X6875713Y1792619D01*
X6804285Y1745000D01*
X6661427Y1697381D01*
X6304285Y1697381D01*
X6089999Y1745000D01*
X5161428Y2221190D02*
X5161428Y2697381D01*
X5661428Y1697381D02*
X5161428Y2221190D01*
X4661428Y1697381D01*
X13554285Y3447381D02*
X13554285Y4256905D01*
X13482857Y4352143D01*
X13411428Y4399762D01*
X13268571Y4447381D01*
X12982857Y4447381D01*
X12839999Y4399762D01*
X12768571Y4352143D01*
X12697142Y4256905D01*
X12697142Y3447381D01*
X12054285Y4399762D02*
X11839999Y4447381D01*
X11482856Y4447381D01*
X11339999Y4399762D01*
X11268570Y4352143D01*
X11197142Y4256905D01*
X11197142Y4161667D01*
X11268570Y4066429D01*
X11339999Y4018810D01*
X11482856Y3971190D01*
X11768570Y3923571D01*
X11911428Y3875952D01*
X11982856Y3828333D01*
X12054285Y3733095D01*
X12054285Y3637857D01*
X11982856Y3542619D01*
X11911428Y3495000D01*
X11768570Y3447381D01*
X11411428Y3447381D01*
X11197142Y3495000D01*
X10054285Y3923571D02*
X9839999Y3971190D01*
X9768571Y4018810D01*
X9697142Y4114048D01*
X9697142Y4256905D01*
X9768571Y4352143D01*
X9839999Y4399762D01*
X9982857Y4447381D01*
X10554285Y4447381D01*
X10554285Y3447381D01*
X10054285Y3447381D01*
X9911428Y3495000D01*
X9839999Y3542619D01*
X9768571Y3637857D01*
X9768571Y3733095D01*
X9839999Y3828333D01*
X9911428Y3875952D01*
X10054285Y3923571D01*
X10554285Y3923571D01*
X7982857Y4399762D02*
X7768571Y4447381D01*
X7411428Y4447381D01*
X7268571Y4399762D01*
X7197142Y4352143D01*
X7125714Y4256905D01*
X7125714Y4161667D01*
X7197142Y4066429D01*
X7268571Y4018810D01*
X7411428Y3971190D01*
X7697142Y3923571D01*
X7840000Y3875952D01*
X7911428Y3828333D01*
X7982857Y3733095D01*
X7982857Y3637857D01*
X7911428Y3542619D01*
X7840000Y3495000D01*
X7697142Y3447381D01*
X7340000Y3447381D01*
X7125714Y3495000D01*
X6482857Y4447381D02*
X6482857Y3447381D01*
X5768571Y4447381D02*
X5768571Y3447381D01*
X5411428Y3447381D01*
X5197143Y3495000D01*
X5054285Y3590238D01*
X4982857Y3685476D01*
X4911428Y3875952D01*
X4911428Y4018810D01*
X4982857Y4209286D01*
X5054285Y4304524D01*
X5197143Y4399762D01*
X5411428Y4447381D01*
X5768571Y4447381D01*
X4268571Y3923571D02*
X3768571Y3923571D01*
X3554285Y4447381D02*
X4268571Y4447381D01*
X4268571Y3447381D01*
X3554285Y3447381D01*
D12*
X17780000Y2540000D02*
X15240000Y2540000D01*
X15240000Y2540000D02*
X15240000Y0D01*
X-60000Y2540000D02*
X-60000Y61020000D01*
X17840000Y61020000D02*
X-60000Y61020000D01*
X17840000Y61020000D02*
X17840000Y-60000D01*
X17840000Y-60000D02*
X-60000Y-60000D01*
X-60000Y2540000D02*
X-60000Y-60000D01*
X-60000Y-60000D02*
X1210000Y-60000D01*
M02*
